{"glyphs":{"\r":{"ha":0,"x_min":0,"x_max":0,"o":""}," ":{"ha":380,"x_min":0,"x_max":0,"o":""},"":{"ha":1389,"x_min":0,"x_max":1389,"o":"m 1389 955 l 0 955 l 0 1042 l 1389 1042 l 1389 955 l 1389 955 m 1389 260 l 0 260 l 0 347 l 1389 347 l 1389 260 l 1389 260 m 1389 608 l 0 608 l 0 694 l 1389 694 l 1389 608 l 1389 608 z "},"":{"ha":1389,"x_min":13,"x_max":1376,"o":"m 694 452 l 1315 1072 l 1376 1011 l 694 330 l 13 1011 l 74 1072 l 694 452 l 694 452 z "},"":{"ha":1389,"x_min":0,"x_max":1389,"o":"m 1389 738 l 1389 651 l 738 651 l 738 0 l 651 0 l 651 651 l 0 651 l 0 738 l 651 738 l 651 1389 l 738 1389 l 738 738 l 1389 738 z "},"":{"ha":1389,"x_min":165,"x_max":1224,"o":"m 1224 1163 l 756 694 l 1224 226 l 1163 165 l 694 633 l 226 165 l 165 226 l 633 694 l 165 1163 l 226 1224 l 694 756 l 1163 1224 l 1224 1163 l 1224 1163 z "},"":{"ha":1389,"x_min":4,"x_max":1385,"o":"m 1209 719 q 1210 707 1209 713 q 1210 694 1210 701 q 1210 682 1210 688 q 1209 670 1209 676 l 1385 561 l 1277 301 l 1076 347 q 1042 313 1059 330 l 1088 112 l 828 4 l 719 180 q 707 179 713 180 q 694 179 701 179 q 682 179 688 179 q 670 180 676 180 l 561 4 l 301 112 l 347 313 q 313 347 330 330 l 112 301 l 4 561 l 180 670 q 179 682 180 676 q 179 694 179 688 q 179 707 179 701 q 180 719 180 713 l 4 828 l 112 1088 l 313 1042 q 347 1076 330 1059 l 301 1277 l 561 1385 l 670 1209 q 682 1210 676 1209 q 694 1210 688 1210 q 707 1210 701 1210 q 719 1209 713 1209 l 828 1385 l 1088 1277 l 1042 1076 q 1076 1042 1059 1059 l 1277 1088 l 1385 828 l 1209 719 m 1130 631 q 1133 663 1131 647 q 1134 695 1134 679 q 1133 727 1134 711 q 1130 759 1131 743 l 1290 859 l 1232 1000 l 1048 957 q 1005 1004 1027 983 q 957 1048 983 1026 l 1000 1232 l 859 1290 l 758 1130 q 726 1133 743 1131 q 694 1134 710 1134 q 662 1133 678 1134 q 630 1130 646 1131 l 530 1290 l 389 1232 l 432 1048 q 385 1005 406 1027 q 341 957 363 983 l 157 1000 l 99 859 l 259 758 q 256 726 258 742 q 255 694 255 710 q 256 662 255 678 q 259 630 258 646 l 99 530 l 157 389 l 341 432 q 384 385 362 406 q 432 341 406 363 l 389 157 l 530 99 l 631 259 q 663 256 646 258 q 694 255 679 255 q 727 256 711 255 q 759 259 743 258 l 859 99 l 1000 157 l 957 341 q 1004 384 983 362 q 1048 432 1026 406 l 1232 389 l 1290 530 l 1130 631 m 694 949 q 794 929 747 949 q 875 875 840 909 q 929 794 909 840 q 949 694 949 747 q 929 595 949 642 q 875 514 909 549 q 794 459 840 479 q 694 439 747 439 q 595 459 642 439 q 514 514 549 479 q 459 595 479 549 q 439 694 439 642 q 459 794 439 747 q 514 875 479 840 q 595 929 549 909 q 694 949 642 949 m 694 515 q 764 529 732 515 q 821 568 797 543 q 860 625 846 592 q 873 694 873 657 q 860 764 873 732 q 821 821 846 797 q 764 860 797 846 q 694 873 732 873 q 625 860 657 873 q 568 821 592 846 q 529 764 543 797 q 515 694 515 732 q 529 625 515 657 q 568 568 543 592 q 625 529 592 543 q 694 515 657 515 z "},"":{"ha":1389,"x_min":0,"x_max":1389,"o":"m 1389 1042 l 1389 434 l 1345 434 q 1249 457 1293 434 q 1173 521 1204 479 l 838 521 q 790 449 819 481 q 726 394 762 416 q 649 359 690 372 q 564 347 608 347 l 521 347 l 521 694 l 87 694 l 0 738 l 87 781 l 521 781 l 521 1128 l 564 1128 q 649 1116 608 1128 q 726 1082 690 1104 q 790 1027 762 1059 q 838 955 819 995 l 1173 955 q 1249 1019 1204 996 q 1345 1042 1293 1042 l 1389 1042 m 1302 947 q 1274 934 1286 942 q 1254 916 1263 926 q 1237 894 1244 906 q 1221 868 1229 882 l 778 868 l 768 897 q 706 988 749 951 q 608 1037 663 1025 l 608 439 q 706 488 663 450 q 768 578 749 525 l 778 608 l 1221 608 q 1237 582 1229 594 q 1254 560 1244 570 q 1274 542 1263 550 q 1302 528 1286 534 l 1302 947 z "},"":{"ha":1389,"x_min":0,"x_max":1389,"o":"m 1289 486 q 1331 451 1312 471 q 1362 408 1350 431 q 1382 357 1375 384 q 1389 304 1389 331 q 1372 220 1389 259 q 1325 151 1354 180 q 1256 104 1295 121 q 1172 87 1217 87 q 1057 120 1109 87 q 885 31 979 61 q 694 0 792 0 q 504 31 597 0 q 332 120 410 61 q 217 87 279 87 q 133 104 172 87 q 64 151 94 121 q 17 220 35 180 q 0 304 0 259 q 7 357 0 331 q 26 408 14 384 q 58 451 39 431 q 100 486 77 471 q 90 547 93 517 q 87 608 87 577 q 115 789 87 701 q 194 952 143 877 q 317 1084 245 1027 q 477 1175 389 1142 q 495 1258 478 1219 q 542 1326 513 1297 q 611 1372 572 1355 q 694 1389 650 1389 q 778 1372 739 1389 q 847 1326 817 1355 q 893 1258 876 1297 q 911 1175 911 1219 q 1072 1084 1000 1142 q 1195 952 1143 1027 q 1274 789 1246 877 q 1302 608 1302 701 q 1299 547 1302 577 q 1289 486 1296 517 m 694 1302 q 644 1292 667 1302 q 602 1264 620 1282 q 574 1223 585 1246 q 564 1172 564 1199 q 574 1121 564 1145 q 602 1080 585 1097 q 644 1052 620 1062 q 694 1042 667 1042 q 745 1052 722 1042 q 787 1080 769 1062 q 814 1121 804 1097 q 825 1172 825 1145 q 814 1223 825 1199 q 787 1264 804 1246 q 745 1292 769 1282 q 694 1302 722 1302 m 87 304 q 97 253 87 277 q 125 212 107 229 q 166 184 142 194 q 217 174 190 174 q 268 184 244 174 q 309 212 292 194 q 337 253 327 229 q 347 304 347 277 q 337 355 347 331 q 309 396 327 378 q 268 424 292 414 q 217 434 244 434 q 166 424 190 434 q 125 396 142 414 q 97 355 107 378 q 87 304 87 331 m 694 87 q 851 111 774 87 q 993 181 927 135 q 965 240 975 208 q 955 304 955 271 q 972 388 955 349 q 1019 457 989 427 q 1088 504 1048 486 q 1172 521 1127 521 q 1190 520 1181 521 q 1207 518 1198 519 q 1215 608 1215 563 q 1193 761 1215 687 q 1128 897 1170 834 q 1027 1009 1086 960 q 895 1088 968 1058 q 862 1034 882 1059 q 814 991 841 1009 q 758 964 788 974 q 694 955 727 955 q 631 964 662 955 q 574 991 601 974 q 527 1034 548 1009 q 494 1088 507 1059 q 362 1009 421 1058 q 261 897 302 960 q 196 761 219 834 q 174 608 174 687 q 182 518 174 563 q 276 513 231 526 q 357 469 322 499 q 413 396 392 439 q 434 304 434 353 q 424 240 434 271 q 396 181 414 208 q 538 111 462 135 q 694 87 614 87 m 1172 174 q 1223 184 1199 174 q 1264 212 1246 194 q 1292 253 1282 229 q 1302 304 1302 277 q 1292 355 1302 331 q 1264 396 1282 378 q 1223 424 1246 414 q 1172 434 1199 434 q 1121 424 1145 434 q 1080 396 1097 414 q 1052 355 1062 378 q 1042 304 1042 331 q 1052 253 1042 277 q 1080 212 1062 229 q 1121 184 1097 194 q 1172 174 1145 174 z "},"":{"ha":1389,"x_min":0,"x_max":1389,"o":"m 1389 651 l 0 651 l 0 738 l 1389 738 l 1389 651 l 1389 651 z "},"":{"ha":1389,"x_min":0,"x_max":1389,"o":"m 682 447 l 621 508 l 806 694 l 621 881 l 682 942 l 868 756 l 1055 942 l 1116 881 l 930 694 l 1116 508 l 1055 447 l 868 633 l 682 447 m 521 1215 l 1389 1215 l 1389 174 l 521 174 l 0 694 l 521 1215 m 1302 260 l 1302 1128 l 557 1128 l 123 694 l 557 260 l 1302 260 z "},"":{"ha":1389,"x_min":156,"x_max":1215,"o":"m 1215 1128 l 1215 608 l 322 608 l 638 291 l 577 230 l 156 651 l 577 1072 l 638 1011 l 322 694 l 1128 694 l 1128 1128 l 1215 1128 l 1215 1128 z "},"":{"ha":1389,"x_min":317,"x_max":1159,"o":"m 1159 812 l 1098 751 l 781 1067 l 781 174 l 694 174 l 694 1067 l 378 751 l 317 812 l 738 1233 l 1159 812 l 1159 812 z "},"":{"ha":1389,"x_min":94,"x_max":1302,"o":"m 698 1302 q 858 1280 781 1302 q 1002 1219 935 1259 q 1125 1125 1069 1180 q 1219 1002 1180 1069 q 1280 858 1259 935 q 1302 698 1302 781 q 1280 537 1302 614 q 1219 393 1259 460 q 1125 271 1180 326 q 1002 176 1069 216 q 858 115 935 137 q 698 94 781 94 q 537 115 614 94 q 393 176 460 137 q 271 271 326 216 q 176 393 216 326 q 115 537 137 460 q 94 698 94 614 q 115 858 94 781 q 176 1002 137 935 q 271 1125 216 1069 q 393 1219 326 1180 q 537 1280 460 1259 q 698 1302 614 1302 m 698 180 q 835 199 769 180 q 959 251 901 218 q 1064 332 1017 285 q 1144 437 1111 379 q 1197 561 1178 494 q 1215 698 1215 627 q 1197 835 1215 769 q 1144 959 1178 901 q 1063 1063 1111 1016 q 959 1144 1016 1111 q 835 1197 901 1178 q 698 1215 769 1215 q 561 1197 627 1215 q 437 1144 494 1178 q 332 1064 379 1111 q 251 959 285 1017 q 199 835 218 901 q 180 698 180 769 q 199 561 180 627 q 251 437 218 494 q 332 332 285 379 q 437 251 379 285 q 561 199 494 218 q 698 180 627 180 m 833 946 l 583 694 l 833 443 l 772 382 l 459 694 l 772 1007 l 833 946 z "},"":{"ha":1389,"x_min":94,"x_max":1302,"o":"m 698 1215 q 561 1197 627 1215 q 437 1144 494 1178 q 332 1064 379 1111 q 251 959 285 1017 q 199 835 218 901 q 180 698 180 769 q 199 561 180 627 q 251 437 218 494 q 332 332 285 379 q 437 251 379 285 q 561 199 494 218 q 698 180 627 180 q 835 199 769 180 q 959 251 901 218 q 1064 332 1017 285 q 1144 437 1111 379 q 1197 561 1178 494 q 1215 698 1215 627 q 1197 835 1215 769 q 1144 959 1178 901 q 1063 1063 1111 1016 q 959 1144 1016 1111 q 835 1197 901 1178 q 698 1215 769 1215 m 698 1302 q 858 1280 781 1302 q 1002 1219 935 1259 q 1125 1125 1069 1180 q 1219 1002 1180 1069 q 1280 858 1259 935 q 1302 698 1302 781 q 1280 537 1302 614 q 1219 393 1259 460 q 1125 271 1180 326 q 1002 176 1069 216 q 858 115 935 137 q 698 94 781 94 q 537 115 614 94 q 393 176 460 137 q 271 271 326 216 q 176 393 216 326 q 115 537 137 460 q 94 698 94 614 q 115 858 94 781 q 176 1002 137 935 q 271 1125 216 1069 q 393 1219 326 1180 q 537 1280 460 1259 q 698 1302 614 1302 m 638 382 l 577 443 l 828 694 l 577 946 l 638 1007 l 951 694 l 638 382 z "},"":{"ha":1389,"x_min":0,"x_max":1302,"o":"m 1209 1128 q 1246 1120 1230 1128 q 1276 1099 1263 1112 q 1295 1068 1288 1086 q 1302 1031 1302 1050 l 1302 445 q 1295 408 1302 425 q 1276 377 1288 390 q 1246 355 1263 363 q 1209 347 1230 347 l 93 347 q 56 355 73 347 q 26 377 39 363 q 7 408 14 390 q 0 445 0 425 l 0 1031 q 7 1068 0 1050 q 26 1099 14 1086 q 56 1120 39 1112 q 93 1128 73 1128 l 1209 1128 m 1215 1031 q 1209 1042 1215 1038 l 93 1042 q 87 1031 87 1038 l 87 445 q 93 434 87 437 l 1209 434 q 1215 445 1215 437 l 1215 1031 m 260 868 l 174 868 l 174 955 l 260 955 l 260 868 m 174 781 l 347 781 l 347 694 l 174 694 l 174 781 m 955 781 l 1128 781 l 1128 694 l 955 694 l 955 781 m 955 608 l 1128 608 l 1128 521 l 955 521 l 955 608 m 174 608 l 347 608 l 347 521 l 174 521 l 174 608 m 434 608 l 868 608 l 868 521 l 434 521 l 434 608 m 434 868 l 347 868 l 347 955 l 434 955 l 434 868 m 434 781 l 521 781 l 521 694 l 434 694 l 434 781 m 608 781 l 694 781 l 694 694 l 608 694 l 608 781 m 781 781 l 868 781 l 868 694 l 781 694 l 781 781 m 608 868 l 521 868 l 521 955 l 608 955 l 608 868 m 781 868 l 694 868 l 694 955 l 781 955 l 781 868 m 955 868 l 868 868 l 868 955 l 955 955 l 955 868 m 1042 955 l 1128 955 l 1128 868 l 1042 868 l 1042 955 z "},"":{"ha":1389,"x_min":0,"x_max":1302,"o":"m 0 781 l 0 1207 l 521 1280 l 521 781 l 0 781 m 608 1292 l 1302 1389 l 1302 781 l 608 781 l 608 1292 m 608 184 l 608 694 l 1302 694 l 1302 87 l 608 184 m 0 269 l 0 694 l 521 694 l 521 196 l 0 269 z "},"":{"ha":1389,"x_min":174,"x_max":1259,"o":"m 1215 651 l 1259 651 l 1259 564 l 1215 564 l 1215 347 l 174 347 l 174 868 l 1215 868 l 1215 651 m 1172 391 l 1172 825 l 217 825 l 217 391 l 1172 391 z "},"":{"ha":1389,"x_min":174,"x_max":1259,"o":"m 1215 651 l 1259 651 l 1259 564 l 1215 564 l 1215 347 l 174 347 l 174 868 l 1215 868 l 1215 651 m 1172 391 l 1172 825 l 217 825 l 217 391 l 1172 391 m 347 781 l 347 434 l 260 434 l 260 781 l 347 781 z "},"":{"ha":1389,"x_min":174,"x_max":1259,"o":"m 1215 651 l 1259 651 l 1259 564 l 1215 564 l 1215 347 l 174 347 l 174 868 l 1215 868 l 1215 651 m 1172 391 l 1172 825 l 217 825 l 217 391 l 1172 391 m 434 781 l 434 434 l 260 434 l 260 781 l 434 781 z "},"":{"ha":1389,"x_min":174,"x_max":1259,"o":"m 1215 651 l 1259 651 l 1259 564 l 1215 564 l 1215 347 l 174 347 l 174 868 l 1215 868 l 1215 651 m 1172 391 l 1172 825 l 217 825 l 217 391 l 1172 391 m 521 781 l 521 434 l 260 434 l 260 781 l 521 781 z "},"":{"ha":1389,"x_min":174,"x_max":1259,"o":"m 1215 651 l 1259 651 l 1259 564 l 1215 564 l 1215 347 l 174 347 l 174 868 l 1215 868 l 1215 651 m 1172 391 l 1172 825 l 217 825 l 217 391 l 1172 391 m 608 781 l 608 434 l 260 434 l 260 781 l 608 781 z "},"":{"ha":1389,"x_min":174,"x_max":1259,"o":"m 1215 651 l 1259 651 l 1259 564 l 1215 564 l 1215 347 l 174 347 l 174 868 l 1215 868 l 1215 651 m 1172 391 l 1172 825 l 217 825 l 217 391 l 1172 391 m 694 781 l 694 434 l 260 434 l 260 781 l 694 781 z "},"":{"ha":1389,"x_min":174,"x_max":1259,"o":"m 1215 651 l 1259 651 l 1259 564 l 1215 564 l 1215 347 l 174 347 l 174 868 l 1215 868 l 1215 651 m 1172 391 l 1172 825 l 217 825 l 217 391 l 1172 391 m 781 781 l 781 434 l 260 434 l 260 781 l 781 781 z "},"":{"ha":1389,"x_min":174,"x_max":1259,"o":"m 1215 651 l 1259 651 l 1259 564 l 1215 564 l 1215 347 l 174 347 l 174 868 l 1215 868 l 1215 651 m 1172 391 l 1172 825 l 217 825 l 217 391 l 1172 391 m 868 781 l 868 434 l 260 434 l 260 781 l 868 781 z "},"":{"ha":1389,"x_min":174,"x_max":1259,"o":"m 1215 651 l 1259 651 l 1259 564 l 1215 564 l 1215 347 l 174 347 l 174 868 l 1215 868 l 1215 651 m 1172 391 l 1172 825 l 217 825 l 217 391 l 1172 391 m 955 781 l 955 434 l 260 434 l 260 781 l 955 781 z "},"":{"ha":1389,"x_min":174,"x_max":1259,"o":"m 1215 651 l 1259 651 l 1259 564 l 1215 564 l 1215 347 l 174 347 l 174 868 l 1215 868 l 1215 651 m 1172 391 l 1172 825 l 217 825 l 217 391 l 1172 391 m 1042 781 l 1042 434 l 260 434 l 260 781 l 1042 781 z "},"":{"ha":1389,"x_min":955,"x_max":1215,"o":"m 1215 130 q 1205 79 1215 103 q 1177 38 1195 56 q 1136 10 1160 20 q 1085 0 1112 0 q 1034 10 1058 0 q 993 38 1010 20 q 965 79 975 56 q 955 130 955 103 q 965 181 955 157 q 993 222 975 205 q 1034 250 1010 240 q 1085 260 1058 260 q 1136 250 1112 260 q 1177 222 1160 240 q 1205 181 1195 205 q 1215 130 1215 157 z "},"":{"ha":1389,"x_min":694,"x_max":1215,"o":"m 694 0 q 713 138 694 72 q 766 263 732 205 q 847 368 800 321 q 952 450 895 416 q 1077 502 1010 484 q 1215 521 1143 521 l 1215 434 q 1100 418 1156 434 q 996 375 1044 403 q 908 307 948 347 q 841 219 869 267 q 797 115 812 171 q 781 0 781 60 l 694 0 m 1085 260 q 1136 250 1112 260 q 1177 222 1160 240 q 1205 181 1195 205 q 1215 130 1215 157 q 1205 79 1215 103 q 1177 38 1195 56 q 1136 10 1160 20 q 1085 0 1112 0 q 1034 10 1058 0 q 993 38 1010 20 q 965 79 975 56 q 955 130 955 103 q 965 181 955 157 q 993 222 975 205 q 1034 250 1010 240 q 1085 260 1058 260 z "},"":{"ha":1389,"x_min":434,"x_max":1215,"o":"m 694 0 q 713 138 694 72 q 766 263 732 205 q 847 368 800 321 q 952 450 895 416 q 1077 502 1010 484 q 1215 521 1143 521 l 1215 434 q 1100 418 1156 434 q 996 375 1044 403 q 908 307 948 347 q 841 219 869 267 q 797 115 812 171 q 781 0 781 60 l 694 0 m 434 0 q 462 208 434 108 q 541 395 490 308 q 663 553 591 481 q 821 675 734 624 q 1007 753 907 726 q 1215 781 1107 781 l 1215 694 q 1031 670 1120 694 q 865 600 943 645 q 725 491 788 554 q 616 350 661 427 q 546 184 570 273 q 521 0 521 96 l 434 0 m 1085 260 q 1136 250 1112 260 q 1177 222 1160 240 q 1205 181 1195 205 q 1215 130 1215 157 q 1205 79 1215 103 q 1177 38 1195 56 q 1136 10 1160 20 q 1085 0 1112 0 q 1034 10 1058 0 q 993 38 1010 20 q 965 79 975 56 q 955 130 955 103 q 965 181 955 157 q 993 222 975 205 q 1034 250 1010 240 q 1085 260 1058 260 z "},"":{"ha":1389,"x_min":174,"x_max":1215,"o":"m 694 0 q 713 138 694 72 q 766 263 732 205 q 847 368 800 321 q 952 450 895 416 q 1077 502 1010 484 q 1215 521 1143 521 l 1215 434 q 1100 418 1156 434 q 996 375 1044 403 q 908 307 948 347 q 841 219 869 267 q 797 115 812 171 q 781 0 781 60 l 694 0 m 434 0 q 462 208 434 108 q 541 395 490 308 q 663 553 591 481 q 821 675 734 624 q 1007 753 907 726 q 1215 781 1107 781 l 1215 694 q 1031 670 1120 694 q 865 600 943 645 q 725 491 788 554 q 616 350 661 427 q 546 184 570 273 q 521 0 521 96 l 434 0 m 174 0 q 211 277 174 144 q 316 526 248 410 q 479 736 384 642 q 690 899 574 831 q 939 1004 806 967 q 1215 1042 1072 1042 l 1215 955 q 962 921 1084 955 q 734 824 840 886 q 541 675 628 762 q 391 481 453 587 q 295 253 329 375 q 260 0 260 132 l 174 0 m 1085 260 q 1136 250 1112 260 q 1177 222 1160 240 q 1205 181 1195 205 q 1215 130 1215 157 q 1205 79 1215 103 q 1177 38 1195 56 q 1136 10 1160 20 q 1085 0 1112 0 q 1034 10 1058 0 q 993 38 1010 20 q 965 79 975 56 q 955 130 955 103 q 965 181 955 157 q 993 222 975 205 q 1034 250 1010 240 q 1085 260 1058 260 z "},"":{"ha":1389,"x_min":404,"x_max":1059,"o":"m 694 25 l 694 546 l 465 317 l 404 378 l 676 651 l 404 924 l 465 985 l 694 756 l 694 1277 l 1059 911 l 799 651 l 1059 391 l 694 25 l 694 25 m 781 546 l 781 235 l 937 391 l 781 546 l 781 546 m 781 1067 l 781 756 l 937 911 l 781 1067 l 781 1067 z "},"":{"ha":1389,"x_min":0,"x_max":1302,"o":"m 651 1042 q 769 1018 714 1042 q 866 953 825 994 q 931 856 907 911 q 955 738 955 801 q 931 620 955 675 q 866 523 907 564 q 769 458 825 481 q 651 434 714 434 q 533 458 588 434 q 436 523 477 481 q 371 620 395 564 q 347 738 347 675 q 371 856 347 801 q 436 953 395 911 q 533 1018 477 994 q 651 1042 588 1042 m 651 521 q 735 538 696 521 q 804 584 774 555 q 851 653 833 614 q 868 738 868 693 q 851 822 868 783 q 804 891 833 861 q 735 938 774 920 q 651 955 696 955 q 567 938 606 955 q 497 891 527 920 q 451 822 468 861 q 434 738 434 783 q 451 653 434 693 q 497 584 468 614 q 567 538 527 555 q 651 521 606 521 m 694 1128 l 608 1128 l 608 1389 l 694 1389 l 694 1128 m 608 347 l 694 347 l 694 87 l 608 87 l 608 347 m 1302 781 l 1302 694 l 1042 694 l 1042 781 l 1302 781 m 260 694 l 0 694 l 0 781 l 260 781 l 260 694 m 344 983 l 160 1168 l 221 1229 l 406 1045 l 344 983 m 958 492 l 1142 308 l 1081 247 l 897 431 l 958 492 m 958 983 l 897 1045 l 1081 1229 l 1142 1168 l 958 983 m 344 492 l 406 431 l 221 247 l 160 308 l 344 492 z "},"":{"ha":1389,"x_min":2,"x_max":1387,"o":"m 1326 349 l 694 980 l 63 349 l 2 410 l 694 1103 l 1387 410 l 1326 349 l 1326 349 z "},"":{"ha":1389,"x_min":87,"x_max":1302,"o":"m 174 781 q 208 774 192 781 q 235 756 223 768 q 254 728 247 744 q 260 694 260 713 q 254 661 260 676 q 235 633 247 645 q 208 614 223 621 q 174 608 192 608 q 140 614 155 608 q 112 633 124 621 q 94 661 100 645 q 87 694 87 676 q 94 728 87 713 q 112 756 100 744 q 140 774 124 768 q 174 781 155 781 m 694 781 q 728 774 713 781 q 756 756 744 768 q 774 728 768 744 q 781 694 781 713 q 774 661 781 676 q 756 633 768 645 q 728 614 744 621 q 694 608 713 608 q 661 614 676 608 q 633 633 645 621 q 614 661 621 645 q 608 694 608 676 q 614 728 608 713 q 633 756 621 744 q 661 774 645 768 q 694 781 676 781 m 1215 781 q 1249 774 1234 781 q 1277 756 1265 768 q 1295 728 1289 744 q 1302 694 1302 713 q 1295 661 1302 676 q 1277 633 1289 645 q 1249 614 1265 621 q 1215 608 1234 608 q 1181 614 1197 608 q 1154 633 1166 621 q 1135 661 1142 645 q 1128 694 1128 676 q 1135 728 1128 713 q 1154 756 1142 744 q 1181 774 1166 768 q 1215 781 1197 781 z "},"":{"ha":1389,"x_min":0,"x_max":1389,"o":"m 1389 1047 l 1389 342 l 1042 515 l 1042 347 l 0 347 l 0 1042 l 1042 1042 l 1042 873 l 1389 1047 m 955 434 l 955 955 l 87 955 l 87 434 l 955 434 m 1302 482 l 1302 907 l 1042 776 l 1042 613 l 1302 482 z "},"":{"ha":1389,"x_min":87,"x_max":1302,"o":"m 87 1302 l 1302 1302 l 1302 87 l 87 87 l 87 1302 m 1215 174 l 1215 1215 l 174 1215 l 174 174 l 1215 174 z "},"":{"ha":1389,"x_min":0,"x_max":1389,"o":"m 0 434 l 0 694 l 260 694 l 260 434 l 0 434 m 87 608 l 87 521 l 174 521 l 174 608 l 87 608 m 0 781 l 0 1042 l 260 1042 l 260 781 l 0 781 m 87 955 l 87 868 l 174 868 l 174 955 l 87 955 m 0 1128 l 0 1389 l 260 1389 l 260 1128 l 0 1128 m 87 1302 l 87 1215 l 174 1215 l 174 1302 l 87 1302 m 434 868 l 434 955 l 1215 955 l 1215 868 l 434 868 m 1042 608 l 1042 521 l 434 521 l 434 608 l 1042 608 m 434 1302 l 1389 1302 l 1389 1215 l 434 1215 l 434 1302 m 0 87 l 0 347 l 260 347 l 260 87 l 0 87 m 87 260 l 87 174 l 174 174 l 174 260 l 87 260 m 434 174 l 434 260 l 1215 260 l 1215 174 l 434 174 z "},"":{"ha":1389,"x_min":0,"x_max":1389,"o":"m 1389 47 q 1377 14 1389 28 q 1345 0 1366 0 q 1315 13 1328 0 l 783 545 q 640 463 718 491 q 477 434 562 434 q 351 451 412 434 q 237 499 290 468 q 140 574 184 530 q 65 671 96 618 q 17 785 34 724 q 0 911 0 846 q 17 1038 0 977 q 65 1152 34 1099 q 140 1249 96 1205 q 237 1324 184 1293 q 351 1372 290 1355 q 477 1389 412 1389 q 604 1372 543 1389 q 718 1324 665 1355 q 815 1249 771 1293 q 890 1152 859 1205 q 938 1038 921 1099 q 955 911 955 977 q 926 749 955 827 q 844 606 898 671 q 883 568 854 596 q 952 500 912 539 q 1041 413 993 460 q 1137 318 1088 366 q 1231 223 1185 269 q 1312 140 1276 177 q 1368 78 1347 102 q 1389 47 1389 53 m 477 521 q 629 552 558 521 q 753 635 701 583 q 837 760 806 688 q 868 911 868 831 q 837 1063 868 992 q 753 1187 806 1135 q 629 1271 701 1240 q 477 1302 558 1302 q 326 1271 397 1302 q 201 1187 254 1240 q 118 1063 149 1135 q 87 911 87 992 q 118 760 87 831 q 201 635 149 688 q 326 552 254 583 q 477 521 397 521 z "},"":{"ha":1389,"x_min":174,"x_max":1128,"o":"m 477 347 q 427 357 450 347 q 385 385 403 368 q 357 427 368 403 q 347 477 347 450 l 347 1259 q 357 1310 347 1286 q 385 1351 368 1333 q 427 1379 403 1369 q 477 1389 450 1389 l 825 1389 q 876 1379 852 1389 q 917 1351 899 1369 q 945 1310 935 1333 q 955 1259 955 1286 l 955 477 q 945 427 955 450 q 917 385 935 403 q 876 357 899 368 q 825 347 852 347 l 477 347 m 434 477 q 447 447 434 460 q 477 434 460 434 l 825 434 q 855 447 842 434 q 868 477 868 460 l 868 1259 q 855 1289 868 1276 q 825 1302 842 1302 l 477 1302 q 447 1289 460 1302 q 434 1259 434 1276 l 434 477 m 1128 694 l 1128 449 q 1107 342 1128 392 q 1048 254 1085 292 q 960 195 1010 217 q 853 174 910 174 l 694 174 l 694 87 l 868 87 l 868 0 l 434 0 l 434 87 l 608 87 l 608 174 l 449 174 q 342 195 392 174 q 254 254 292 217 q 195 342 217 292 q 174 449 174 392 l 174 694 l 260 694 q 258 610 260 657 q 257 515 256 564 q 266 421 258 467 q 295 339 274 375 q 353 282 316 304 q 449 260 390 260 l 853 260 q 949 282 912 260 q 1007 339 986 304 q 1036 421 1028 375 q 1045 515 1044 467 q 1044 610 1046 564 q 1042 694 1042 656 l 1128 694 z "},"":{"ha":1389,"x_min":0,"x_max":1389,"o":"m 1389 868 l 1389 781 l 793 781 q 744 940 769 861 q 694 1098 720 1018 q 645 940 669 1018 q 595 781 620 861 l 255 781 q 392 675 324 728 q 530 570 460 623 q 477 403 503 486 q 425 236 451 320 q 560 340 493 288 q 694 444 627 391 l 694 334 l 260 0 l 429 538 l 0 868 l 532 868 l 694 1389 l 857 868 l 1389 868 m 781 608 l 1389 608 l 1389 521 l 781 521 l 781 608 m 781 347 l 1389 347 l 1389 260 l 781 260 l 781 347 m 781 87 l 1389 87 l 1389 0 l 781 0 l 781 87 z "},"":{"ha":1389,"x_min":0,"x_max":1385,"o":"m 747 1333 l 1385 694 l 747 56 l 686 117 l 1219 651 l 0 651 l 0 738 l 1219 738 l 686 1272 l 747 1333 l 747 1333 z "},"":{"ha":1389,"x_min":4,"x_max":1389,"o":"m 1389 738 l 1389 651 l 170 651 l 703 117 l 642 56 l 4 694 l 642 1333 l 703 1272 l 170 738 l 1389 738 l 1389 738 z "},"":{"ha":1389,"x_min":0,"x_max":1389,"o":"m 880 1363 q 1086 1268 992 1333 q 1247 1115 1179 1203 q 1352 919 1314 1026 q 1389 694 1389 811 q 1364 510 1389 599 q 1294 344 1339 421 q 1186 203 1249 267 q 1045 95 1122 140 q 879 25 968 50 q 694 0 790 0 q 510 25 599 0 q 344 95 421 50 q 203 203 267 140 q 95 344 140 267 q 25 510 50 421 q 0 694 0 598 q 25 879 0 789 q 97 1047 50 968 q 210 1191 143 1126 q 359 1302 276 1256 l 174 1302 l 174 1389 l 521 1389 l 521 1042 l 434 1042 l 434 1243 q 291 1148 355 1205 q 181 1019 227 1090 q 111 865 136 947 q 87 694 87 782 q 109 533 87 611 q 170 388 130 456 q 265 265 210 321 q 388 170 321 210 q 533 109 456 130 q 694 87 610 87 q 856 109 778 87 q 1001 170 933 130 q 1124 265 1068 210 q 1219 388 1179 321 q 1280 533 1259 456 q 1302 694 1302 610 q 1269 890 1302 796 q 1177 1062 1236 985 q 1037 1196 1118 1139 q 857 1280 955 1253 l 880 1363 l 880 1363 z "},"":{"ha":1389,"x_min":174,"x_max":1215,"o":"m 1215 781 l 1215 0 l 174 0 l 174 781 l 347 781 l 347 1035 q 374 1173 347 1108 q 447 1285 400 1237 q 557 1361 494 1333 q 694 1389 621 1389 q 832 1361 768 1389 q 942 1285 895 1333 q 1015 1173 989 1237 q 1042 1035 1042 1108 l 1042 781 l 1215 781 m 434 781 l 955 781 l 955 1035 q 935 1138 955 1090 q 881 1223 916 1187 q 798 1281 846 1260 q 694 1302 750 1302 q 591 1281 639 1302 q 508 1223 543 1260 q 454 1138 473 1187 q 434 1035 434 1090 l 434 781 m 1128 694 l 260 694 l 260 87 l 1128 87 l 1128 694 z "},"":{"ha":1389,"x_min":0,"x_max":1302,"o":"m 1302 1215 l 1302 87 l 0 87 l 0 1215 l 174 1215 l 174 1302 l 434 1302 q 549 1284 494 1302 q 651 1229 604 1265 q 753 1284 698 1265 q 868 1302 808 1302 l 1128 1302 l 1128 1215 l 1302 1215 m 868 1215 q 776 1199 821 1215 q 694 1153 731 1183 l 694 302 q 779 336 734 325 q 868 347 823 347 l 1042 347 l 1042 1215 l 868 1215 m 260 347 l 434 347 q 524 336 479 347 q 608 302 568 325 l 608 1153 q 526 1199 571 1183 q 434 1215 481 1215 l 260 1215 l 260 347 m 87 174 l 633 174 q 589 211 612 195 q 543 238 567 227 q 492 255 519 249 q 434 260 465 260 l 174 260 l 174 1128 l 87 1128 l 87 174 m 1215 1128 l 1128 1128 l 1128 260 l 868 260 q 810 255 837 260 q 759 238 783 249 q 713 211 735 227 q 669 174 690 195 l 1215 174 l 1215 1128 z "},"":{"ha":1389,"x_min":2,"x_max":1387,"o":"m 174 521 l 174 608 l 608 608 l 608 174 l 521 174 l 521 459 l 63 2 l 2 63 l 459 521 l 174 521 m 1387 1326 l 930 868 l 1215 868 l 1215 781 l 781 781 l 781 1215 l 868 1215 l 868 930 l 1326 1387 l 1387 1326 z "},"":{"ha":1389,"x_min":56,"x_max":1333,"o":"m 1333 747 l 1272 686 l 738 1219 l 738 0 l 651 0 l 651 1219 l 117 686 l 56 747 l 694 1385 l 1333 747 l 1333 747 z "},"":{"ha":1389,"x_min":56,"x_max":1333,"o":"m 1272 703 l 1333 642 l 694 4 l 56 642 l 117 703 l 651 170 l 651 1389 l 738 1389 l 738 170 l 1272 703 l 1272 703 z "},"":{"ha":1389,"x_min":0,"x_max":1202,"o":"m 199 955 l 459 1215 l 521 1215 l 521 174 l 459 174 l 199 434 l 0 434 l 0 955 l 199 955 m 434 322 l 434 1067 l 235 868 l 87 868 l 87 521 l 235 521 l 434 322 m 1202 881 l 1017 694 l 1202 508 l 1141 447 l 955 633 l 768 447 l 707 508 l 893 694 l 707 881 l 768 942 l 955 756 l 1141 942 l 1202 881 z "},"":{"ha":1389,"x_min":0,"x_max":1388,"o":"m 1135 1308 q 1243 1176 1196 1247 q 1322 1026 1290 1105 q 1372 864 1355 948 q 1388 694 1388 781 q 1372 525 1388 608 q 1322 362 1355 441 q 1243 213 1290 284 q 1135 81 1196 142 l 1074 142 q 1171 261 1128 197 q 1242 395 1213 325 q 1287 542 1272 466 q 1302 694 1302 617 q 1287 847 1302 772 q 1242 994 1272 923 q 1171 1128 1213 1064 q 1074 1247 1128 1192 l 1135 1308 m 951 1124 q 1026 1032 994 1082 q 1082 927 1059 982 q 1117 813 1105 872 q 1128 694 1128 754 q 1117 575 1128 634 q 1082 462 1105 517 q 1026 357 1059 407 q 951 264 994 307 l 889 326 q 1002 495 962 399 q 1042 694 1042 591 q 1002 894 1042 798 q 889 1063 962 989 l 951 1124 m 766 940 q 842 827 815 891 q 868 694 868 764 q 842 562 868 625 q 766 449 815 498 l 705 510 q 762 594 742 547 q 781 694 781 642 q 762 794 781 747 q 705 879 742 842 l 766 940 m 459 1215 l 521 1215 l 521 174 l 459 174 l 199 434 l 0 434 l 0 955 l 199 955 l 459 1215 m 434 1067 l 235 868 l 87 868 l 87 521 l 235 521 l 434 322 l 434 1067 z "},"":{"ha":1389,"x_min":347,"x_max":1215,"o":"m 347 1302 l 1215 694 l 347 87 l 347 1302 m 434 1135 l 434 254 l 1064 694 l 434 1135 z "},"":{"ha":1389,"x_min":434,"x_max":955,"o":"m 434 174 l 434 1215 l 521 1215 l 521 174 l 434 174 m 868 1215 l 955 1215 l 955 174 l 868 174 l 868 1215 z "},"":{"ha":1389,"x_min":286,"x_max":1040,"o":"m 1040 63 l 979 2 l 286 694 l 979 1387 l 1040 1326 l 409 694 l 1040 63 l 1040 63 z "},"":{"ha":1389,"x_min":349,"x_max":1103,"o":"m 349 63 l 980 694 l 349 1326 l 410 1387 l 1103 694 l 410 2 l 349 63 l 349 63 z "},"":{"ha":1389,"x_min":0,"x_max":1389,"o":"m 1356 355 q 1371 335 1364 347 q 1381 311 1377 323 q 1387 284 1385 298 q 1389 260 1389 271 q 1382 227 1389 242 q 1363 199 1375 211 q 1336 180 1352 187 q 1302 174 1320 174 l 87 174 q 53 180 68 174 q 25 199 37 187 q 7 227 14 211 q 0 260 0 242 q 2 284 0 271 q 8 311 4 298 q 18 335 12 323 q 33 355 24 347 l 174 496 l 174 1128 l 1215 1128 l 1215 496 l 1356 355 m 260 521 l 1128 521 l 1128 1042 l 260 1042 l 260 521 m 1302 260 q 1299 280 1302 268 q 1291 297 1297 292 l 1154 434 l 235 434 l 98 297 q 90 280 92 292 q 87 260 87 268 l 1302 260 z "},"":{"ha":1389,"x_min":0,"x_max":1389,"o":"m 694 1389 q 879 1364 790 1389 q 1045 1294 968 1339 q 1186 1186 1122 1249 q 1294 1045 1249 1122 q 1364 879 1339 968 q 1389 694 1389 790 q 1364 510 1389 599 q 1294 344 1339 421 q 1186 203 1249 267 q 1045 95 1122 140 q 879 25 968 50 q 694 0 790 0 q 510 25 599 0 q 344 95 421 50 q 203 203 267 140 q 95 344 140 267 q 25 510 50 421 q 0 694 0 598 q 25 879 0 790 q 95 1045 50 968 q 203 1186 140 1122 q 344 1294 267 1249 q 510 1364 421 1339 q 694 1389 598 1389 m 1243 955 q 1181 1058 1217 1010 q 1099 1147 1144 1107 q 1002 1218 1055 1187 q 893 1269 950 1249 q 937 1197 918 1235 q 972 1119 957 1159 q 998 1037 987 1078 q 1017 955 1009 996 l 1243 955 m 1302 694 q 1277 868 1302 785 l 1031 868 q 1039 782 1036 825 q 1042 694 1042 739 q 1039 607 1042 650 q 1031 521 1036 564 l 1277 521 q 1302 694 1302 604 m 694 87 q 756 105 728 87 q 810 153 785 123 q 853 221 834 183 q 888 297 873 258 q 913 372 903 336 q 928 434 923 408 l 460 434 q 476 372 466 408 q 501 297 486 336 q 535 221 516 258 q 579 153 555 183 q 632 105 604 123 q 694 87 661 87 m 943 521 q 952 607 949 564 q 955 694 955 650 q 952 782 955 739 q 943 868 949 825 l 446 868 q 437 782 440 825 q 434 694 434 739 q 437 607 434 650 q 446 521 440 564 l 943 521 m 87 694 q 112 521 87 604 l 358 521 q 350 607 353 564 q 347 694 347 650 q 350 782 347 739 q 358 868 353 825 l 112 868 q 87 694 87 785 m 694 1302 q 632 1284 661 1302 q 579 1236 604 1265 q 535 1168 555 1206 q 501 1092 516 1131 q 476 1017 486 1053 q 460 955 466 981 l 928 955 q 913 1017 923 981 q 888 1092 903 1053 q 853 1168 873 1131 q 810 1236 834 1206 q 756 1284 785 1265 q 694 1302 728 1302 m 496 1269 q 387 1218 439 1249 q 290 1147 334 1187 q 208 1058 245 1107 q 146 955 172 1010 l 372 955 q 391 1037 380 996 q 417 1119 401 1078 q 452 1197 432 1159 q 496 1269 471 1235 m 146 434 q 208 331 172 379 q 290 242 245 282 q 387 171 334 202 q 496 120 439 140 q 452 192 471 154 q 417 270 432 230 q 391 352 401 311 q 372 434 380 393 l 146 434 m 893 120 q 1002 171 950 140 q 1099 242 1055 202 q 1181 331 1144 282 q 1243 434 1217 379 l 1017 434 q 998 352 1009 393 q 972 270 987 311 q 937 192 957 230 q 893 120 918 154 z "},"":{"ha":1389,"x_min":0,"x_max":1389,"o":"m 694 1389 q 879 1364 790 1389 q 1045 1294 968 1339 q 1186 1186 1122 1249 q 1294 1045 1249 1122 q 1364 879 1339 968 q 1389 694 1389 790 q 1364 510 1389 599 q 1294 344 1339 421 q 1186 203 1249 267 q 1045 95 1122 140 q 879 25 968 50 q 694 0 790 0 q 470 37 578 0 q 274 142 363 75 q 121 303 186 210 q 26 509 56 397 l 109 532 q 193 352 136 434 q 327 212 250 271 q 498 120 404 153 q 694 87 593 87 q 856 109 778 87 q 1001 170 933 130 q 1124 265 1068 210 q 1219 388 1179 321 q 1280 533 1259 456 q 1302 694 1302 610 q 1280 856 1302 778 q 1219 1001 1259 933 q 1124 1124 1179 1068 q 1001 1219 1068 1179 q 856 1280 933 1259 q 694 1302 778 1302 q 524 1278 607 1302 q 370 1208 441 1253 q 241 1098 298 1162 q 146 955 183 1034 l 347 955 l 347 868 l 0 868 l 0 1215 l 87 1215 l 87 1029 q 197 1179 132 1113 q 341 1292 262 1246 q 510 1364 420 1339 q 694 1389 600 1389 z "},"":{"ha":1389,"x_min":0,"x_max":1389,"o":"m 502 659 q 582 603 546 636 q 642 530 617 570 q 681 443 667 490 q 694 347 694 397 l 608 347 q 587 448 608 401 q 531 531 566 496 q 448 587 496 566 q 347 608 401 608 q 246 587 294 608 q 163 531 199 566 q 107 448 128 496 q 87 347 87 401 l 0 347 q 14 443 0 397 q 52 530 27 490 q 113 603 77 570 q 193 659 149 636 q 115 751 143 695 q 87 868 87 806 q 107 969 87 922 q 163 1052 128 1017 q 246 1108 199 1087 q 347 1128 294 1128 q 448 1108 401 1128 q 531 1052 496 1087 q 587 969 566 1017 q 608 868 608 922 q 579 751 608 806 q 502 659 551 695 m 174 868 q 188 801 174 832 q 225 746 201 769 q 280 708 248 722 q 347 694 311 694 q 414 708 382 694 q 470 746 446 722 q 507 801 493 769 q 521 868 521 832 q 507 935 521 903 q 470 990 493 967 q 414 1028 446 1014 q 347 1042 382 1042 q 280 1028 311 1042 q 225 990 248 1014 q 188 935 201 967 q 174 868 174 903 m 1389 1128 l 1389 1042 l 781 1042 l 781 1128 l 1389 1128 m 781 781 l 1389 781 l 1389 694 l 781 694 l 781 781 m 781 434 l 1389 434 l 1389 347 l 781 347 l 781 434 z "},"":{"ha":1389,"x_min":0,"x_max":1350,"o":"m 998 608 q 1117 584 1061 608 q 1213 519 1172 560 q 1278 422 1255 477 q 1302 304 1302 367 q 1278 185 1302 241 q 1213 89 1255 130 q 1117 24 1172 47 q 998 0 1061 0 q 880 24 935 0 q 783 89 825 47 q 718 185 742 130 q 694 304 694 241 q 718 422 694 367 q 783 519 742 477 q 880 584 825 560 q 998 608 935 608 m 781 304 q 798 219 781 259 q 845 150 815 180 q 914 104 874 121 q 998 87 954 87 q 1061 96 1030 87 q 1118 123 1091 105 l 817 423 q 790 366 800 397 q 781 304 781 336 m 1179 184 q 1206 241 1197 211 q 1215 304 1215 272 q 1198 388 1215 349 q 1151 457 1181 427 q 1082 504 1122 486 q 998 521 1043 521 q 936 512 966 521 q 879 485 905 503 l 1179 184 m 1350 882 q 1306 841 1327 859 q 1262 809 1284 822 q 1212 789 1239 796 q 1152 782 1185 782 q 1107 786 1128 782 l 1017 694 l 893 694 l 1082 883 q 1116 873 1099 878 q 1152 869 1133 869 q 1222 886 1189 869 l 886 1222 q 869 1152 869 1189 q 873 1116 869 1133 q 883 1082 878 1099 l 549 749 q 518 762 533 755 q 488 772 503 768 q 457 778 473 776 q 423 781 441 781 q 348 769 385 781 q 280 736 311 758 l 608 409 l 608 286 l 477 416 l 92 31 l 0 0 l 31 92 l 416 477 l 155 739 l 185 770 q 295 842 233 817 q 425 867 357 867 q 477 863 451 867 q 529 850 503 859 l 786 1107 q 782 1152 782 1128 q 789 1212 782 1185 q 809 1261 796 1238 q 841 1306 822 1284 q 882 1350 859 1327 l 1350 882 z "},"":{"ha":1389,"x_min":87,"x_max":1302,"o":"m 902 573 q 1068 484 994 541 q 1195 351 1143 427 q 1274 186 1246 276 q 1302 0 1302 97 l 1215 0 q 1176 207 1215 111 q 1066 372 1136 302 q 901 481 996 441 q 694 521 806 521 q 555 503 622 521 q 430 451 488 484 q 325 370 372 417 q 244 265 277 323 q 192 140 210 207 q 174 0 174 73 l 87 0 q 115 187 87 98 q 196 351 144 276 q 322 482 248 425 q 488 572 397 539 q 393 642 435 601 q 322 732 351 682 q 276 839 292 782 q 260 955 260 895 q 294 1124 260 1045 q 387 1262 328 1203 q 525 1355 446 1321 q 694 1389 604 1389 q 864 1355 785 1389 q 1002 1262 943 1321 q 1095 1124 1061 1203 q 1128 955 1128 1045 q 1113 839 1128 895 q 1067 733 1097 783 q 996 643 1038 684 q 902 573 954 602 m 347 955 q 375 820 347 883 q 449 710 402 757 q 559 635 496 663 q 694 608 623 608 q 829 635 766 608 q 940 710 892 663 q 1014 820 987 757 q 1042 955 1042 883 q 1014 1090 1042 1027 q 940 1200 987 1153 q 829 1275 892 1247 q 694 1302 766 1302 q 559 1275 623 1302 q 449 1200 496 1247 q 375 1090 402 1153 q 347 955 347 1027 z "},"":{"ha":1389,"x_min":56,"x_max":1333,"o":"m 694 1277 l 1333 638 l 1272 577 l 1215 633 l 1215 87 l 781 87 l 781 521 l 608 521 l 608 87 l 174 87 l 174 633 l 117 577 l 56 638 l 694 1277 m 1128 174 l 1128 720 l 694 1154 l 260 720 l 260 174 l 521 174 l 521 608 l 868 608 l 868 174 l 1128 174 z "},"":{"ha":1389,"x_min":0,"x_max":1389,"o":"m 1389 1128 l 1389 260 l 0 260 l 0 1128 l 434 1128 l 434 1215 q 441 1249 434 1234 q 459 1277 448 1265 q 487 1295 471 1289 q 521 1302 503 1302 l 868 1302 q 902 1295 886 1302 q 929 1277 918 1289 q 948 1249 941 1265 q 955 1215 955 1234 l 955 1128 l 1389 1128 m 521 1128 l 868 1128 l 868 1215 l 521 1215 l 521 1128 m 87 1042 l 87 916 l 521 700 l 521 781 l 868 781 l 868 700 l 1302 916 l 1302 1042 l 87 1042 m 608 694 l 608 608 l 781 608 l 781 694 l 608 694 m 1302 347 l 1302 820 l 868 602 l 868 521 l 521 521 l 521 602 l 87 820 l 87 347 l 1302 347 z "},"":{"ha":1389,"x_min":0,"x_max":1389,"o":"m 1389 1215 l 1389 174 l 0 174 l 0 1215 l 372 1215 l 459 1302 l 930 1302 l 1017 1215 l 1389 1215 m 1302 1128 l 980 1128 l 893 1215 l 496 1215 l 409 1128 l 87 1128 l 87 260 l 1302 260 l 1302 1128 m 694 1042 q 830 1015 766 1042 q 940 940 893 987 q 1015 830 987 893 q 1042 694 1042 766 q 1015 559 1042 623 q 940 449 987 496 q 830 374 893 401 q 694 347 766 347 q 559 374 623 347 q 449 449 496 401 q 374 559 401 496 q 347 694 347 623 q 374 830 347 766 q 449 940 401 893 q 559 1015 496 987 q 694 1042 623 1042 m 694 434 q 795 455 748 434 q 878 511 843 475 q 934 593 913 546 q 955 694 955 641 q 934 795 955 748 q 878 878 913 843 q 795 934 843 913 q 694 955 748 955 q 593 934 641 955 q 511 878 546 913 q 455 795 475 843 q 434 694 434 748 q 455 593 434 641 q 511 511 475 546 q 593 455 546 475 q 694 434 641 434 m 217 1042 q 248 1029 235 1042 q 260 998 260 1016 q 248 968 260 981 q 217 955 235 955 q 186 968 199 955 q 174 998 174 981 q 186 1029 174 1016 q 217 1042 199 1042 z "},"":{"ha":1389,"x_min":87,"x_max":1215,"o":"m 1215 1128 l 1128 1128 l 1128 130 q 1118 79 1128 103 q 1090 38 1108 56 q 1049 10 1073 20 q 998 0 1025 0 l 304 0 q 253 10 277 0 q 212 38 229 20 q 184 79 194 56 q 174 130 174 103 l 174 1128 l 87 1128 l 87 1215 l 434 1215 l 434 1302 q 441 1336 434 1320 q 459 1363 448 1352 q 487 1382 471 1375 q 521 1389 503 1389 l 781 1389 q 815 1382 800 1389 q 843 1363 831 1375 q 861 1336 854 1352 q 868 1302 868 1320 l 868 1215 l 1215 1215 l 1215 1128 m 521 1215 l 781 1215 l 781 1302 l 521 1302 l 521 1215 m 1042 1128 l 260 1128 l 260 130 q 273 100 260 113 q 304 87 286 87 l 998 87 q 1029 100 1016 87 q 1042 130 1042 113 l 1042 1128 m 521 260 l 434 260 l 434 955 l 521 955 l 521 260 m 694 260 l 608 260 l 608 955 l 694 955 l 694 260 m 868 260 l 781 260 l 781 955 l 868 955 l 868 260 z "},"":{"ha":1389,"x_min":0,"x_max":1302,"o":"m 651 1389 q 824 1366 741 1389 q 980 1300 907 1343 q 1112 1199 1053 1258 q 1214 1067 1171 1139 q 1279 911 1256 994 q 1302 738 1302 828 q 1279 565 1302 648 q 1214 409 1256 481 q 1112 277 1171 336 q 980 175 1053 218 q 824 110 907 133 q 651 87 741 87 q 478 110 561 87 q 322 175 395 133 q 190 277 250 218 q 89 409 131 336 q 23 565 46 481 q 0 738 0 648 q 23 911 0 828 q 89 1067 46 994 q 190 1199 131 1139 q 322 1300 250 1258 q 478 1366 395 1343 q 651 1389 561 1389 m 651 174 q 801 194 728 174 q 936 251 873 214 q 1050 339 998 288 q 1138 453 1101 391 q 1195 588 1175 516 q 1215 738 1215 660 q 1195 887 1215 815 q 1138 1022 1175 960 q 1050 1137 1101 1085 q 936 1225 998 1188 q 801 1282 873 1261 q 651 1302 728 1302 q 501 1282 573 1302 q 367 1225 429 1261 q 252 1137 304 1188 q 164 1022 201 1085 q 107 887 127 960 q 87 738 87 815 q 107 588 87 661 q 164 453 127 516 q 252 339 201 391 q 367 251 304 288 q 501 194 429 214 q 651 174 573 174 m 608 1042 l 694 1042 l 694 608 l 608 608 l 608 1042 m 608 521 l 694 521 l 694 434 l 608 434 l 608 521 z "},"":{"ha":1389,"x_min":174,"x_max":1215,"o":"m 1215 781 l 1215 0 l 174 0 l 174 781 l 955 781 l 955 1042 q 935 1145 955 1097 q 880 1227 915 1192 q 798 1282 845 1262 q 694 1302 750 1302 q 591 1282 639 1302 q 509 1227 544 1262 q 454 1145 474 1192 q 434 1042 434 1097 l 347 1042 q 374 1179 347 1116 q 447 1289 400 1242 q 557 1362 494 1336 q 694 1389 621 1389 q 832 1362 768 1389 q 942 1289 895 1336 q 1015 1179 989 1242 q 1042 1042 1042 1116 l 1042 781 l 1215 781 m 1128 694 l 260 694 l 260 87 l 1128 87 l 1128 694 z "},"":{"ha":1389,"x_min":0,"x_max":1389,"o":"m 521 868 l 868 694 l 521 521 l 521 868 m 586 763 l 586 626 l 722 694 l 586 763 m 0 1215 l 1389 1215 l 1389 174 l 0 174 l 0 1215 m 1302 260 l 1302 1128 l 87 1128 l 87 260 l 1302 260 m 1215 1042 l 1215 347 l 174 347 l 174 1042 l 1215 1042 m 1128 434 l 1128 955 l 260 955 l 260 434 l 1128 434 z "},"":{"ha":1389,"x_min":0,"x_max":1389,"o":"m 0 1128 l 0 1215 l 87 1215 l 87 1128 l 0 1128 m 0 955 l 0 1042 l 87 1042 l 87 955 l 0 955 m 0 781 l 0 868 l 87 868 l 87 781 l 0 781 m 0 608 l 0 694 l 87 694 l 87 608 l 0 608 m 0 260 l 0 347 l 87 347 l 87 260 l 0 260 m 174 1128 l 174 1215 l 260 1215 l 260 1128 l 174 1128 m 174 260 l 174 347 l 260 347 l 260 260 l 174 260 m 1302 260 l 1302 347 l 1389 347 l 1389 260 l 1302 260 m 0 434 l 0 521 l 87 521 l 87 434 l 0 434 m 1302 434 l 1302 521 l 1389 521 l 1389 434 l 1302 434 m 1302 608 l 1302 694 l 1389 694 l 1389 608 l 1302 608 m 1302 781 l 1302 868 l 1389 868 l 1389 781 l 1302 781 m 1302 955 l 1302 1042 l 1389 1042 l 1389 955 l 1302 955 m 1302 1215 l 1389 1215 l 1389 1128 l 1302 1128 l 1302 1215 m 1128 260 l 1128 347 l 1215 347 l 1215 260 l 1128 260 m 1128 1128 l 1128 1215 l 1215 1215 l 1215 1128 l 1128 1128 m 347 260 l 347 1215 l 1042 1215 l 1042 260 l 347 260 m 434 1128 l 434 347 l 955 347 l 955 1128 l 434 1128 z "},"":{"ha":1389,"x_min":0,"x_max":1389,"o":"m 0 1389 l 1389 1389 l 1389 0 l 0 0 l 0 1389 m 1302 434 l 1302 1302 l 87 1302 l 87 521 l 477 1042 l 1209 103 l 868 738 l 998 868 l 1302 434 z "},"":{"ha":1389,"x_min":0,"x_max":1389,"o":"m 998 955 q 968 968 981 955 q 955 998 955 981 q 968 1029 955 1016 q 998 1042 981 1042 q 1029 1029 1016 1042 q 1042 998 1042 1016 q 1029 968 1042 981 q 998 955 1016 955 m 1389 1042 l 1389 174 l 174 174 l 174 347 l 0 347 l 0 1215 l 1215 1215 l 1215 1042 l 1389 1042 m 1067 434 l 825 677 l 712 564 l 843 434 l 1067 434 m 87 1128 l 87 756 l 304 972 l 651 625 l 825 799 l 1128 496 l 1128 1128 l 87 1128 m 720 434 l 304 850 l 87 633 l 87 434 l 720 434 m 1302 955 l 1215 955 l 1215 347 l 260 347 l 260 260 l 1302 260 l 1302 955 z "},"":{"ha":1389,"x_min":0,"x_max":1389,"o":"m 1259 1215 q 1310 1205 1286 1215 q 1351 1177 1333 1195 q 1379 1136 1369 1160 q 1389 1085 1389 1112 l 1389 304 q 1379 253 1389 277 q 1351 212 1369 229 q 1310 184 1333 194 q 1259 174 1286 174 l 0 174 l 0 1215 l 1259 1215 m 87 260 l 174 260 l 174 1128 l 87 1128 l 87 260 m 1302 1085 q 1289 1116 1302 1103 q 1259 1128 1276 1128 l 260 1128 l 260 260 l 1259 260 q 1289 273 1276 260 q 1302 304 1302 286 l 1302 1085 m 521 955 l 1042 955 l 1042 694 l 521 694 l 521 955 m 608 781 l 955 781 l 955 868 l 608 868 l 608 781 z "},"":{"ha":1389,"x_min":25,"x_max":1364,"o":"m 334 881 l 149 694 l 334 508 l 273 447 l 25 694 l 273 942 l 334 881 m 881 334 l 942 273 l 694 25 l 447 273 l 508 334 l 694 149 l 881 334 m 1364 694 l 1116 447 l 1055 508 l 1240 694 l 1055 881 l 1116 942 l 1364 694 m 508 1055 l 447 1116 l 694 1364 l 942 1116 l 881 1055 l 694 1240 l 508 1055 m 694 955 q 795 935 748 955 q 879 879 843 914 q 935 795 914 843 q 955 694 955 748 q 935 593 955 640 q 879 510 914 546 q 795 454 843 475 q 694 434 748 434 q 593 454 640 434 q 510 510 546 475 q 454 593 475 546 q 434 694 434 640 q 454 795 434 748 q 510 879 475 843 q 593 935 546 914 q 694 955 640 955 m 694 521 q 762 534 730 521 q 817 572 793 548 q 854 627 841 595 q 868 694 868 659 q 854 762 868 730 q 817 817 841 793 q 762 854 793 841 q 694 868 730 868 q 627 854 659 868 q 572 817 595 841 q 534 762 548 793 q 521 694 521 730 q 534 627 521 659 q 572 572 548 595 q 627 534 595 548 q 694 521 659 521 z "},"":{"ha":1389,"x_min":0,"x_max":1389,"o":"m 998 781 q 968 794 981 781 q 955 825 955 807 q 968 855 955 842 q 998 868 981 868 q 1029 855 1016 868 q 1042 825 1042 842 q 1029 794 1042 807 q 998 781 1016 781 m 0 1200 q 339 1083 163 1122 q 694 1044 514 1044 q 1050 1083 875 1044 q 1389 1200 1225 1122 l 1389 191 q 1050 308 1225 269 q 694 347 875 347 q 339 308 514 347 q 0 191 163 269 l 0 1200 m 87 319 q 298 385 191 359 q 515 421 405 410 l 304 633 l 87 416 l 87 319 m 631 429 q 797 427 714 432 q 962 410 880 422 l 738 633 l 583 477 l 631 429 m 1302 416 l 1172 546 l 1059 434 l 1116 378 q 1210 351 1163 366 q 1302 319 1256 337 l 1302 416 m 1302 1071 q 1004 985 1156 1015 q 694 955 851 955 q 385 985 538 955 q 87 1071 233 1015 l 87 538 l 304 756 l 521 538 l 738 756 l 998 496 l 1172 669 l 1302 538 l 1302 1071 z "},"":{"ha":1389,"x_min":0,"x_max":1389,"o":"m 1389 694 q 1370 647 1389 668 q 1320 610 1352 627 q 1248 581 1289 593 q 1162 560 1206 569 q 1072 545 1117 551 q 986 535 1026 538 q 913 529 945 531 q 863 526 881 526 q 860 476 862 508 q 854 403 858 444 q 844 317 850 363 q 829 227 838 272 q 808 141 820 182 q 779 68 795 100 q 742 19 762 37 q 694 0 721 0 q 647 19 668 0 q 610 68 627 37 q 581 141 593 100 q 560 227 569 182 q 545 317 551 272 q 535 403 538 363 q 529 476 531 444 q 526 526 526 508 q 476 529 508 526 q 403 535 444 531 q 317 545 363 538 q 227 560 272 551 q 141 581 182 569 q 68 610 100 593 q 19 647 37 627 q 0 694 0 668 q 19 742 0 721 q 68 779 37 762 q 141 808 100 795 q 227 829 182 820 q 317 844 272 838 q 403 854 363 850 q 476 860 444 858 q 526 863 508 862 q 529 913 526 881 q 535 986 531 945 q 545 1072 538 1026 q 560 1162 551 1117 q 581 1248 569 1206 q 610 1320 593 1289 q 647 1370 627 1352 q 694 1389 668 1389 q 742 1370 721 1389 q 779 1320 762 1352 q 808 1248 795 1289 q 829 1162 820 1206 q 844 1072 838 1117 q 854 986 850 1026 q 860 913 858 945 q 863 863 862 881 q 913 860 881 862 q 986 854 945 858 q 1072 844 1026 850 q 1162 829 1117 838 q 1248 808 1206 820 q 1320 779 1289 795 q 1370 742 1352 762 q 1389 694 1389 721 m 694 1297 q 670 1247 682 1280 q 651 1173 659 1214 q 635 1087 642 1133 q 624 1000 629 1042 q 616 923 619 958 q 612 867 614 888 q 777 867 694 869 q 772 923 775 888 q 765 1000 770 958 q 753 1087 760 1042 q 738 1173 747 1133 q 719 1247 730 1214 q 694 1297 707 1280 m 781 694 q 781 737 781 716 q 780 780 781 758 q 737 781 758 781 q 694 781 716 781 q 652 781 673 781 q 609 780 631 781 q 608 737 608 758 q 608 694 608 716 q 608 652 608 673 q 609 609 608 631 q 652 608 631 608 q 694 608 673 608 q 737 608 716 608 q 780 609 758 608 q 781 652 781 631 q 781 694 781 673 m 92 694 q 142 670 109 682 q 216 651 175 659 q 301 635 256 642 q 389 624 347 629 q 466 616 431 619 q 522 612 501 614 q 522 777 519 694 q 466 772 501 775 q 389 765 431 770 q 301 753 347 760 q 216 738 256 747 q 142 719 175 730 q 92 694 109 707 m 694 92 q 719 142 707 109 q 738 216 730 175 q 753 301 747 256 q 765 389 760 347 q 772 466 770 431 q 777 522 775 501 q 612 522 694 519 q 616 466 614 501 q 624 389 619 431 q 635 301 629 347 q 651 216 642 256 q 670 142 659 175 q 694 92 681 109 m 867 612 q 923 616 888 614 q 1000 624 958 619 q 1087 635 1042 629 q 1173 651 1133 642 q 1247 670 1214 659 q 1297 694 1280 681 q 1247 719 1280 707 q 1173 738 1214 730 q 1087 753 1133 747 q 1000 765 1042 760 q 923 772 958 770 q 867 777 888 775 q 867 612 869 694 z "},"":{"ha":1389,"x_min":0,"x_max":1389,"o":"m 868 781 l 174 781 l 174 1215 l 868 1215 l 868 781 m 781 1128 l 260 1128 l 260 868 l 781 868 l 781 1128 m 1389 955 l 1389 260 l 608 260 l 608 347 l 1302 347 l 1302 868 l 1042 868 l 1042 608 l 521 608 l 521 434 l 434 521 l 434 608 l 0 608 l 0 1389 l 1042 1389 l 1042 955 l 1389 955 m 955 1302 l 87 1302 l 87 694 l 955 694 l 955 1302 m 315 430 l 528 217 l 312 1 l 262 52 l 383 174 l 260 174 q 159 194 206 174 q 76 250 112 214 q 20 333 41 286 q 0 434 0 380 l 87 434 q 100 367 87 398 q 138 311 114 335 q 193 274 161 288 q 260 260 224 260 l 383 260 l 264 380 l 315 430 z "},"":{"ha":1389,"x_min":260,"x_max":1128,"o":"m 694 1128 q 863 1094 784 1128 q 1001 1001 942 1060 q 1094 863 1060 942 q 1128 694 1128 784 q 1094 526 1128 605 q 1001 388 1060 447 q 863 295 942 329 q 694 260 784 260 q 526 295 605 260 q 388 388 447 329 q 295 526 329 447 q 260 694 260 605 q 295 863 260 784 q 388 1001 329 942 q 526 1094 447 1060 q 694 1128 605 1128 z "},"":{"ha":1389,"x_min":87,"x_max":1302,"o":"m 738 694 l 651 694 l 651 1389 l 738 1389 l 738 694 m 882 1185 q 1053 1099 975 1156 q 1186 965 1131 1042 q 1272 797 1241 888 q 1302 608 1302 705 q 1280 446 1302 524 q 1219 301 1259 368 q 1124 178 1179 233 q 1001 83 1069 123 q 856 22 934 43 q 694 0 779 0 q 533 22 610 0 q 388 83 455 43 q 265 178 320 123 q 170 301 210 233 q 109 446 130 368 q 87 608 87 524 q 117 797 87 705 q 203 965 148 888 q 336 1099 258 1042 q 507 1185 414 1156 l 534 1103 q 387 1028 454 1077 q 273 914 321 979 q 200 771 226 849 q 174 608 174 692 q 192 469 174 536 q 245 345 211 403 q 326 239 279 287 q 432 158 374 192 q 556 105 490 124 q 694 87 623 87 q 833 105 766 87 q 957 158 899 124 q 1063 239 1015 192 q 1144 345 1110 287 q 1197 469 1178 403 q 1215 608 1215 536 q 1189 771 1215 692 q 1116 914 1163 849 q 1002 1028 1068 979 q 854 1103 935 1077 l 882 1185 z "},"":{"ha":1389,"x_min":87,"x_max":1302,"o":"m 1042 1128 l 1302 1128 l 1302 0 l 347 0 l 347 260 l 87 260 l 87 1389 l 1042 1389 l 1042 1128 m 174 1302 l 174 347 l 955 347 l 955 1302 l 174 1302 m 1215 87 l 1215 1042 l 1042 1042 l 1042 260 l 434 260 l 434 87 l 1215 87 z "},"":{"ha":1389,"x_min":174,"x_max":1259,"o":"m 1215 651 l 1259 651 l 1259 564 l 1215 564 l 1215 347 l 174 347 l 174 868 l 1215 868 l 1215 651 m 1172 391 l 1172 825 l 217 825 l 217 391 l 1172 391 m 1128 781 l 1128 434 l 260 434 l 260 781 l 1128 781 z "},"":{"ha":1389,"x_min":13,"x_max":1376,"o":"m 756 694 l 1376 74 l 1315 13 l 694 633 l 74 13 l 13 74 l 633 694 l 13 1315 l 74 1376 l 694 756 l 1315 1376 l 1376 1315 l 756 694 z "},"":{"ha":1389,"x_min":0,"x_max":1389,"o":"m 694 87 q 895 119 799 87 q 1070 210 991 151 q 1207 351 1149 269 q 1297 534 1266 433 l 1379 508 q 1278 301 1345 395 q 1121 141 1211 208 q 921 37 1030 74 q 694 0 812 0 q 513 23 602 0 q 347 90 425 46 q 202 196 269 134 q 87 338 136 259 l 87 174 l 0 174 l 0 521 l 347 521 l 347 434 l 133 434 q 232 291 173 355 q 365 181 292 227 q 522 112 438 136 q 694 87 606 87 m 1389 1215 l 1389 868 l 1042 868 l 1042 955 l 1256 955 q 1157 1098 1216 1034 q 1024 1207 1097 1162 q 867 1277 951 1253 q 694 1302 783 1302 q 494 1270 590 1302 q 319 1179 398 1238 q 181 1038 240 1120 q 92 855 123 956 l 9 881 q 111 1087 43 994 q 268 1248 178 1181 q 468 1352 359 1315 q 694 1389 576 1389 q 876 1366 787 1389 q 1042 1299 964 1343 q 1187 1193 1120 1255 q 1302 1050 1253 1130 l 1302 1215 l 1389 1215 z "},"":{"ha":1389,"x_min":0,"x_max":1302,"o":"m 1042 1215 l 1302 1215 l 1302 955 l 1215 955 l 1215 1067 l 906 758 l 844 819 l 1154 1128 l 1042 1128 l 1042 1215 m 1042 694 l 1128 781 l 1128 260 l 0 260 l 0 1042 l 868 1042 l 781 955 l 87 955 l 87 347 l 1042 347 l 1042 694 z "},"":{"ha":1389,"x_min":0,"x_max":1389,"o":"m 0 1215 l 1389 1215 l 1389 260 l 0 260 l 0 1215 m 1302 347 l 1302 1128 l 1215 1128 l 1215 1042 l 1128 1042 l 1128 1128 l 260 1128 l 260 1042 l 174 1042 l 174 1128 l 87 1128 l 87 347 l 174 347 l 174 434 l 260 434 l 260 347 l 1128 347 l 1128 434 l 1215 434 l 1215 347 l 1302 347 m 174 868 l 174 955 l 260 955 l 260 868 l 174 868 m 174 694 l 174 781 l 260 781 l 260 694 l 174 694 m 174 521 l 174 608 l 260 608 l 260 521 l 174 521 m 1128 868 l 1128 955 l 1215 955 l 1215 868 l 1128 868 m 1128 694 l 1128 781 l 1215 781 l 1215 694 l 1128 694 m 1128 521 l 1128 608 l 1215 608 l 1215 521 l 1128 521 z "},"":{"ha":1389,"x_min":174,"x_max":1302,"o":"m 1128 1389 q 1162 1382 1147 1389 q 1190 1363 1178 1375 q 1208 1336 1202 1352 q 1215 1302 1215 1320 l 1215 629 q 1222 592 1215 608 q 1238 563 1228 576 q 1259 535 1247 549 q 1280 504 1270 522 q 1296 465 1289 487 q 1302 412 1302 443 l 1302 87 q 1295 53 1302 68 q 1277 25 1289 37 q 1249 7 1265 14 q 1215 0 1234 0 l 174 0 l 174 1389 l 1128 1389 m 260 87 l 1042 87 l 1042 412 q 1048 465 1042 443 q 1064 504 1055 487 q 1085 535 1074 522 q 1106 563 1097 549 q 1122 592 1116 576 q 1128 629 1128 608 l 1128 1302 l 260 1302 l 260 87 m 1215 412 q 1212 441 1215 429 q 1203 463 1209 453 q 1190 483 1198 473 q 1172 505 1182 493 q 1154 483 1162 493 q 1140 463 1146 473 q 1132 441 1135 453 q 1128 412 1128 429 l 1128 87 l 1215 87 l 1215 412 z "},"":{"ha":1389,"x_min":0,"x_max":1389,"o":"m 1215 1042 l 1389 1042 l 1389 174 l 174 174 l 174 347 l 0 347 l 0 1215 l 1215 1215 l 1215 1042 m 87 1128 l 87 434 l 1128 434 l 1128 1128 l 87 1128 m 1302 260 l 1302 955 l 1215 955 l 1215 347 l 260 347 l 260 260 l 1302 260 m 174 521 l 174 1042 l 1042 1042 l 1042 521 l 174 521 m 260 955 l 260 608 l 955 608 l 955 955 l 260 955 z "},"":{"ha":1389,"x_min":217,"x_max":1259,"o":"m 1128 1345 q 1159 1333 1146 1345 q 1172 1302 1172 1320 l 1172 629 q 1185 566 1172 591 q 1215 521 1199 542 q 1245 475 1232 500 q 1259 412 1259 451 l 1259 87 q 1246 56 1259 69 q 1215 43 1233 43 l 217 43 l 217 1345 l 1128 1345 l 1128 1345 z "},"":{"ha":1389,"x_min":0,"x_max":1389,"o":"m 1128 1006 q 1236 938 1188 979 q 1318 845 1284 897 q 1371 733 1352 793 q 1389 608 1389 673 q 1355 438 1389 517 q 1262 300 1321 359 q 1124 208 1203 241 q 955 174 1045 174 q 818 196 884 174 q 694 260 751 218 l 521 87 l 0 608 l 608 1215 l 1128 1215 l 1128 1006 m 521 210 l 1042 730 l 1042 944 q 1012 948 1029 947 q 975 950 994 949 q 937 953 956 951 q 902 960 918 955 q 878 974 887 965 q 868 998 868 983 q 881 1029 868 1016 q 911 1042 894 1042 q 977 1041 945 1042 q 1042 1033 1009 1040 l 1042 1128 l 644 1128 l 123 608 l 521 210 m 955 260 q 1090 288 1027 260 q 1200 362 1153 315 q 1275 473 1247 410 q 1302 608 1302 536 q 1290 698 1302 654 q 1255 781 1278 742 q 1201 852 1233 820 q 1128 908 1168 885 l 1128 694 l 757 323 q 851 276 800 292 q 955 260 902 260 z "},"":{"ha":1389,"x_min":13,"x_max":1376,"o":"m 434 199 l 13 621 l 74 682 l 434 322 l 1315 1202 l 1376 1141 l 434 199 l 434 199 z "},"":{"ha":1389,"x_min":0,"x_max":1389,"o":"m 336 790 q 356 787 345 790 q 378 780 367 784 q 400 771 389 776 q 419 763 410 766 q 408 762 414 762 q 397 761 402 761 q 376 765 385 761 q 358 773 366 768 q 341 782 349 778 q 327 785 334 785 q 315 783 320 785 q 304 777 309 780 q 299 779 304 779 q 317 787 304 784 q 336 790 330 790 m 428 760 q 479 750 456 760 q 460 744 469 747 q 440 742 450 742 q 416 745 427 742 q 422 752 419 750 q 428 760 426 753 m 694 1389 q 879 1364 790 1389 q 1044 1294 967 1339 q 1185 1185 1121 1249 q 1294 1044 1249 1121 q 1364 879 1339 967 q 1389 694 1389 790 q 1364 510 1389 599 q 1294 345 1339 422 q 1185 204 1249 268 q 1044 95 1121 140 q 879 25 967 50 q 694 0 790 0 q 510 25 599 0 q 345 95 422 50 q 204 204 268 140 q 95 345 140 268 q 25 510 50 422 q 0 694 0 599 q 25 879 0 790 q 95 1044 50 967 q 204 1185 140 1121 q 345 1294 268 1249 q 510 1364 422 1339 q 694 1389 599 1389 m 1211 1013 q 1192 1041 1202 1027 q 1173 1069 1183 1055 q 1169 1060 1171 1063 q 1166 1048 1166 1057 q 1172 1036 1166 1042 q 1184 1025 1177 1030 q 1198 1017 1191 1021 q 1211 1013 1206 1014 m 1164 1079 q 1162 1072 1164 1074 l 1166 1072 q 1171 1071 1169 1072 l 1164 1079 m 694 87 q 846 106 772 87 q 986 162 920 126 q 1108 251 1052 199 q 1206 367 1164 302 q 1189 408 1197 387 q 1181 452 1181 429 q 1183 491 1181 476 q 1187 517 1185 507 q 1191 537 1190 528 q 1188 558 1192 547 q 1176 586 1185 570 q 1152 628 1168 602 q 1154 641 1152 633 q 1156 658 1156 649 q 1157 674 1157 667 q 1154 687 1156 682 q 1117 694 1136 689 q 1083 711 1097 700 l 1087 714 q 1069 708 1078 712 q 1052 701 1061 705 q 1035 695 1044 698 q 1017 693 1026 693 l 1006 694 l 1008 699 q 987 692 998 696 q 966 688 976 688 q 947 693 960 688 q 921 705 934 698 q 898 720 907 711 q 888 735 888 728 l 889 737 q 880 745 886 741 q 870 751 875 748 q 861 759 865 755 q 858 768 858 763 l 865 774 l 850 777 l 844 797 q 851 794 846 793 q 858 797 856 795 l 833 810 l 850 853 q 846 907 841 888 q 864 939 851 926 q 894 963 877 951 q 927 996 911 975 l 925 1004 l 970 1059 l 980 1060 q 1023 1062 999 1060 q 1071 1066 1046 1063 q 1119 1073 1095 1069 q 1162 1082 1143 1077 q 1117 1131 1141 1107 q 1066 1175 1093 1154 q 1047 1167 1059 1172 q 1026 1155 1036 1162 q 1009 1139 1016 1147 q 1002 1120 1002 1130 l 1006 1107 q 979 1083 994 1088 q 948 1077 964 1078 q 915 1078 932 1077 q 883 1072 899 1078 l 872 1095 l 882 1134 l 871 1151 l 988 1187 q 963 1216 981 1206 q 926 1225 946 1225 l 926 1232 l 964 1238 q 833 1286 901 1270 q 694 1302 765 1302 q 578 1291 635 1302 q 466 1257 520 1279 q 363 1203 412 1235 q 271 1130 313 1171 q 299 1121 289 1130 q 316 1101 309 1112 q 333 1081 324 1090 q 357 1072 342 1072 l 368 1080 l 366 1095 l 389 1127 l 371 1177 q 381 1184 374 1179 q 393 1189 389 1189 q 424 1187 413 1189 q 443 1179 435 1185 q 457 1163 450 1173 q 476 1138 464 1154 l 500 1157 q 523 1148 507 1154 q 553 1133 538 1141 q 579 1115 568 1124 q 591 1097 591 1105 q 583 1081 591 1087 q 564 1071 575 1075 q 538 1064 552 1067 q 513 1059 524 1062 q 493 1052 501 1057 q 485 1041 485 1048 l 524 1028 q 495 1007 511 1017 q 463 989 479 997 l 465 978 l 403 954 l 403 935 l 398 932 l 401 956 l 399 957 q 393 955 394 957 q 393 950 392 953 q 394 945 393 947 q 395 941 395 942 l 386 945 l 387 943 q 390 937 387 941 q 395 929 392 932 q 400 922 398 925 q 403 919 403 919 q 400 915 403 917 q 393 912 397 913 q 388 910 390 911 q 388 909 386 909 q 392 908 397 909 q 375 901 386 907 q 354 885 364 896 q 343 856 343 875 q 344 833 343 844 q 343 811 345 823 q 315 850 334 837 q 269 864 296 864 l 239 861 l 254 852 q 230 854 242 853 q 205 855 217 856 q 181 849 193 854 q 161 836 170 845 l 157 805 q 167 769 157 783 q 200 755 177 755 q 240 762 220 755 q 279 776 260 768 q 265 747 273 761 q 254 718 258 733 l 263 713 q 293 717 279 724 q 319 695 307 709 q 346 666 332 681 q 375 644 359 650 l 352 632 l 298 663 q 299 656 298 661 q 298 654 300 652 l 274 696 q 228 703 252 696 q 178 719 203 709 q 131 742 154 729 q 92 767 109 754 l 87 694 q 109 533 87 612 q 173 385 132 454 q 272 259 214 316 q 403 162 330 201 q 402 191 399 176 q 409 219 405 205 q 418 248 414 233 q 422 277 422 262 q 416 322 422 298 q 399 371 409 347 q 378 418 389 395 q 360 464 368 442 q 349 503 352 485 q 353 534 347 521 l 343 539 q 354 557 347 549 q 368 575 361 566 q 380 594 375 585 q 385 614 385 604 q 381 629 385 621 q 377 643 378 637 l 391 640 q 423 676 403 666 q 472 686 443 686 q 486 683 475 686 q 509 675 497 680 q 533 668 522 671 q 549 663 544 664 q 554 656 549 658 q 560 652 560 654 l 559 646 q 569 641 561 646 q 585 631 576 637 q 601 621 593 626 q 610 613 608 615 q 643 605 622 613 q 689 584 665 597 q 739 555 713 572 q 785 521 764 538 q 818 487 805 504 q 831 458 831 471 l 808 433 q 803 380 811 399 q 780 350 795 361 q 744 330 765 338 q 701 307 724 321 q 694 277 701 293 q 676 247 687 261 q 652 224 666 233 q 624 214 638 214 l 595 236 q 595 231 597 235 q 592 230 593 227 q 595 200 599 217 q 584 165 592 183 q 566 132 576 148 q 547 106 555 116 q 621 92 584 96 q 694 87 657 87 z "},"":{"ha":1389,"x_min":0,"x_max":1389,"o":"m 0 1215 l 1389 1215 l 1389 174 l 0 174 l 0 1215 m 1302 260 l 1302 1128 l 87 1128 l 87 260 l 1302 260 m 1215 1042 l 1215 347 l 174 347 l 174 1042 l 1215 1042 m 1128 434 l 1128 955 l 260 955 l 260 434 l 1128 434 z "},"":{"ha":1389,"x_min":0,"x_max":1389,"o":"m 139 694 l 694 694 l 694 139 l 555 139 l 555 457 l 98 0 l 0 98 l 457 555 l 139 555 l 139 694 m 932 833 l 1250 833 l 1250 694 l 694 694 l 694 1250 l 833 1250 l 833 932 l 1291 1389 l 1389 1291 l 932 833 z "},"":{"ha":1389,"x_min":0,"x_max":1389,"o":"m 1020 1302 q 1164 1273 1097 1302 q 1281 1194 1231 1244 q 1360 1077 1331 1144 q 1389 933 1389 1009 q 1361 791 1389 859 q 1281 672 1333 724 l 694 86 l 108 672 q 28 791 56 724 q 0 933 0 859 q 29 1077 0 1009 q 108 1194 58 1144 q 225 1273 158 1244 q 369 1302 292 1302 q 469 1289 425 1302 q 551 1254 513 1276 q 623 1199 589 1231 q 694 1129 657 1167 q 766 1199 732 1167 q 838 1254 800 1231 q 920 1289 876 1276 q 1020 1302 964 1302 m 1219 734 q 1280 825 1259 774 q 1301 933 1301 877 q 1280 1043 1301 992 q 1220 1132 1258 1095 q 1130 1191 1181 1170 q 1020 1213 1079 1213 q 919 1195 963 1213 q 838 1147 875 1177 q 766 1081 800 1118 q 694 1006 732 1044 q 623 1080 658 1043 q 551 1147 589 1118 q 469 1196 513 1177 q 369 1215 425 1215 q 259 1193 311 1215 q 169 1133 208 1171 q 109 1043 131 1095 q 87 933 87 991 q 108 825 87 877 q 170 734 130 774 l 694 209 l 1219 734 z "},"":{"ha":1389,"x_min":0,"x_max":1389,"o":"m 1281 1194 q 1341 1116 1317 1158 q 1377 1027 1365 1073 q 1389 933 1389 981 q 1377 839 1389 885 q 1341 751 1365 793 q 1281 672 1317 708 l 694 86 l 108 672 q 48 751 72 708 q 12 839 24 793 q 0 933 0 885 q 12 1027 0 981 q 48 1116 24 1073 q 108 1194 72 1158 q 228 1274 161 1246 q 369 1302 295 1302 q 510 1274 443 1302 q 630 1194 577 1246 l 694 1129 l 759 1194 q 879 1274 812 1246 q 1020 1302 946 1302 q 1161 1274 1094 1302 q 1281 1194 1228 1246 z "},"":{"ha":1389,"x_min":0,"x_max":1302,"o":"m 651 1389 q 824 1366 741 1389 q 980 1300 907 1343 q 1112 1199 1053 1258 q 1214 1067 1171 1139 q 1279 911 1256 994 q 1302 738 1302 828 q 1279 565 1302 648 q 1214 409 1256 481 q 1112 277 1171 336 q 980 175 1053 218 q 824 110 907 133 q 651 87 741 87 q 478 110 561 87 q 322 175 395 133 q 190 277 250 218 q 89 409 131 336 q 23 565 46 481 q 0 738 0 648 q 23 911 0 828 q 89 1067 46 994 q 190 1199 131 1139 q 322 1300 250 1258 q 478 1366 395 1343 q 651 1389 561 1389 m 694 175 q 827 202 764 180 q 947 258 891 223 q 1050 339 1003 292 q 1131 442 1097 386 q 1187 562 1166 498 q 1214 694 1208 625 l 1128 694 l 1128 781 l 1214 781 q 1187 914 1208 850 q 1131 1034 1166 978 q 1050 1137 1097 1090 q 947 1218 1003 1183 q 827 1274 891 1253 q 694 1301 764 1295 l 694 1215 l 608 1215 l 608 1301 q 475 1274 538 1295 q 355 1218 411 1253 q 252 1137 299 1183 q 171 1034 205 1090 q 115 914 136 978 q 88 781 94 850 l 174 781 l 174 694 l 88 694 q 115 562 94 625 q 171 442 136 498 q 252 339 205 386 q 355 258 299 292 q 475 202 411 223 q 608 175 538 180 l 608 260 l 694 260 l 694 175 m 752 839 l 955 434 l 550 637 l 347 1042 l 752 839 m 795 594 l 699 786 l 507 882 l 603 690 l 795 594 z "},"":{"ha":1389,"x_min":0,"x_max":521,"o":"m 459 1215 l 521 1215 l 521 174 l 460 174 l 199 434 l 0 434 l 0 955 l 199 955 l 459 1215 m 434 322 l 434 1067 l 235 868 l 87 868 l 87 521 l 235 521 l 434 322 z "},"":{"ha":1389,"x_min":0,"x_max":868,"o":"m 766 940 q 842 827 816 890 q 868 694 868 764 q 842 562 868 625 q 766 449 816 498 l 705 510 q 762 594 742 547 q 781 694 781 642 q 762 794 781 747 q 705 879 742 842 l 766 940 m 459 1215 l 521 1215 l 521 174 l 460 174 l 199 434 l 0 434 l 0 955 l 199 955 l 459 1215 m 434 1067 l 235 868 l 87 868 l 87 521 l 235 521 l 434 322 l 434 1067 z "},"":{"ha":1389,"x_min":0,"x_max":1128,"o":"m 951 1124 q 1082 927 1036 1038 q 1128 694 1128 817 q 1082 462 1128 572 q 951 264 1036 351 l 889 326 q 1002 495 963 400 q 1042 694 1042 590 q 1002 894 1042 799 q 889 1063 963 989 l 951 1124 m 766 940 q 842 827 816 890 q 868 694 868 764 q 842 562 868 625 q 766 449 816 498 l 705 510 q 762 594 742 547 q 781 694 781 642 q 762 794 781 747 q 705 879 742 842 l 766 940 m 459 1215 l 521 1215 l 521 174 l 460 174 l 199 434 l 0 434 l 0 955 l 199 955 l 459 1215 m 434 1067 l 235 868 l 87 868 l 87 521 l 235 521 l 434 322 l 434 1067 z "},"":{"ha":1389,"x_min":0,"x_max":1389,"o":"m 1135 1308 q 1243 1176 1196 1247 q 1323 1027 1291 1105 q 1372 865 1355 949 q 1389 694 1389 781 q 1372 524 1389 608 q 1323 362 1355 440 q 1243 213 1291 284 q 1135 81 1196 142 l 1073 142 q 1171 261 1128 197 q 1242 396 1213 326 q 1286 541 1272 466 q 1301 694 1301 616 q 1286 848 1301 772 q 1242 993 1272 923 q 1171 1127 1213 1063 q 1073 1246 1128 1192 l 1135 1308 m 1128 694 q 1082 462 1128 572 q 951 264 1036 351 l 889 326 q 1002 495 963 400 q 1042 694 1042 590 q 1002 894 1042 799 q 889 1063 963 989 l 951 1124 q 1082 927 1036 1038 q 1128 694 1128 817 m 766 940 q 842 827 816 890 q 868 694 868 764 q 842 562 868 625 q 766 449 816 498 l 705 510 q 762 594 742 547 q 781 694 781 642 q 762 794 781 747 q 705 879 742 842 l 766 940 m 459 1215 l 521 1215 l 521 174 l 460 174 l 199 434 l 0 434 l 0 955 l 199 955 l 459 1215 m 434 1067 l 235 868 l 87 868 l 87 521 l 235 521 l 434 322 l 434 1067 z "},"":{"ha":1389,"x_min":174,"x_max":1215,"o":"m 694 1389 q 833 1370 766 1389 q 957 1318 899 1352 q 1063 1236 1015 1284 q 1144 1131 1110 1189 q 1197 1006 1178 1073 q 1215 868 1215 940 l 1215 564 q 1205 513 1215 537 q 1177 472 1195 490 q 1136 444 1160 454 q 1085 434 1112 434 l 955 434 l 955 868 l 1085 868 q 1107 866 1097 868 q 1128 860 1118 863 q 1095 1032 1128 951 q 1004 1172 1062 1112 q 866 1267 946 1232 q 694 1302 787 1302 q 579 1286 635 1302 q 475 1243 524 1271 q 388 1175 427 1215 q 320 1087 348 1135 q 276 983 292 1039 q 260 868 260 928 l 260 860 q 281 866 271 863 q 304 868 292 868 l 434 868 l 434 434 l 347 434 l 347 347 q 361 280 347 311 q 398 224 374 248 q 453 187 422 201 q 521 174 485 174 q 528 208 521 192 q 546 235 534 223 q 574 254 558 247 q 608 260 589 260 l 781 260 q 815 254 800 260 q 843 235 831 247 q 861 208 854 223 q 868 174 868 192 l 868 87 q 861 53 868 68 q 843 25 854 37 q 815 7 831 14 q 781 0 800 0 l 608 0 q 574 7 589 0 q 546 25 558 14 q 528 53 534 37 q 521 87 521 68 q 419 107 467 87 q 337 163 372 127 q 281 246 301 199 q 260 347 260 293 l 260 442 q 225 461 241 449 q 198 489 209 473 q 180 525 186 505 q 174 564 174 544 l 174 868 q 192 1006 174 940 q 245 1131 211 1073 q 326 1236 279 1189 q 432 1318 374 1284 q 556 1370 490 1352 q 694 1389 623 1389 m 608 87 l 781 87 l 781 174 l 608 174 l 608 87 m 304 781 q 273 768 286 781 q 260 738 260 755 l 260 564 q 273 534 260 547 q 304 521 286 521 l 347 521 l 347 781 l 304 781 m 1128 738 q 1116 768 1128 755 q 1085 781 1103 781 l 1042 781 l 1042 521 l 1085 521 q 1116 534 1103 521 q 1128 564 1128 547 l 1128 738 z "},"":{"ha":1389,"x_min":87,"x_max":1259,"o":"m 1259 1072 l 1259 130 l 1035 43 l 87 233 l 87 943 l 260 977 l 260 1058 q 260 1065 260 1061 q 260 1072 260 1068 q 277 1169 260 1121 q 326 1256 294 1217 q 401 1317 357 1294 q 498 1341 446 1341 q 571 1330 536 1341 q 635 1299 606 1319 q 687 1250 665 1278 q 723 1187 709 1221 q 733 1158 728 1174 q 738 1128 737 1142 q 738 1101 739 1115 q 738 1074 738 1087 l 851 1096 q 821 1175 844 1138 q 764 1237 799 1211 q 746 1271 755 1254 q 723 1302 737 1289 q 785 1272 756 1291 q 835 1227 813 1253 q 872 1170 857 1201 q 894 1105 888 1139 l 1035 1133 l 1122 1065 l 1259 1072 m 313 988 l 404 1006 q 432 1122 408 1065 q 499 1219 456 1178 l 544 1205 q 478 1120 502 1171 q 449 1015 454 1069 l 684 1063 l 684 1126 q 683 1136 684 1130 q 680 1148 682 1142 q 676 1161 678 1155 q 673 1171 675 1166 q 646 1220 663 1198 q 605 1257 628 1242 q 555 1280 582 1272 q 499 1288 528 1288 q 422 1269 456 1288 q 363 1219 388 1250 q 326 1149 339 1188 q 313 1071 313 1110 l 313 988 m 477 564 l 260 564 l 260 381 l 477 351 l 477 564 m 477 821 l 260 791 l 260 608 l 477 608 l 477 821 m 825 564 l 521 564 l 521 345 l 825 302 l 825 564 m 825 869 l 521 827 l 521 608 l 825 608 l 825 869 z "},"":{"ha":1389,"x_min":0,"x_max":1389,"o":"m 0 347 l 0 434 l 868 434 l 868 347 l 0 347 m 0 781 l 1389 781 l 1389 694 l 0 694 l 0 781 m 1128 1128 l 1128 1042 l 0 1042 l 0 1128 l 1128 1128 z "},"":{"ha":1389,"x_min":0,"x_max":1389,"o":"m 1389 347 l 1389 434 l 521 434 l 521 347 l 1389 347 m 1389 781 l 0 781 l 0 694 l 1389 694 l 1389 781 m 260 1128 l 260 1042 l 1389 1042 l 1389 1128 l 260 1128 z "},"":{"ha":1389,"x_min":0,"x_max":1389,"o":"m 887 659 q 807 603 843 636 q 747 530 772 570 q 708 443 722 490 q 694 347 694 397 l 781 347 q 802 448 781 401 q 858 531 823 496 q 941 587 893 566 q 1042 608 988 608 q 1143 587 1095 608 q 1225 531 1190 566 q 1281 448 1261 496 q 1302 347 1302 401 l 1389 347 q 1375 443 1389 397 q 1337 530 1362 490 q 1276 603 1312 570 q 1196 659 1240 636 q 1274 751 1246 695 q 1302 868 1302 806 q 1281 969 1302 922 q 1225 1052 1261 1017 q 1143 1108 1190 1087 q 1042 1128 1095 1128 q 941 1108 988 1128 q 858 1052 893 1087 q 802 969 823 1017 q 781 868 781 922 q 809 751 781 806 q 887 659 838 695 m 1215 868 q 1201 801 1215 832 q 1164 746 1187 769 q 1109 708 1141 722 q 1042 694 1078 694 q 975 708 1006 694 q 919 746 943 722 q 882 801 896 769 q 868 868 868 832 q 882 935 868 903 q 919 990 896 967 q 975 1028 943 1014 q 1042 1042 1006 1042 q 1109 1028 1078 1042 q 1164 990 1141 1014 q 1201 935 1187 967 q 1215 868 1215 903 m 0 1128 l 0 1042 l 608 1042 l 608 1128 l 0 1128 m 608 781 l 0 781 l 0 694 l 608 694 l 608 781 m 608 434 l 0 434 l 0 347 l 608 347 l 608 434 z "},"":{"ha":1389,"x_min":0,"x_max":1389,"o":"m 1389 434 l 1389 694 l 1128 694 l 1128 434 l 1389 434 m 1302 608 l 1302 521 l 1215 521 l 1215 608 l 1302 608 m 1389 781 l 1389 1042 l 1128 1042 l 1128 781 l 1389 781 m 1302 955 l 1302 868 l 1215 868 l 1215 955 l 1302 955 m 1389 1128 l 1389 1389 l 1128 1389 l 1128 1128 l 1389 1128 m 1302 1302 l 1302 1215 l 1215 1215 l 1215 1302 l 1302 1302 m 955 868 l 955 955 l 174 955 l 174 868 l 955 868 m 347 608 l 347 521 l 955 521 l 955 608 l 347 608 m 955 1302 l 0 1302 l 0 1215 l 955 1215 l 955 1302 m 1389 87 l 1389 347 l 1128 347 l 1128 87 l 1389 87 m 1302 260 l 1302 174 l 1215 174 l 1215 260 l 1302 260 m 955 174 l 955 260 l 174 260 l 174 174 l 955 174 z "},"":{"ha":1389,"x_min":0,"x_max":1389,"o":"m 87 705 q 88 699 87 703 q 93 694 90 694 l 608 694 l 608 608 l 93 608 q 56 615 73 608 q 26 637 39 623 q 7 668 14 650 q 0 705 0 686 l 0 1291 q 7 1329 0 1311 q 26 1360 14 1346 q 56 1381 39 1373 q 93 1389 73 1389 l 1209 1389 q 1246 1381 1230 1389 q 1276 1360 1263 1373 q 1295 1329 1288 1346 q 1302 1291 1302 1311 l 1302 1128 l 1215 1128 l 1215 1291 q 1214 1298 1215 1293 q 1209 1302 1213 1302 l 93 1302 q 88 1298 90 1302 q 87 1291 87 1293 l 87 705 m 1389 1042 l 1389 0 l 694 0 l 694 1042 l 1389 1042 m 1302 955 l 781 955 l 781 87 l 1302 87 l 1302 955 m 1042 477 q 957 494 997 477 q 888 541 918 511 q 842 610 859 570 q 825 694 825 650 q 842 779 825 739 q 888 848 859 819 q 957 895 918 878 q 1042 911 997 911 q 1126 895 1086 911 q 1195 848 1166 878 q 1242 779 1225 819 q 1259 694 1259 739 q 1242 610 1259 650 q 1195 541 1225 570 q 1126 494 1166 511 q 1042 477 1086 477 m 1042 825 q 991 814 1015 825 q 949 787 967 804 q 922 745 932 769 q 911 694 911 722 q 922 644 911 667 q 949 602 932 620 q 991 574 967 585 q 1042 564 1015 564 q 1093 574 1069 564 q 1134 602 1116 585 q 1162 644 1152 620 q 1172 694 1172 667 q 1162 745 1172 722 q 1134 787 1152 769 q 1093 814 1116 804 q 1042 825 1069 825 m 1042 391 q 1093 380 1069 391 q 1134 353 1116 370 q 1162 311 1152 335 q 1172 260 1172 288 q 1162 210 1172 233 q 1134 168 1152 186 q 1093 140 1116 151 q 1042 130 1069 130 q 991 140 1015 130 q 949 168 967 151 q 922 210 932 186 q 911 260 911 233 q 922 311 911 288 q 949 353 932 335 q 991 380 967 370 q 1042 391 1015 391 m 1042 217 q 1072 230 1059 217 q 1085 260 1085 243 q 1072 291 1085 278 q 1042 304 1059 304 q 1011 291 1024 304 q 998 260 998 278 q 1011 230 998 243 q 1042 217 1024 217 m 1042 642 q 1005 657 1020 642 q 989 694 989 673 q 1005 731 989 716 q 1042 747 1020 747 q 1079 731 1063 747 q 1094 694 1094 716 q 1079 657 1094 673 q 1042 642 1063 642 m 260 1215 l 260 1128 l 174 1128 l 174 1215 l 260 1215 m 347 955 l 174 955 l 174 1042 l 347 1042 l 347 955 m 174 868 l 347 868 l 347 781 l 174 781 l 174 868 m 608 781 l 434 781 l 434 868 l 608 868 l 608 781 m 347 1215 l 434 1215 l 434 1128 l 347 1128 l 347 1215 m 434 1042 l 521 1042 l 521 955 l 434 955 l 434 1042 m 608 1128 l 521 1128 l 521 1215 l 608 1215 l 608 1128 m 781 1128 l 694 1128 l 694 1215 l 781 1215 l 781 1128 m 868 1128 l 868 1215 l 955 1215 l 955 1128 l 868 1128 m 1042 1128 l 1042 1215 l 1128 1215 l 1128 1128 l 1042 1128 z "},"":{"ha":1389,"x_min":0,"x_max":1389,"o":"m 1389 1215 l 1389 1128 l 868 1128 l 868 1085 q 858 1034 868 1058 q 830 993 848 1010 q 789 965 812 975 q 738 955 765 955 q 687 965 711 955 q 646 993 663 975 q 618 1034 628 1010 q 608 1085 608 1058 l 608 1128 l 0 1128 l 0 1215 l 608 1215 l 608 1259 q 618 1310 608 1286 q 646 1351 628 1333 q 687 1379 663 1369 q 738 1389 711 1389 q 789 1379 765 1389 q 830 1351 812 1369 q 858 1310 848 1333 q 868 1259 868 1286 l 868 1215 l 1389 1215 m 1085 521 q 1136 511 1112 521 q 1177 483 1160 500 q 1205 441 1195 465 q 1215 391 1215 418 l 1215 347 l 1389 347 l 1389 260 l 1215 260 l 1215 217 q 1205 166 1215 190 q 1177 125 1195 142 q 1136 97 1160 107 q 1085 87 1112 87 q 1034 97 1058 87 q 993 125 1010 107 q 965 166 975 142 q 955 217 955 190 l 955 260 l 0 260 l 0 347 l 955 347 l 955 391 q 965 441 955 418 q 993 483 975 465 q 1034 511 1010 500 q 1085 521 1058 521 m 304 955 q 355 945 331 955 q 396 917 378 935 q 424 876 414 899 q 434 825 434 852 l 434 781 l 1389 781 l 1389 694 l 434 694 l 434 651 q 424 600 434 624 q 396 559 414 576 q 355 531 378 541 q 304 521 331 521 q 253 531 277 521 q 212 559 229 541 q 184 600 194 576 q 174 651 174 624 l 174 694 l 0 694 l 0 781 l 174 781 l 174 825 q 184 876 174 852 q 212 917 194 899 q 253 945 229 935 q 304 955 277 955 m 347 825 q 334 855 347 842 q 304 868 321 868 q 273 855 286 868 q 260 825 260 842 l 260 651 q 273 621 260 633 q 304 608 286 608 q 334 621 321 608 q 347 651 347 633 l 347 825 m 781 1259 q 768 1289 781 1276 q 738 1302 755 1302 q 707 1289 720 1302 q 694 1259 694 1276 l 694 1085 q 707 1055 694 1067 q 738 1042 720 1042 q 768 1055 755 1042 q 781 1085 781 1067 l 781 1259 m 1128 391 q 1116 421 1128 408 q 1085 434 1103 434 q 1055 421 1067 434 q 1042 391 1042 408 l 1042 217 q 1055 186 1042 199 q 1085 174 1067 174 q 1116 186 1103 174 q 1128 217 1128 199 l 1128 391 z "},"":{"ha":1389,"x_min":0,"x_max":1389,"o":"m 1274 1014 q 1359 887 1330 958 q 1389 738 1389 817 q 1388 681 1389 714 q 1382 609 1386 648 q 1369 529 1377 570 q 1347 449 1360 488 q 1299 354 1326 391 q 1243 296 1272 317 q 1184 268 1214 275 q 1128 260 1154 260 q 1087 268 1106 260 q 1052 288 1069 276 q 1021 316 1036 300 q 992 349 1006 332 q 964 380 978 365 q 935 407 950 395 q 904 426 920 418 q 867 434 887 433 l 522 434 q 485 426 502 433 q 454 407 469 418 q 425 380 439 395 q 397 349 411 365 q 368 316 382 332 q 337 288 353 300 q 301 268 320 276 q 260 260 283 260 q 205 268 235 260 q 146 296 175 275 q 90 354 117 317 q 42 449 62 391 q 20 529 28 488 q 7 609 12 570 q 1 681 3 648 q 0 738 0 714 q 30 887 0 817 q 115 1014 59 958 q 241 1099 170 1069 q 391 1128 312 1128 l 998 1128 q 1148 1099 1077 1128 q 1274 1014 1219 1069 m 1265 477 q 1285 552 1278 513 q 1296 626 1293 591 q 1301 691 1300 662 q 1302 738 1302 720 q 1278 856 1302 801 q 1213 952 1254 911 q 1117 1018 1172 994 q 998 1042 1061 1042 l 391 1042 q 272 1018 328 1042 q 176 952 217 994 q 111 856 135 911 q 87 738 87 801 q 88 691 87 720 q 93 626 89 662 q 104 552 96 591 q 124 477 111 513 q 161 402 141 429 q 201 363 182 376 q 236 349 220 351 q 260 347 252 347 q 293 365 275 347 q 331 406 311 383 q 366 445 347 425 q 407 481 385 465 q 458 509 430 498 q 519 521 486 519 l 520 521 l 869 521 q 931 509 903 519 q 982 481 959 498 q 1023 445 1004 465 q 1058 406 1042 425 q 1096 365 1078 383 q 1128 347 1114 347 q 1153 349 1137 347 q 1188 363 1168 351 q 1227 402 1207 376 q 1265 477 1248 429 m 347 781 l 434 781 l 434 694 l 347 694 l 347 608 l 260 608 l 260 694 l 174 694 l 174 781 l 260 781 l 260 868 l 347 868 l 347 781 m 1128 694 q 1162 688 1147 694 q 1190 669 1178 681 q 1208 642 1202 657 q 1215 608 1215 626 q 1208 574 1215 589 q 1190 546 1202 558 q 1162 528 1178 534 q 1128 521 1147 521 q 1095 528 1110 521 q 1067 546 1079 534 q 1048 574 1055 558 q 1042 608 1042 589 q 1048 642 1042 626 q 1067 669 1055 657 q 1095 688 1079 681 q 1128 694 1110 694 m 955 868 q 989 861 973 868 q 1016 843 1004 854 q 1035 815 1028 831 q 1042 781 1042 800 q 1035 747 1042 763 q 1016 720 1028 732 q 989 701 1004 708 q 955 694 973 694 q 921 701 937 694 q 893 720 905 708 q 875 747 882 732 q 868 781 868 763 q 875 815 868 800 q 893 843 882 831 q 921 861 905 854 q 955 868 937 868 z "},"":{"ha":1389,"x_min":174,"x_max":1302,"o":"m 1297 193 q 1302 174 1302 182 q 1289 143 1302 156 q 1259 130 1276 130 q 1236 137 1246 130 q 1220 154 1225 143 l 1019 555 q 994 609 1004 584 q 974 658 984 635 q 951 705 964 682 q 919 755 938 729 q 876 807 897 785 q 834 848 855 829 q 790 887 812 867 q 741 934 767 907 l 384 1291 q 357 1302 372 1302 q 329 1291 340 1302 q 317 1263 317 1280 q 324 1242 317 1252 l 687 697 l 687 696 l 688 695 l 688 694 l 690 693 q 690 692 690 692 q 690 690 690 691 q 691 689 690 690 q 692 688 692 688 l 692 686 q 693 685 692 685 q 693 684 694 684 l 694 682 l 694 679 l 694 677 l 694 451 q 723 442 709 446 q 751 432 737 437 q 773 416 765 427 q 781 391 781 404 q 768 360 781 373 q 738 347 755 347 q 716 353 734 347 q 670 367 698 358 q 607 387 642 376 q 535 411 572 399 q 461 436 498 424 q 395 458 425 448 q 343 476 365 469 q 313 486 321 484 q 300 488 307 488 q 272 476 284 488 q 260 448 260 465 q 268 426 260 435 q 288 411 276 416 q 425 340 360 378 q 549 250 489 302 q 686 153 615 192 q 838 85 756 115 q 860 68 852 79 q 868 43 868 58 q 855 13 868 26 q 825 0 842 0 q 811 2 817 0 q 642 77 722 31 q 492 184 562 124 q 379 267 438 231 q 255 330 321 302 q 196 377 218 346 q 174 448 174 408 q 183 498 174 475 q 211 538 193 521 q 251 565 228 555 q 301 575 275 575 q 333 571 315 575 q 369 561 351 567 q 404 548 387 555 q 434 538 420 542 q 435 572 434 556 q 437 602 435 587 q 444 632 439 617 q 457 664 449 648 l 520 791 l 252 1194 q 231 1263 231 1225 q 240 1312 231 1289 q 268 1352 250 1335 q 308 1379 285 1369 q 357 1389 330 1389 q 405 1379 382 1389 q 446 1352 428 1370 q 716 1081 582 1216 q 987 810 850 947 l 987 810 q 990 807 988 809 q 991 804 991 805 l 993 803 l 993 802 l 1297 193 m 608 479 l 608 660 l 576 707 l 534 625 q 521 567 521 597 l 521 509 l 608 479 z "},"":{"ha":1389,"x_min":0,"x_max":1389,"o":"m 1172 1063 q 1193 1042 1183 1054 q 1211 1017 1203 1030 q 1254 922 1234 970 q 1294 826 1274 874 q 1342 700 1319 764 q 1377 569 1364 635 q 1385 509 1382 539 q 1389 449 1389 479 q 1380 371 1389 409 q 1350 298 1371 332 q 1324 269 1339 283 q 1292 242 1310 254 q 1254 223 1274 231 q 1215 216 1234 216 q 1168 234 1194 216 q 1116 277 1142 252 q 1068 329 1090 302 q 1031 371 1045 355 q 1000 408 1017 388 q 965 441 983 429 l 949 453 q 920 467 935 463 q 889 474 905 472 q 857 476 873 476 q 825 477 840 477 l 694 477 l 564 477 q 532 476 549 477 q 500 474 516 476 q 469 467 484 472 q 440 453 454 463 l 424 441 q 389 408 406 428 q 357 371 372 388 q 321 329 343 355 q 273 277 298 302 q 221 234 247 252 q 174 216 195 216 q 135 223 155 216 q 97 242 115 231 q 64 269 79 254 q 39 298 50 283 q 9 371 18 333 q 0 449 0 409 q 3 509 0 479 q 12 569 7 539 q 28 637 18 600 q 52 714 39 674 q 82 795 66 754 q 114 876 98 837 q 147 951 131 916 q 178 1016 163 987 q 196 1041 186 1029 q 217 1063 205 1053 q 217 1080 217 1072 q 219 1096 217 1088 q 225 1109 220 1103 q 238 1121 229 1116 q 262 1132 245 1126 q 297 1143 279 1137 q 334 1153 316 1149 q 361 1160 351 1158 q 413 1168 387 1165 q 465 1171 439 1171 q 488 1170 475 1171 q 510 1164 500 1168 l 511 1164 q 541 1146 526 1156 q 572 1129 556 1137 l 817 1129 q 845 1145 833 1138 q 868 1158 857 1153 q 892 1167 879 1164 q 924 1171 905 1171 q 976 1168 949 1171 q 1028 1160 1002 1165 q 1055 1153 1038 1158 q 1092 1143 1073 1149 q 1127 1132 1110 1137 q 1151 1121 1143 1126 q 1170 1096 1168 1109 q 1172 1063 1172 1082 m 1219 304 q 1259 326 1243 311 q 1285 360 1276 340 q 1298 403 1295 380 q 1302 448 1302 426 q 1299 502 1302 475 q 1291 554 1297 528 q 1252 695 1278 626 q 1198 832 1225 765 q 1167 906 1182 869 q 1133 977 1152 943 q 1120 993 1128 987 q 1104 1005 1112 999 q 1090 1019 1096 1011 q 1085 1040 1085 1027 l 1085 1054 q 1007 1076 1046 1067 q 926 1084 967 1084 q 919 1084 923 1084 q 911 1083 915 1084 q 872 1060 886 1068 q 848 1048 859 1052 q 822 1043 836 1044 q 781 1042 808 1042 l 608 1042 q 567 1043 581 1042 q 541 1048 553 1044 q 516 1060 530 1052 q 477 1083 503 1068 q 470 1084 474 1084 q 463 1084 466 1084 q 382 1076 422 1084 q 304 1054 342 1067 q 300 1024 304 1035 q 280 1002 297 1013 q 266 991 273 998 q 256 977 260 985 q 222 906 237 943 q 191 832 207 869 q 137 695 163 765 q 98 554 111 626 q 90 502 92 528 q 87 448 87 475 q 91 403 87 426 q 104 361 94 380 q 129 326 113 341 q 170 304 145 311 q 197 326 180 310 q 232 361 214 342 q 267 399 250 380 q 292 429 283 418 q 310 449 299 436 q 334 475 321 462 q 358 499 346 488 q 378 516 370 511 q 385 520 382 518 q 391 524 387 522 q 431 546 410 538 q 474 558 452 554 q 518 563 496 562 q 564 564 541 564 l 694 564 l 825 564 q 870 563 848 564 q 915 558 893 562 q 958 546 937 554 q 998 524 979 538 q 1004 520 1002 522 q 1010 516 1007 518 q 1031 499 1019 511 q 1055 475 1043 488 q 1079 449 1067 462 q 1097 429 1090 436 q 1123 399 1107 417 q 1156 362 1139 380 q 1190 327 1173 343 q 1219 304 1207 311 m 694 955 q 725 942 712 955 q 738 911 738 929 q 725 881 738 894 q 694 868 712 868 q 664 881 677 868 q 651 911 651 894 q 664 942 651 929 q 694 955 677 955 z "},"":{"ha":1389,"x_min":174,"x_max":1328,"o":"m 781 1132 l 1328 694 l 781 254 l 781 1132 m 868 951 l 868 435 l 1190 694 l 868 951 m 174 254 l 174 1132 l 720 694 l 174 254 m 260 951 l 260 435 l 582 694 l 260 951 z "},"":{"ha":1389,"x_min":61,"x_max":1215,"o":"m 608 254 l 61 694 l 608 1132 l 608 254 m 521 435 l 521 951 l 199 694 l 521 435 m 669 694 l 1215 1132 l 1215 254 l 669 694 m 1128 435 l 1128 951 l 807 694 l 1128 435 z "},"":{"ha":1389,"x_min":0,"x_max":1389,"o":"m 1389 1215 l 1389 174 l 0 174 l 0 1215 l 1389 1215 m 87 1128 l 87 669 l 391 972 l 825 538 l 998 712 l 1302 409 l 1302 1128 l 87 1128 m 87 260 l 980 260 l 391 850 l 87 546 l 87 260 m 1302 260 l 1302 286 l 998 590 l 886 477 l 1103 260 l 1302 260 m 1085 868 q 1055 881 1067 868 q 1042 911 1042 894 q 1055 942 1042 929 q 1085 955 1067 955 q 1116 942 1103 955 q 1128 911 1128 929 q 1116 881 1128 894 q 1085 868 1103 868 z "},"":{"ha":2083,"x_min":0,"x_max":1997,"o":"m 1997 781 l 1997 608 l 1910 608 l 1910 260 l 347 260 l 347 347 l 1823 347 l 1823 1042 l 521 1042 l 521 1128 l 1910 1128 l 1910 781 l 1997 781 m 434 911 q 421 838 434 873 q 385 774 408 802 q 330 726 362 746 q 260 699 298 707 l 260 260 l 174 260 l 174 699 q 104 726 136 707 q 49 774 72 746 q 13 838 26 802 q 0 911 0 873 l 0 1128 l 87 1128 l 87 1302 l 174 1302 l 174 1128 l 260 1128 l 260 1302 l 347 1302 l 347 1128 l 434 1128 l 434 911 m 87 911 q 97 861 87 884 q 125 819 107 837 q 166 791 142 802 q 217 781 190 781 q 268 791 244 781 q 309 819 292 802 q 337 861 327 837 q 347 911 347 884 l 347 1042 l 87 1042 l 87 911 m 347 614 q 453 689 408 640 q 521 800 498 738 l 521 955 l 1736 955 l 1736 434 l 347 434 l 347 614 z "},"":{"ha":2083,"x_min":0,"x_max":1997,"o":"m 1997 781 l 1997 608 l 1910 608 l 1910 260 l 347 260 l 347 347 l 1823 347 l 1823 1042 l 521 1042 l 521 1128 l 1910 1128 l 1910 781 l 1997 781 m 434 911 q 421 838 434 873 q 385 774 408 802 q 330 726 362 746 q 260 699 298 707 l 260 260 l 174 260 l 174 699 q 104 726 136 707 q 49 774 72 746 q 13 838 26 802 q 0 911 0 873 l 0 1128 l 87 1128 l 87 1302 l 174 1302 l 174 1128 l 260 1128 l 260 1302 l 347 1302 l 347 1128 l 434 1128 l 434 911 m 87 911 q 97 861 87 884 q 125 819 107 837 q 166 791 142 802 q 217 781 190 781 q 268 791 244 781 q 309 819 292 802 q 337 861 327 837 q 347 911 347 884 l 347 1042 l 87 1042 l 87 911 m 347 614 q 453 689 408 640 q 521 800 498 738 l 521 955 l 1649 955 l 1649 434 l 347 434 l 347 614 z "},"":{"ha":2083,"x_min":0,"x_max":1997,"o":"m 1997 781 l 1997 608 l 1910 608 l 1910 260 l 347 260 l 347 347 l 1823 347 l 1823 1042 l 521 1042 l 521 1128 l 1910 1128 l 1910 781 l 1997 781 m 434 911 q 421 838 434 873 q 385 774 408 802 q 330 726 362 746 q 260 699 298 707 l 260 260 l 174 260 l 174 699 q 104 726 136 707 q 49 774 72 746 q 13 838 26 802 q 0 911 0 873 l 0 1128 l 87 1128 l 87 1302 l 174 1302 l 174 1128 l 260 1128 l 260 1302 l 347 1302 l 347 1128 l 434 1128 l 434 911 m 347 1042 l 87 1042 l 87 911 q 97 861 87 884 q 125 819 107 837 q 166 791 142 802 q 217 781 190 781 q 268 791 244 781 q 309 819 292 802 q 337 861 327 837 q 347 911 347 884 l 347 1042 m 347 614 q 453 689 408 640 q 521 800 498 738 l 521 955 l 1476 955 l 1476 434 l 347 434 l 347 614 z "},"":{"ha":2083,"x_min":0,"x_max":1997,"o":"m 347 614 q 453 689 408 640 q 521 800 498 738 l 521 955 l 1302 955 l 1302 434 l 347 434 l 347 614 m 1997 781 l 1997 608 l 1910 608 l 1910 260 l 347 260 l 347 347 l 1823 347 l 1823 1042 l 521 1042 l 521 1128 l 1910 1128 l 1910 781 l 1997 781 m 434 911 q 421 838 434 873 q 385 774 408 802 q 330 726 362 746 q 260 699 298 707 l 260 260 l 174 260 l 174 699 q 104 726 136 707 q 49 774 72 746 q 13 838 26 802 q 0 911 0 873 l 0 1128 l 87 1128 l 87 1302 l 174 1302 l 174 1128 l 260 1128 l 260 1302 l 347 1302 l 347 1128 l 434 1128 l 434 911 m 87 911 q 97 861 87 884 q 125 819 107 837 q 166 791 142 802 q 217 781 190 781 q 268 791 244 781 q 309 819 292 802 q 337 861 327 837 q 347 911 347 884 l 347 1042 l 87 1042 l 87 911 z "},"":{"ha":2083,"x_min":0,"x_max":1997,"o":"m 1997 781 l 1997 608 l 1910 608 l 1910 260 l 347 260 l 347 347 l 1823 347 l 1823 1042 l 521 1042 l 521 1128 l 1910 1128 l 1910 781 l 1997 781 m 434 911 q 421 838 434 873 q 385 774 408 802 q 330 726 362 746 q 260 699 298 707 l 260 260 l 174 260 l 174 699 q 104 726 136 707 q 49 774 72 746 q 13 838 26 802 q 0 911 0 873 l 0 1128 l 87 1128 l 87 1302 l 174 1302 l 174 1128 l 260 1128 l 260 1302 l 347 1302 l 347 1128 l 434 1128 l 434 911 m 87 911 q 97 861 87 884 q 125 819 107 837 q 166 791 142 802 q 217 781 190 781 q 268 791 244 781 q 309 819 292 802 q 337 861 327 837 q 347 911 347 884 l 347 1042 l 87 1042 l 87 911 m 347 614 q 453 689 408 640 q 521 800 498 738 l 521 955 l 1215 955 l 1215 434 l 347 434 l 347 614 z "},"":{"ha":2083,"x_min":0,"x_max":1997,"o":"m 1997 781 l 1997 608 l 1910 608 l 1910 260 l 347 260 l 347 347 l 1823 347 l 1823 1042 l 521 1042 l 521 1128 l 1910 1128 l 1910 781 l 1997 781 m 434 911 q 421 838 434 873 q 385 774 408 802 q 330 726 362 746 q 260 699 298 707 l 260 260 l 174 260 l 174 699 q 104 726 136 707 q 49 774 72 746 q 13 838 26 802 q 0 911 0 873 l 0 1128 l 87 1128 l 87 1302 l 174 1302 l 174 1128 l 260 1128 l 260 1302 l 347 1302 l 347 1128 l 434 1128 l 434 911 m 87 911 q 97 861 87 884 q 125 819 107 837 q 166 791 142 802 q 217 781 190 781 q 268 791 244 781 q 309 819 292 802 q 337 861 327 837 q 347 911 347 884 l 347 1042 l 87 1042 l 87 911 m 347 614 q 453 689 408 640 q 521 800 498 738 l 521 955 l 1042 955 l 1042 434 l 347 434 l 347 614 z "},"":{"ha":2083,"x_min":0,"x_max":1997,"o":"m 1997 781 l 1997 608 l 1910 608 l 1910 260 l 347 260 l 347 347 l 1823 347 l 1823 1042 l 521 1042 l 521 1128 l 1910 1128 l 1910 781 l 1997 781 m 434 911 q 421 838 434 873 q 385 774 408 802 q 330 726 362 746 q 260 699 298 707 l 260 260 l 174 260 l 174 699 q 104 726 136 707 q 49 774 72 746 q 13 838 26 802 q 0 911 0 873 l 0 1128 l 87 1128 l 87 1302 l 174 1302 l 174 1128 l 260 1128 l 260 1302 l 347 1302 l 347 1128 l 434 1128 l 434 911 m 87 911 q 97 861 87 884 q 125 819 107 837 q 166 791 142 802 q 217 781 190 781 q 268 791 244 781 q 309 819 292 802 q 337 861 327 837 q 347 911 347 884 l 347 1042 l 87 1042 l 87 911 m 347 614 q 453 689 408 640 q 521 800 498 738 l 521 955 l 868 955 l 868 434 l 347 434 l 347 614 z "},"":{"ha":2083,"x_min":0,"x_max":1997,"o":"m 1997 781 l 1997 608 l 1910 608 l 1910 260 l 347 260 l 347 347 l 1823 347 l 1823 1042 l 521 1042 l 521 1128 l 1910 1128 l 1910 781 l 1997 781 m 434 911 q 421 838 434 873 q 385 774 408 802 q 330 726 362 746 q 260 699 298 707 l 260 260 l 174 260 l 174 699 q 104 726 136 707 q 49 774 72 746 q 13 838 26 802 q 0 911 0 873 l 0 1128 l 87 1128 l 87 1302 l 174 1302 l 174 1128 l 260 1128 l 260 1302 l 347 1302 l 347 1128 l 434 1128 l 434 911 m 347 614 q 453 689 408 640 q 521 800 498 738 l 521 955 l 781 955 l 781 434 l 347 434 l 347 614 m 87 911 q 97 861 87 884 q 125 819 107 837 q 166 791 142 802 q 217 781 190 781 q 268 791 244 781 q 309 819 292 802 q 337 861 327 837 q 347 911 347 884 l 347 1042 l 87 1042 l 87 911 z "},"":{"ha":2083,"x_min":0,"x_max":1997,"o":"m 1997 781 l 1997 608 l 1910 608 l 1910 260 l 347 260 l 347 347 l 1823 347 l 1823 1042 l 521 1042 l 521 1128 l 1910 1128 l 1910 781 l 1997 781 m 434 911 q 421 838 434 873 q 385 774 408 802 q 330 726 362 746 q 260 699 298 707 l 260 260 l 174 260 l 174 699 q 104 726 136 707 q 49 774 72 746 q 13 838 26 802 q 0 911 0 873 l 0 1128 l 87 1128 l 87 1302 l 174 1302 l 174 1128 l 260 1128 l 260 1302 l 347 1302 l 347 1128 l 434 1128 l 434 911 m 87 911 q 97 861 87 884 q 125 819 107 837 q 166 791 142 802 q 217 781 190 781 q 268 791 244 781 q 309 819 292 802 q 337 861 327 837 q 347 911 347 884 l 347 1042 l 87 1042 l 87 911 m 347 614 q 453 689 408 640 q 521 800 498 738 l 521 955 l 608 955 l 608 434 l 347 434 l 347 614 z "},"":{"ha":2083,"x_min":0,"x_max":1997,"o":"m 1997 781 l 1997 608 l 1910 608 l 1910 260 l 347 260 l 347 347 l 1823 347 l 1823 1042 l 521 1042 l 521 1128 l 1910 1128 l 1910 781 l 1997 781 m 434 911 q 421 838 434 873 q 385 774 408 802 q 330 726 362 746 q 260 699 298 707 l 260 260 l 174 260 l 174 699 q 104 726 136 707 q 49 774 72 746 q 13 838 26 802 q 0 911 0 873 l 0 1128 l 87 1128 l 87 1302 l 174 1302 l 174 1128 l 260 1128 l 260 1302 l 347 1302 l 347 1128 l 434 1128 l 434 911 m 87 911 q 97 861 87 884 q 125 819 107 837 q 166 791 142 802 q 217 781 190 781 q 268 791 244 781 q 309 819 292 802 q 337 861 327 837 q 347 911 347 884 l 347 1042 l 87 1042 l 87 911 m 347 614 q 453 689 408 640 q 521 800 498 738 l 521 434 l 347 434 l 347 614 z "},"":{"ha":2083,"x_min":0,"x_max":1997,"o":"m 1997 781 l 1997 608 l 1910 608 l 1910 260 l 347 260 l 347 347 l 1823 347 l 1823 1042 l 521 1042 l 521 1128 l 1910 1128 l 1910 781 l 1997 781 m 434 911 q 421 838 434 873 q 385 774 408 802 q 330 726 362 746 q 260 699 298 707 l 260 260 l 174 260 l 174 699 q 104 726 136 707 q 49 774 72 746 q 13 838 26 802 q 0 911 0 873 l 0 1128 l 87 1128 l 87 1302 l 174 1302 l 174 1128 l 260 1128 l 260 1302 l 347 1302 l 347 1128 l 434 1128 l 434 911 m 87 911 q 97 861 87 884 q 125 819 107 837 q 166 791 142 802 q 217 781 190 781 q 268 791 244 781 q 309 819 292 802 q 337 861 327 837 q 347 911 347 884 l 347 1042 l 87 1042 l 87 911 z "},"":{"ha":2083,"x_min":174,"x_max":1997,"o":"m 1910 781 l 1997 781 l 1997 608 l 1910 608 l 1910 260 l 174 260 l 174 1128 l 1910 1128 l 1910 781 m 1823 347 l 1823 1042 l 260 1042 l 260 347 l 1823 347 m 1736 955 l 1736 434 l 347 434 l 347 955 l 1736 955 z "},"":{"ha":2083,"x_min":174,"x_max":1997,"o":"m 1910 781 l 1997 781 l 1997 608 l 1910 608 l 1910 260 l 174 260 l 174 1128 l 1910 1128 l 1910 781 m 1823 347 l 1823 1042 l 260 1042 l 260 347 l 1823 347 m 1649 955 l 1649 434 l 347 434 l 347 955 l 1649 955 z "},"":{"ha":2083,"x_min":174,"x_max":1997,"o":"m 1910 781 l 1997 781 l 1997 608 l 1910 608 l 1910 260 l 174 260 l 174 1128 l 1910 1128 l 1910 781 m 1823 347 l 1823 1042 l 260 1042 l 260 347 l 1823 347 m 1476 955 l 1476 434 l 347 434 l 347 955 l 1476 955 z "},"":{"ha":2083,"x_min":174,"x_max":1997,"o":"m 1997 781 l 1997 608 l 1910 608 l 1910 260 l 174 260 l 174 1128 l 1910 1128 l 1910 781 l 1997 781 m 1823 1042 l 260 1042 l 260 347 l 1823 347 l 1823 1042 m 1302 434 l 347 434 l 347 955 l 1302 955 l 1302 434 z "},"":{"ha":2083,"x_min":174,"x_max":1997,"o":"m 1910 781 l 1997 781 l 1997 608 l 1910 608 l 1910 260 l 174 260 l 174 1128 l 1910 1128 l 1910 781 m 1823 347 l 1823 1042 l 260 1042 l 260 347 l 1823 347 m 1215 955 l 1215 434 l 347 434 l 347 955 l 1215 955 z "},"":{"ha":2083,"x_min":174,"x_max":1997,"o":"m 1910 781 l 1997 781 l 1997 608 l 1910 608 l 1910 260 l 174 260 l 174 1128 l 1910 1128 l 1910 781 m 1823 347 l 1823 1042 l 260 1042 l 260 347 l 1823 347 m 1042 955 l 1042 434 l 347 434 l 347 955 l 1042 955 z "},"":{"ha":2083,"x_min":174,"x_max":1997,"o":"m 1910 781 l 1997 781 l 1997 608 l 1910 608 l 1910 260 l 174 260 l 174 1128 l 1910 1128 l 1910 781 m 1823 347 l 1823 1042 l 260 1042 l 260 347 l 1823 347 m 868 955 l 868 434 l 347 434 l 347 955 l 868 955 z "},"":{"ha":2083,"x_min":174,"x_max":1997,"o":"m 1997 781 l 1997 608 l 1910 608 l 1910 260 l 174 260 l 174 1128 l 1910 1128 l 1910 781 l 1997 781 m 1823 1042 l 260 1042 l 260 347 l 1823 347 l 1823 1042 m 781 434 l 347 434 l 347 955 l 781 955 l 781 434 z "},"":{"ha":2083,"x_min":174,"x_max":1997,"o":"m 1910 781 l 1997 781 l 1997 608 l 1910 608 l 1910 260 l 174 260 l 174 1128 l 1910 1128 l 1910 781 m 1823 347 l 1823 1042 l 260 1042 l 260 347 l 1823 347 m 608 955 l 608 434 l 347 434 l 347 955 l 608 955 z "},"":{"ha":2083,"x_min":174,"x_max":1997,"o":"m 1910 781 l 1997 781 l 1997 608 l 1910 608 l 1910 260 l 174 260 l 174 1128 l 1910 1128 l 1910 781 m 1823 347 l 1823 1042 l 260 1042 l 260 347 l 1823 347 m 521 955 l 521 434 l 347 434 l 347 955 l 521 955 z "},"":{"ha":2083,"x_min":174,"x_max":1997,"o":"m 1910 781 l 1997 781 l 1997 608 l 1910 608 l 1910 260 l 174 260 l 174 1128 l 1910 1128 l 1910 781 m 1823 347 l 1823 1042 l 260 1042 l 260 347 l 1823 347 z "},"":{"ha":1389,"x_min":0,"x_max":1302,"o":"m 794 334 l 855 273 l 651 69 l 447 273 l 508 334 l 608 235 l 608 694 l 694 694 l 694 235 l 794 334 m 1107 947 q 1186 911 1150 935 q 1247 854 1221 887 q 1288 780 1274 821 q 1302 694 1302 739 q 1282 593 1302 640 q 1226 510 1261 546 q 1143 454 1190 475 q 1042 434 1095 434 l 781 434 l 781 521 l 1042 521 q 1109 534 1078 521 q 1164 572 1141 548 q 1202 627 1188 595 q 1215 694 1215 659 q 1201 764 1215 732 q 1163 819 1187 795 q 1106 855 1139 842 q 1037 868 1074 868 q 1002 971 1029 924 q 936 1054 976 1019 q 846 1109 897 1089 q 738 1128 795 1128 q 638 1112 686 1128 q 553 1065 591 1095 q 486 993 514 1035 q 445 901 458 951 q 379 941 415 927 q 304 955 343 955 q 219 938 259 955 q 150 891 180 921 q 104 822 121 862 q 87 738 87 783 q 104 653 87 693 q 150 584 121 614 q 219 538 180 555 q 304 521 259 521 l 521 521 l 521 434 l 304 434 q 185 458 241 434 q 89 523 130 482 q 24 620 48 564 q 0 738 0 675 q 24 856 0 801 q 89 952 48 911 q 185 1018 130 994 q 304 1042 241 1042 q 404 1025 354 1042 q 466 1104 430 1069 q 546 1164 503 1139 q 637 1202 589 1189 q 738 1215 686 1215 q 859 1196 801 1215 q 966 1140 917 1176 q 1051 1056 1015 1105 q 1107 947 1088 1006 z "},"":{"ha":1389,"x_min":0,"x_max":1302,"o":"m 1302 868 l 1215 868 l 1215 434 l 1302 434 l 1302 174 l 1042 174 l 1042 255 l 781 125 l 781 0 l 521 0 l 521 125 l 260 255 l 260 174 l 0 174 l 0 434 l 87 434 l 87 868 l 0 868 l 0 1128 l 250 1128 l 521 1263 l 521 1389 l 781 1389 l 781 1263 l 1052 1128 l 1302 1128 l 1302 868 m 1128 1042 l 1128 955 l 1215 955 l 1215 1042 l 1128 1042 m 608 1302 l 608 1215 l 694 1215 l 694 1302 l 608 1302 m 781 1128 l 521 1128 l 521 1167 l 260 1036 l 260 1003 l 521 873 l 521 955 l 781 955 l 781 873 l 1042 1003 l 1042 1036 l 781 1167 l 781 1128 m 608 781 l 694 781 l 694 868 l 608 868 l 608 781 m 87 1042 l 87 955 l 174 955 l 174 1042 l 87 1042 m 174 260 l 174 347 l 87 347 l 87 260 l 174 260 m 260 353 l 521 222 l 521 260 l 608 260 l 608 694 l 521 694 l 521 776 l 260 907 l 260 868 l 174 868 l 174 434 l 260 434 l 260 353 m 694 87 l 694 174 l 608 174 l 608 87 l 694 87 m 1215 260 l 1215 347 l 1128 347 l 1128 260 l 1215 260 m 1128 434 l 1128 868 l 1042 868 l 1042 907 l 781 776 l 781 694 l 694 694 l 694 260 l 781 260 l 781 222 l 1042 353 l 1042 434 l 1128 434 z "},"":{"ha":1389,"x_min":0,"x_max":1345,"o":"m 956 1101 q 962 1096 959 1099 q 968 1090 964 1094 l 1306 752 q 1335 708 1325 733 q 1345 656 1345 683 q 1335 603 1345 628 q 1306 560 1324 578 q 1263 531 1288 542 q 1210 521 1238 521 q 1158 531 1183 521 q 1114 561 1133 542 l 935 740 l 907 629 l 1116 421 q 1128 391 1128 408 l 1128 130 q 1118 79 1128 103 q 1090 38 1108 56 q 1049 10 1073 20 q 998 0 1025 0 q 947 10 971 0 q 906 38 924 20 q 878 79 888 56 q 868 130 868 103 l 868 286 l 720 433 l 671 211 q 661 157 666 184 q 648 102 655 130 q 631 61 643 80 q 603 28 619 42 q 565 7 586 15 q 521 0 545 0 q 470 11 494 0 q 429 39 446 21 q 401 80 411 56 q 391 131 391 104 q 391 144 391 138 q 393 158 392 151 l 477 537 l 304 450 l 0 602 l 0 960 l 304 1112 l 434 1047 l 551 1105 q 582 1118 568 1114 q 611 1125 597 1122 q 641 1128 626 1127 q 674 1128 656 1128 q 651 1215 651 1169 q 665 1283 651 1251 q 702 1338 678 1314 q 757 1375 726 1362 q 825 1389 789 1389 q 892 1375 861 1389 q 947 1338 924 1362 q 985 1283 971 1314 q 998 1215 998 1251 q 987 1155 998 1184 q 956 1101 976 1125 m 738 1215 q 745 1181 738 1197 q 763 1154 751 1166 q 791 1135 775 1142 q 825 1128 806 1128 q 859 1135 843 1128 q 886 1154 874 1142 q 905 1181 898 1166 q 911 1215 911 1197 q 905 1249 911 1234 q 886 1277 898 1265 q 859 1295 874 1289 q 825 1302 843 1302 q 791 1295 806 1302 q 763 1277 775 1289 q 745 1249 751 1265 q 738 1215 738 1234 m 304 1015 l 140 933 l 304 852 l 467 933 l 304 1015 m 521 863 l 347 776 l 347 569 l 512 652 q 516 654 515 653 q 521 657 518 656 l 521 863 m 87 656 l 260 569 l 260 776 l 87 863 l 87 656 m 1210 608 q 1244 622 1230 608 q 1259 656 1259 636 q 1244 690 1259 676 l 906 1029 q 876 1042 893 1042 l 648 1042 q 617 1038 632 1042 q 587 1027 602 1034 q 559 1013 573 1021 q 531 998 545 1005 l 608 960 l 608 602 l 576 587 l 479 140 q 477 130 477 133 q 490 100 477 113 q 520 87 503 87 q 548 96 536 87 q 563 121 559 105 q 609 325 588 223 q 652 530 629 427 q 667 554 656 545 q 694 564 679 564 q 726 551 713 564 l 942 334 q 955 304 955 321 l 955 130 q 968 100 955 113 q 998 87 981 87 q 1029 100 1016 87 q 1042 130 1042 113 l 1042 372 l 829 586 q 816 616 816 599 q 819 637 816 621 q 828 675 823 654 q 840 722 833 697 q 852 769 846 746 q 863 809 858 791 q 869 835 867 827 q 884 859 873 850 q 911 868 896 868 q 942 855 929 868 l 1175 622 q 1210 608 1190 608 z "},"":{"ha":1389,"x_min":121,"x_max":1224,"o":"m 201 1284 q 226 1280 214 1284 l 878 1063 q 955 1020 921 1049 q 1009 950 989 990 l 1222 524 q 1224 516 1224 520 q 1219 504 1224 509 q 1206 498 1214 498 q 1191 508 1196 498 l 978 935 q 932 994 961 968 q 867 1030 903 1019 q 822 1045 856 1034 q 741 1073 789 1057 q 635 1108 693 1089 q 519 1147 578 1128 q 405 1185 460 1167 q 305 1218 349 1204 q 233 1241 261 1233 q 201 1250 205 1250 q 169 1237 182 1250 q 156 1205 156 1224 q 163 1181 156 1192 q 181 1165 170 1171 l 787 862 q 808 843 801 855 q 816 816 816 831 l 816 544 q 827 539 821 542 q 838 534 833 537 q 847 526 844 530 q 851 515 851 522 q 846 503 851 508 q 833 498 840 498 q 811 508 831 498 q 760 532 791 517 q 689 568 729 548 q 608 608 650 587 q 525 650 566 629 q 450 688 484 671 q 392 718 416 705 q 361 733 368 730 q 340 738 352 738 q 308 725 321 738 q 295 692 295 711 q 302 669 295 680 q 319 652 309 659 q 472 550 401 606 q 604 423 542 495 q 706 321 652 368 q 822 235 760 273 q 866 210 844 221 q 911 184 889 198 q 920 168 920 178 q 915 156 920 161 q 903 151 910 151 q 895 153 899 151 q 724 260 802 200 q 577 400 646 321 q 450 523 517 469 q 303 622 383 576 q 272 651 283 633 q 260 692 260 669 q 267 723 260 709 q 284 749 273 738 q 310 766 295 760 q 340 772 324 772 q 376 764 357 772 l 574 665 q 624 905 578 789 l 165 1135 q 133 1163 145 1145 q 121 1205 121 1182 q 128 1236 121 1221 q 145 1261 134 1251 q 170 1278 155 1272 q 201 1284 184 1284 m 781 816 q 772 831 781 827 l 654 890 q 608 648 610 774 l 781 562 l 781 702 l 733 690 q 719 693 726 688 q 711 707 711 699 q 725 724 711 720 l 781 738 l 781 816 m 191 850 l 226 850 l 226 747 l 121 747 l 121 781 l 170 781 q 134 847 146 811 q 121 920 121 882 q 138 1006 121 965 q 187 1079 155 1047 l 212 1055 q 171 993 186 1028 q 157 920 157 958 q 165 862 157 890 q 191 810 174 834 l 191 850 z "},"":{"ha":1389,"x_min":0,"x_max":1389,"o":"m 1128 1042 l 1389 260 l 0 260 l 260 1042 l 503 1042 l 564 1103 l 626 1042 l 1128 1042 m 825 806 l 648 629 l 756 521 l 1211 521 l 1181 608 l 1024 608 l 825 806 m 1153 694 l 1124 781 l 972 781 l 1059 694 l 1153 694 m 1066 955 l 713 955 l 781 886 l 825 930 l 886 868 l 1095 868 l 1066 955 m 720 825 l 564 980 l 365 781 l 265 781 l 236 694 l 459 694 l 521 756 l 586 690 l 720 825 m 372 608 l 208 608 l 178 521 l 286 521 l 372 608 m 416 955 l 323 955 l 294 868 l 330 868 l 416 955 m 149 434 l 121 347 l 1268 347 l 1240 434 l 720 434 l 521 633 l 322 434 l 149 434 z "},"":{"ha":1389,"x_min":0,"x_max":1302,"o":"m 1209 1128 q 1246 1121 1230 1128 q 1276 1099 1263 1113 q 1295 1068 1288 1086 q 1302 1031 1302 1050 l 1302 445 q 1295 408 1302 425 q 1276 376 1288 390 q 1246 355 1263 363 q 1209 347 1230 347 l 93 347 q 56 355 73 347 q 26 376 39 363 q 7 408 14 390 q 0 445 0 425 l 0 1031 q 7 1068 0 1050 q 26 1099 14 1086 q 56 1121 39 1113 q 93 1128 73 1128 l 1209 1128 m 1215 1031 q 1214 1037 1215 1033 q 1209 1042 1213 1042 l 93 1042 q 88 1037 90 1042 q 87 1031 87 1033 l 87 445 q 88 438 87 443 q 93 434 90 434 l 1209 434 q 1214 438 1213 434 q 1215 445 1215 443 l 1215 1031 m 260 868 l 174 868 l 174 955 l 260 955 l 260 868 m 174 781 l 347 781 l 347 694 l 174 694 l 174 781 m 955 781 l 1128 781 l 1128 694 l 955 694 l 955 781 m 955 608 l 1128 608 l 1128 521 l 955 521 l 955 608 m 174 608 l 347 608 l 347 521 l 174 521 l 174 608 m 434 608 l 868 608 l 868 521 l 434 521 l 434 608 m 434 868 l 347 868 l 347 955 l 434 955 l 434 868 m 434 781 l 521 781 l 521 694 l 434 694 l 434 781 m 608 781 l 694 781 l 694 694 l 608 694 l 608 781 m 781 781 l 868 781 l 868 694 l 781 694 l 781 781 m 608 868 l 521 868 l 521 955 l 608 955 l 608 868 m 781 868 l 694 868 l 694 955 l 781 955 l 781 868 m 955 868 l 868 868 l 868 955 l 955 955 l 955 868 m 1042 955 l 1128 955 l 1128 868 l 1042 868 l 1042 955 m 794 291 l 855 230 l 651 25 l 447 230 l 508 291 l 651 149 l 794 291 z "},"":{"ha":1389,"x_min":0,"x_max":1302,"o":"m 1209 1042 q 1246 1034 1230 1042 q 1276 1013 1263 1026 q 1295 981 1288 999 q 1302 944 1302 964 l 1302 358 q 1295 321 1302 338 q 1276 290 1288 303 q 1246 268 1263 276 q 1209 260 1230 260 l 93 260 q 56 268 73 260 q 26 290 39 276 q 7 321 14 303 q 0 358 0 338 l 0 944 q 7 981 0 964 q 26 1013 14 999 q 56 1034 39 1026 q 93 1042 73 1042 l 1209 1042 m 1215 944 q 1214 950 1215 946 q 1209 955 1213 955 l 93 955 q 88 950 90 955 q 87 944 87 946 l 87 358 q 88 352 87 356 q 93 347 90 347 l 1209 347 q 1214 352 1213 347 q 1215 358 1215 356 l 1215 944 m 260 781 l 174 781 l 174 868 l 260 868 l 260 781 m 174 694 l 347 694 l 347 608 l 174 608 l 174 694 m 955 694 l 1128 694 l 1128 608 l 955 608 l 955 694 m 955 521 l 1128 521 l 1128 434 l 955 434 l 955 521 m 174 521 l 347 521 l 347 434 l 174 434 l 174 521 m 434 521 l 868 521 l 868 434 l 434 434 l 434 521 m 434 781 l 347 781 l 347 868 l 434 868 l 434 781 m 434 694 l 521 694 l 521 608 l 434 608 l 434 694 m 608 694 l 694 694 l 694 608 l 608 608 l 608 694 m 781 694 l 868 694 l 868 608 l 781 608 l 781 694 m 608 781 l 521 781 l 521 868 l 608 868 l 608 781 m 781 781 l 694 781 l 694 868 l 781 868 l 781 781 m 955 781 l 868 781 l 868 868 l 955 868 l 955 781 m 1042 868 l 1128 868 l 1128 781 l 1042 781 l 1042 868 m 508 1098 l 447 1159 l 651 1364 l 855 1159 l 794 1098 l 651 1240 l 508 1098 z "},"":{"ha":1389,"x_min":174,"x_max":1215,"o":"m 1215 868 l 1215 0 l 174 0 l 174 868 l 347 868 l 347 1042 q 374 1177 347 1114 q 449 1288 401 1240 q 559 1362 496 1335 q 694 1389 623 1389 q 830 1362 766 1389 q 940 1288 893 1335 q 1015 1177 987 1240 q 1042 1042 1042 1114 l 1042 868 l 1215 868 m 521 868 l 868 868 l 868 1042 q 854 1109 868 1078 q 817 1164 841 1141 q 762 1202 793 1188 q 694 1215 730 1215 q 627 1202 659 1215 q 572 1164 595 1188 q 534 1109 548 1141 q 521 1042 521 1078 l 521 868 m 1042 694 l 347 694 l 347 174 l 1042 174 l 1042 694 z "},"":{"ha":1389,"x_min":0,"x_max":1389,"o":"m 1389 521 l 1128 521 l 1128 434 l 1215 434 l 1215 347 l 955 347 l 955 434 l 1042 434 l 1042 608 l 1302 608 l 1302 955 l 1042 955 l 1042 1042 l 1389 1042 l 1389 521 m 521 521 l 521 434 l 781 434 l 781 347 l 174 347 l 174 434 l 436 434 l 436 521 l 0 521 l 0 1128 l 955 1128 l 955 521 l 521 521 m 87 608 l 868 608 l 868 1042 l 87 1042 l 87 608 z "},"":{"ha":1389,"x_min":260,"x_max":1302,"o":"m 781 174 q 800 312 781 245 q 852 437 819 379 q 934 542 886 494 q 1039 623 981 589 q 1163 676 1097 657 q 1302 694 1230 694 l 1302 608 q 1187 592 1242 608 q 1083 548 1131 576 q 995 480 1035 520 q 927 393 956 441 q 884 289 899 345 q 868 174 868 233 l 781 174 m 521 174 q 549 381 521 281 q 627 568 576 481 q 749 726 678 655 q 907 848 821 798 q 1094 927 994 899 q 1302 955 1194 955 l 1302 868 q 1118 843 1206 868 q 952 773 1029 819 q 811 664 875 728 q 703 524 748 601 q 632 358 657 447 q 608 174 608 269 l 521 174 m 260 174 q 298 450 260 317 q 403 699 335 583 q 566 910 471 815 q 777 1073 661 1005 q 1025 1178 892 1141 q 1302 1215 1158 1215 l 1302 1128 q 1049 1094 1171 1128 q 821 998 927 1060 q 627 848 715 936 q 478 655 540 761 q 381 427 416 549 q 347 174 347 305 l 260 174 m 1172 434 q 1223 424 1199 434 q 1264 396 1246 414 q 1292 355 1282 378 q 1302 304 1302 331 q 1292 253 1302 277 q 1264 212 1282 229 q 1223 184 1246 194 q 1172 174 1199 174 q 1121 184 1145 174 q 1080 212 1097 194 q 1052 253 1062 229 q 1042 304 1042 277 q 1052 355 1042 331 q 1080 396 1062 378 q 1121 424 1097 414 q 1172 434 1145 434 z "},"":{"ha":1389,"x_min":260,"x_max":1128,"o":"m 1128 608 l 1042 608 l 1042 130 q 1031 79 1042 103 q 1004 38 1021 56 q 962 10 986 20 q 911 0 939 0 q 861 10 884 0 q 819 38 837 20 q 791 79 802 56 q 781 130 781 103 l 781 608 l 694 608 l 694 694 l 868 694 l 868 1067 l 781 1154 l 781 1389 l 1042 1389 l 1042 1154 l 955 1067 l 955 694 l 1128 694 l 1128 608 m 868 1190 l 911 1146 l 955 1190 l 955 1302 l 868 1302 l 868 1190 m 955 608 l 868 608 l 868 130 q 881 100 868 113 q 911 87 894 87 q 942 100 929 87 q 955 130 955 113 l 955 608 m 477 1389 q 562 1372 522 1389 q 630 1325 601 1354 q 677 1256 660 1295 q 694 1172 694 1217 q 671 1075 694 1121 q 608 999 648 1029 l 608 130 q 597 79 608 103 q 570 38 587 56 q 528 10 552 20 q 477 0 505 0 q 427 10 450 0 q 385 38 403 20 q 357 79 368 56 q 347 130 347 103 l 347 999 q 283 1075 307 1029 q 260 1172 260 1121 q 277 1256 260 1217 q 324 1325 294 1295 q 393 1372 353 1354 q 477 1389 433 1389 m 521 1047 q 556 1070 540 1058 q 583 1097 572 1082 q 601 1130 595 1112 q 608 1172 608 1148 q 601 1211 608 1192 q 584 1246 595 1230 q 556 1275 572 1263 q 521 1294 540 1287 l 521 1172 l 477 1128 l 434 1172 l 434 1294 q 398 1275 414 1287 q 371 1246 382 1263 q 354 1211 360 1230 q 347 1172 347 1192 q 354 1130 347 1148 q 372 1097 360 1112 q 399 1070 383 1082 q 434 1047 415 1058 l 434 130 q 447 100 434 113 q 477 87 460 87 q 508 100 495 87 q 521 130 521 113 l 521 1047 z "},"":{"ha":1389,"x_min":4,"x_max":1389,"o":"m 360 182 l 421 121 l 304 3 l 186 121 l 248 182 l 304 126 l 360 182 m 304 604 l 421 486 l 360 425 l 304 481 l 248 425 l 186 486 l 304 604 m 182 360 l 127 304 l 182 248 l 121 186 l 4 304 l 121 421 l 182 360 m 486 421 l 604 304 l 486 186 l 425 248 l 481 304 l 425 360 l 486 421 m 812 1301 q 878 1292 846 1301 q 938 1266 910 1283 q 988 1225 966 1249 q 1026 1170 1010 1200 l 1384 453 q 1388 444 1386 448 q 1389 434 1389 439 q 1376 403 1389 416 q 1345 391 1363 391 q 1323 397 1333 391 q 1307 414 1312 404 l 949 1131 q 925 1166 939 1150 q 892 1192 910 1181 q 853 1209 874 1203 q 812 1215 833 1215 q 764 1207 786 1215 l 196 1018 q 180 1006 186 1015 q 174 987 174 998 q 183 964 174 973 q 205 954 192 954 q 213 955 211 954 l 686 1049 q 695 1050 689 1050 q 722 1041 710 1050 q 736 1017 733 1031 l 774 865 q 806 855 790 860 q 838 844 823 850 q 860 828 852 840 q 868 803 868 817 q 855 772 868 785 q 825 760 842 760 q 811 762 817 760 q 766 777 800 765 q 689 803 733 788 q 597 834 646 818 q 507 864 549 850 q 435 887 465 878 q 400 896 406 896 q 363 880 378 896 q 347 843 347 865 q 356 814 347 827 q 379 794 366 802 q 463 747 422 771 q 540 696 503 723 q 612 638 577 669 q 682 572 648 608 q 759 502 720 534 q 838 442 797 469 q 922 390 878 414 q 1015 344 966 366 q 1035 328 1027 338 q 1042 304 1042 317 q 1029 273 1042 286 q 998 260 1017 260 q 981 264 988 260 q 788 370 879 307 q 620 512 697 433 q 489 626 557 576 q 340 717 420 675 q 282 768 304 736 q 260 843 260 801 q 264 876 260 860 q 236 870 250 873 q 207 867 221 867 q 160 877 182 867 q 122 903 138 886 q 96 941 106 919 q 87 987 87 962 q 110 1057 87 1025 q 169 1100 132 1088 l 737 1290 q 774 1299 755 1296 q 812 1301 793 1301 m 663 956 l 562 936 l 677 898 l 663 956 z "},"":{"ha":1389,"x_min":33,"x_max":1389,"o":"m 217 937 l 33 1121 l 94 1183 l 174 1103 l 174 1389 l 260 1389 l 260 1103 l 340 1183 l 401 1121 l 217 937 m 812 1041 q 878 1032 846 1041 q 938 1006 910 1023 q 988 964 966 989 q 1026 909 1010 940 l 1384 193 q 1389 174 1389 182 q 1376 143 1389 156 q 1345 130 1363 130 q 1323 137 1333 130 q 1307 154 1312 143 l 948 871 q 892 932 928 909 q 812 954 855 954 q 764 947 786 954 l 196 758 q 180 746 186 754 q 174 726 174 737 q 183 703 174 713 q 206 694 193 694 q 213 694 211 694 l 686 789 q 695 789 689 789 q 722 780 710 789 q 736 757 733 771 l 774 605 l 838 584 q 860 568 852 579 q 868 543 868 557 q 855 512 868 525 q 825 499 842 499 q 811 501 817 499 q 766 516 800 505 q 689 543 733 528 q 597 574 646 557 q 507 604 549 590 q 435 627 465 618 q 400 635 406 635 q 363 620 378 635 q 347 583 347 604 q 356 554 347 566 q 379 534 366 541 q 463 487 422 511 q 540 435 503 463 q 612 378 577 408 q 682 312 648 347 q 759 241 720 273 q 838 181 797 209 q 922 130 878 154 q 1015 83 966 106 q 1035 67 1027 78 q 1042 43 1042 57 q 1029 13 1042 26 q 998 0 1016 0 q 981 3 990 0 q 788 109 879 44 q 620 252 696 174 q 340 456 497 377 q 282 508 304 475 q 260 583 260 541 q 264 616 260 600 q 236 610 250 613 q 207 607 222 607 q 160 616 182 607 q 122 642 138 626 q 96 680 106 659 q 87 726 87 702 q 109 796 87 765 q 168 840 132 827 l 737 1029 q 774 1038 755 1036 q 812 1041 793 1041 m 663 696 l 562 676 l 677 637 l 663 696 z "},"":{"ha":1389,"x_min":87,"x_max":1389,"o":"m 812 1042 q 878 1033 846 1042 q 938 1006 910 1023 q 988 964 966 989 q 1026 909 1011 940 l 1384 193 q 1389 174 1389 182 q 1376 143 1389 156 q 1345 130 1363 130 q 1323 137 1333 130 q 1307 154 1312 143 l 948 871 q 892 932 928 909 q 812 954 855 954 q 764 947 786 954 l 196 758 q 180 746 186 754 q 174 726 174 737 q 183 703 174 713 q 206 694 193 694 q 213 694 211 694 l 686 789 q 691 789 688 789 q 695 789 693 789 q 722 780 711 789 q 736 757 733 771 l 774 605 l 838 584 q 860 568 852 579 q 868 543 868 557 q 855 512 868 525 q 825 499 842 499 q 811 501 817 499 q 766 516 800 505 q 689 543 733 528 q 597 574 646 557 q 507 604 549 590 q 435 627 465 618 q 400 635 406 635 q 363 620 378 635 q 347 583 347 604 q 356 554 347 566 q 379 534 366 541 q 463 487 422 511 q 540 435 503 463 q 612 378 577 408 q 682 312 648 347 q 759 241 720 273 q 838 181 797 209 q 922 130 878 154 q 1015 83 966 106 q 1035 67 1027 78 q 1042 43 1042 57 q 1029 13 1042 26 q 998 0 1016 0 q 981 3 990 0 q 788 109 879 44 q 620 252 696 174 q 340 456 497 377 q 282 508 304 475 q 260 583 260 541 q 264 616 260 600 q 236 610 250 613 q 207 607 222 607 q 160 616 182 607 q 122 642 138 626 q 96 680 106 659 q 87 726 87 702 q 109 796 87 765 q 168 840 132 827 l 737 1029 q 812 1042 774 1042 m 663 696 l 562 676 l 677 637 l 663 696 z "},"":{"ha":1389,"x_min":0,"x_max":1389,"o":"m 1369 567 q 1384 528 1379 548 q 1389 486 1389 507 q 1380 436 1389 460 q 1357 390 1372 412 q 1295 330 1333 355 q 1215 290 1258 306 q 1127 268 1173 275 q 1042 260 1082 260 q 973 265 1009 260 q 902 279 937 269 q 834 304 867 289 q 776 340 801 319 l 391 146 l 0 342 l 0 829 l 385 1022 q 439 1102 407 1067 q 512 1163 471 1138 q 598 1202 552 1188 q 694 1215 644 1215 q 774 1206 735 1215 q 849 1179 813 1197 q 915 1136 884 1162 q 970 1078 946 1111 l 1042 1221 l 1369 567 m 694 1128 q 624 1119 658 1128 q 560 1090 590 1109 q 506 1046 530 1072 q 465 988 481 1020 l 781 829 l 781 701 l 925 989 q 884 1046 908 1021 q 829 1090 859 1072 q 765 1119 800 1109 q 694 1128 731 1128 m 641 803 l 391 928 l 140 803 l 391 678 l 641 803 m 87 395 l 347 266 l 347 602 l 87 733 l 87 395 m 694 733 l 434 602 l 434 266 l 694 395 l 694 733 m 1042 347 q 1141 358 1091 347 q 1234 395 1192 369 q 1259 412 1246 402 q 1280 433 1271 421 q 1296 457 1290 444 q 1302 486 1302 471 q 1299 508 1302 498 q 1291 528 1297 517 l 1042 1027 l 791 527 q 784 507 787 517 q 781 486 781 497 q 787 457 781 471 q 803 433 793 444 q 825 412 812 421 q 849 395 837 402 q 942 358 892 369 q 1042 347 992 347 z "},"":{"ha":1389,"x_min":0,"x_max":1389,"o":"m 1215 700 l 1389 613 l 1389 429 l 694 81 l 0 429 l 0 613 l 694 960 l 868 873 l 868 1308 l 1215 1134 l 1215 700 m 955 1167 l 955 829 l 1128 743 l 1128 868 l 1085 890 l 1085 955 l 1128 933 l 1128 1080 l 955 1167 m 1302 482 l 1302 559 l 694 863 l 87 559 l 87 482 l 694 179 l 1302 482 m 434 412 l 434 569 l 781 743 l 1042 613 l 1042 456 l 955 412 l 955 473 l 781 386 l 781 326 l 694 282 l 694 386 l 521 473 l 521 369 l 434 412 m 781 646 l 574 543 l 738 461 l 945 564 l 781 646 m 521 1350 l 521 994 l 174 820 l 174 1177 l 521 1350 m 434 1047 l 434 1210 l 260 1123 l 260 960 l 434 1047 z "},"":{"ha":1389,"x_min":0,"x_max":1389,"o":"m 651 868 q 621 881 633 868 q 608 911 608 894 q 621 942 608 929 q 651 955 633 955 l 738 955 q 768 942 755 955 q 781 911 781 929 q 768 881 781 894 q 738 868 755 868 l 651 868 m 1352 1017 q 1379 975 1370 999 q 1389 926 1389 951 l 1389 752 q 1357 594 1389 668 q 1270 466 1325 521 q 1142 379 1215 411 q 984 347 1068 347 l 929 347 q 883 357 904 347 q 842 380 861 366 q 805 410 823 394 q 769 440 787 427 q 733 464 751 454 q 694 473 715 473 q 656 464 674 473 q 620 440 637 454 q 584 410 602 427 q 547 380 566 394 q 506 357 528 366 q 460 347 485 347 l 405 347 q 247 379 321 347 q 119 466 174 411 q 32 594 64 521 q 0 752 0 668 l 0 926 q 10 975 0 951 q 37 1017 20 999 q 92 1054 62 1041 q 176 1082 128 1070 q 278 1102 224 1094 q 389 1116 332 1110 q 500 1124 446 1121 q 605 1127 555 1126 q 694 1128 654 1128 q 784 1127 734 1128 q 889 1124 834 1126 q 1000 1116 943 1121 q 1111 1102 1057 1110 q 1213 1082 1165 1094 q 1297 1054 1261 1070 q 1352 1017 1326 1041 m 87 812 q 294 759 189 777 q 507 741 400 741 q 898 801 708 741 q 1251 979 1087 861 q 1122 1012 1194 1000 q 975 1031 1050 1024 q 827 1040 900 1038 q 694 1042 754 1042 q 611 1041 658 1042 q 512 1037 564 1040 q 406 1030 460 1035 q 301 1018 352 1025 q 204 999 250 1010 q 124 973 159 988 q 98 955 109 966 q 87 926 87 944 l 87 812 m 1302 909 q 1120 799 1215 846 q 925 718 1025 751 q 719 669 824 686 q 507 652 614 652 q 295 669 400 652 q 89 718 191 686 q 122 606 95 658 q 192 515 150 553 q 289 456 235 477 q 405 434 344 434 l 460 434 q 487 444 473 434 q 518 467 502 453 q 553 497 534 481 q 593 527 572 513 q 640 551 615 541 q 694 560 665 560 q 749 551 724 560 q 795 527 774 541 q 836 497 817 513 q 871 467 854 481 q 902 444 887 453 q 929 434 916 434 l 984 434 q 1108 459 1050 434 q 1209 527 1166 484 q 1277 628 1252 570 q 1302 752 1302 686 l 1302 909 z "},"":{"ha":1389,"x_min":0,"x_max":1389,"o":"m 260 1215 l 260 1128 l 174 1128 l 174 1215 l 260 1215 m 347 955 l 174 955 l 174 1042 l 347 1042 l 347 955 m 174 868 l 347 868 l 347 781 l 174 781 l 174 868 m 434 868 l 781 868 l 781 781 l 434 781 l 434 868 m 434 1128 l 347 1128 l 347 1215 l 434 1215 l 434 1128 m 521 955 l 434 955 l 434 1042 l 521 1042 l 521 955 m 608 1042 l 694 1042 l 694 955 l 608 955 l 608 1042 m 781 1042 l 868 1042 l 868 955 l 781 955 l 781 1042 m 521 1128 l 521 1215 l 608 1215 l 608 1128 l 521 1128 m 781 1128 l 694 1128 l 694 1215 l 781 1215 l 781 1128 m 868 1128 l 868 1215 l 955 1215 l 955 1128 l 868 1128 m 1042 1128 l 1042 1215 l 1128 1215 l 1128 1128 l 1042 1128 m 1128 1042 q 1230 1021 1182 1042 q 1313 965 1277 1001 q 1369 882 1348 930 q 1389 781 1389 835 l 1389 260 q 1369 159 1389 206 q 1313 76 1348 112 q 1230 20 1277 41 q 1128 0 1182 0 q 1027 20 1074 0 q 944 76 980 41 q 888 159 909 112 q 868 260 868 206 l 868 781 q 888 882 868 835 q 944 965 909 930 q 1027 1021 980 1001 q 1128 1042 1074 1042 m 1302 781 q 1289 849 1302 817 q 1251 904 1275 880 q 1196 941 1227 928 q 1128 955 1164 955 q 1061 941 1093 955 q 1006 904 1029 928 q 968 849 982 880 q 955 781 955 817 l 955 260 q 968 193 955 224 q 1006 138 982 161 q 1061 100 1029 114 q 1128 87 1093 87 q 1196 100 1164 87 q 1251 138 1227 114 q 1289 193 1275 161 q 1302 260 1302 224 l 1302 781 m 1128 868 q 1162 861 1147 868 q 1190 843 1178 854 q 1208 815 1202 831 q 1215 781 1215 800 q 1208 747 1215 763 q 1190 720 1202 732 q 1162 701 1178 708 q 1128 694 1147 694 q 1095 701 1110 694 q 1067 720 1079 708 q 1048 747 1055 732 q 1042 781 1042 763 q 1048 815 1042 800 q 1067 843 1055 831 q 1095 861 1079 854 q 1128 868 1110 868 m 87 694 l 781 694 l 781 608 l 87 608 q 53 614 68 608 q 25 633 37 621 q 7 661 14 645 q 0 694 0 676 l 0 1302 q 7 1336 0 1320 q 25 1363 14 1352 q 53 1382 37 1375 q 87 1389 68 1389 l 1215 1389 q 1249 1382 1234 1389 q 1277 1363 1265 1375 q 1295 1336 1289 1352 q 1302 1302 1302 1320 l 1302 1080 q 1215 1116 1261 1104 l 1215 1302 l 87 1302 l 87 694 z "},"":{"ha":1389,"x_min":87,"x_max":1389,"o":"m 1215 715 q 1288 652 1256 688 q 1343 575 1320 616 q 1377 486 1365 533 q 1389 391 1389 439 q 1358 239 1389 310 q 1274 115 1327 168 q 1150 31 1221 62 q 998 0 1079 0 q 879 19 937 0 q 773 72 821 37 q 687 154 724 106 q 630 260 650 202 l 87 260 l 87 1302 l 260 1302 l 260 1389 l 347 1389 l 347 1302 l 955 1302 l 955 1389 l 1042 1389 l 1042 1302 l 1215 1302 l 1215 715 m 174 1215 l 174 1042 l 1128 1042 l 1128 1215 l 1042 1215 l 1042 1128 l 955 1128 l 955 1215 l 347 1215 l 347 1128 l 260 1128 l 260 1215 l 174 1215 m 610 347 q 608 391 608 368 q 624 504 608 449 q 673 608 641 559 l 608 608 l 608 694 l 694 694 l 694 636 q 756 697 722 671 q 830 743 791 724 q 911 771 869 762 q 998 781 954 781 q 1128 759 1066 781 l 1128 955 l 174 955 l 174 347 l 610 347 m 998 87 q 1117 111 1061 87 q 1213 176 1172 135 q 1278 272 1254 217 q 1302 391 1302 328 q 1278 509 1302 454 q 1213 605 1254 564 q 1117 670 1172 646 q 998 694 1061 694 q 880 670 935 694 q 784 605 825 646 q 719 509 743 564 q 694 391 694 454 q 719 272 694 328 q 784 176 743 217 q 880 111 825 135 q 998 87 935 87 m 1042 434 l 1172 434 l 1172 347 l 955 347 l 955 608 l 1042 608 l 1042 434 m 260 694 l 347 694 l 347 608 l 260 608 l 260 694 m 434 694 l 521 694 l 521 608 l 434 608 l 434 694 m 434 868 l 521 868 l 521 781 l 434 781 l 434 868 m 260 521 l 347 521 l 347 434 l 260 434 l 260 521 m 434 521 l 521 521 l 521 434 l 434 434 l 434 521 m 694 781 l 608 781 l 608 868 l 694 868 l 694 781 m 868 781 l 781 781 l 781 868 l 868 868 l 868 781 m 1042 781 l 955 781 l 955 868 l 1042 868 l 1042 781 z "},"":{"ha":1389,"x_min":174,"x_max":1387,"o":"m 1387 458 l 1190 260 l 1387 63 l 1326 2 l 1128 199 l 931 2 l 870 63 l 1067 260 l 870 458 l 931 519 l 1128 322 l 1326 519 l 1387 458 m 1302 1215 l 1302 608 l 781 608 l 781 87 l 174 87 l 174 1215 l 1302 1215 m 260 1128 l 260 694 l 694 694 l 694 1128 l 260 1128 m 694 174 l 694 608 l 260 608 l 260 174 l 694 174 m 1215 694 l 1215 1128 l 781 1128 l 781 694 l 1215 694 z "},"":{"ha":1389,"x_min":0,"x_max":1387,"o":"m 1387 458 l 1190 260 l 1387 63 l 1326 2 l 1128 199 l 931 2 l 870 63 l 1067 260 l 870 458 l 931 519 l 1128 322 l 1326 519 l 1387 458 m 858 347 l 922 282 l 564 103 l 0 386 l 0 1090 l 564 1373 l 1128 1090 l 1128 445 l 1042 532 l 1042 994 l 608 776 l 608 222 l 858 347 m 988 1063 l 564 1275 l 140 1063 l 564 852 l 988 1063 m 87 994 l 87 439 l 521 222 l 521 776 l 87 994 z "},"":{"ha":1389,"x_min":230,"x_max":1159,"o":"m 694 1240 l 291 838 l 230 899 l 694 1364 l 1159 899 l 1098 838 l 694 1240 m 694 149 l 1098 551 l 1159 490 l 694 25 l 230 490 l 291 551 l 694 149 z "},"":{"ha":1389,"x_min":0,"x_max":1302,"o":"m 694 720 l 694 260 l 608 260 l 608 720 l 508 621 l 447 682 l 651 886 l 855 682 l 794 621 l 694 720 m 1107 947 q 1186 911 1150 935 q 1247 854 1221 887 q 1288 780 1274 821 q 1302 694 1302 739 q 1282 593 1302 640 q 1226 510 1261 546 q 1143 454 1190 475 q 1042 434 1095 434 l 781 434 l 781 521 l 1042 521 q 1109 534 1078 521 q 1164 572 1141 548 q 1202 627 1188 595 q 1215 694 1215 659 q 1201 764 1215 732 q 1163 819 1187 795 q 1106 855 1139 842 q 1037 868 1074 868 q 1002 971 1029 924 q 936 1054 976 1019 q 846 1109 897 1089 q 738 1128 795 1128 q 638 1112 686 1128 q 553 1065 591 1095 q 486 993 514 1035 q 445 901 458 951 q 379 941 415 927 q 304 955 343 955 q 219 938 259 955 q 150 891 180 921 q 104 822 121 862 q 87 738 87 783 q 104 653 87 693 q 150 584 121 614 q 219 538 180 555 q 304 521 259 521 l 521 521 l 521 434 l 304 434 q 185 458 241 434 q 89 523 130 482 q 24 620 48 564 q 0 738 0 675 q 24 856 0 801 q 89 952 48 911 q 185 1018 130 994 q 304 1042 241 1042 q 404 1025 354 1042 q 466 1104 430 1069 q 546 1164 503 1139 q 637 1202 589 1189 q 738 1215 686 1215 q 859 1196 801 1215 q 966 1140 917 1176 q 1051 1056 1015 1105 q 1107 947 1088 1006 z "},"":{"ha":1389,"x_min":0,"x_max":1302,"o":"m 1159 258 q 1216 237 1190 252 q 1261 198 1242 221 q 1291 147 1280 176 q 1302 87 1302 118 l 1302 0 l 260 0 q 159 20 206 0 q 76 76 111 41 q 20 159 41 111 q 0 260 0 206 q 20 361 0 314 q 76 445 41 409 q 159 500 112 480 q 260 521 206 521 l 260 434 q 193 420 224 434 q 138 383 161 407 q 100 328 114 359 q 87 260 87 296 q 100 193 87 224 q 138 138 114 161 q 193 100 161 114 q 260 87 224 87 q 294 93 277 87 q 322 112 310 100 q 341 140 334 124 q 347 174 347 157 q 397 429 347 307 q 455 540 420 489 q 533 637 489 591 q 653 824 612 721 q 694 1042 694 926 l 694 1128 q 708 1196 694 1164 q 745 1251 722 1227 q 801 1289 769 1275 q 868 1302 832 1302 l 998 1302 q 1073 1288 1040 1302 q 1137 1246 1105 1274 q 1173 1223 1154 1231 q 1215 1215 1192 1215 q 1249 1208 1234 1215 q 1277 1190 1265 1202 q 1295 1162 1289 1178 q 1302 1128 1302 1147 l 1302 1042 q 1292 991 1302 1015 q 1264 949 1282 967 q 1223 922 1246 932 q 1172 911 1199 911 l 1128 911 l 1128 434 q 1136 345 1128 389 q 1159 258 1143 300 m 1215 87 q 1208 120 1215 104 q 1190 148 1202 136 q 1162 167 1178 160 q 1128 174 1146 174 l 1099 174 q 1075 238 1086 207 q 1057 301 1065 269 q 1046 365 1050 332 q 1042 434 1042 398 l 1042 911 q 1048 945 1042 930 q 1067 973 1055 961 q 1095 991 1079 985 q 1128 998 1110 998 q 1156 998 1141 998 q 1184 1001 1171 998 q 1206 1014 1198 1004 q 1215 1042 1215 1023 l 1215 1128 q 1162 1135 1185 1128 q 1123 1151 1140 1141 q 1092 1172 1106 1160 q 1064 1193 1078 1183 q 1035 1209 1050 1202 q 998 1215 1019 1215 l 868 1215 q 834 1208 850 1215 q 807 1190 819 1202 q 788 1162 795 1178 q 781 1128 781 1146 l 781 998 q 794 968 781 981 q 825 955 807 955 q 853 964 844 955 q 865 986 862 972 q 868 1014 869 999 q 868 1042 868 1029 l 955 1042 l 955 998 q 945 947 955 971 q 917 906 935 924 q 876 878 899 888 q 825 868 852 868 q 763 884 792 868 q 700 719 741 795 q 595 578 658 644 q 475 392 516 494 q 434 174 434 289 q 411 87 434 127 l 955 87 q 948 121 955 105 q 929 148 941 136 q 902 167 918 160 q 868 174 886 174 l 781 174 q 768 241 781 210 q 730 296 754 273 q 675 334 707 320 q 608 347 644 347 l 608 434 q 688 421 650 434 q 758 386 726 409 q 814 332 790 363 q 853 260 839 300 l 868 260 l 868 608 l 955 608 l 955 237 q 1019 174 996 214 q 1042 87 1042 134 l 1215 87 z "},"":{"ha":1389,"x_min":0,"x_max":1389,"o":"m 1215 1389 q 1283 1375 1251 1389 q 1338 1338 1314 1362 q 1375 1283 1362 1314 q 1389 1215 1389 1251 l 1389 955 q 1366 868 1389 908 q 1302 804 1343 828 l 1302 738 q 1290 610 1302 673 q 1254 488 1278 547 q 1196 374 1230 429 q 1116 273 1161 320 l 1116 273 q 1068 226 1092 250 q 1021 178 1044 203 q 1010 164 1015 173 q 1000 148 1005 155 q 941 103 975 119 q 868 87 907 87 q 857 87 863 87 q 846 88 851 87 q 782 24 823 47 q 694 0 741 0 q 607 24 648 0 q 543 88 566 47 q 532 87 538 87 q 521 87 526 87 q 448 103 482 87 q 389 148 414 119 q 379 164 384 155 q 368 178 374 173 q 320 226 345 203 q 273 273 296 250 q 193 373 228 318 q 135 487 158 427 q 99 611 111 547 q 87 738 87 675 l 87 804 q 23 868 46 828 q 0 955 0 908 l 0 1215 q 14 1283 0 1251 q 51 1338 27 1314 q 106 1375 75 1362 q 174 1389 138 1389 l 304 1389 q 366 1373 337 1389 q 413 1329 395 1358 q 550 1374 479 1359 q 694 1389 621 1389 q 839 1374 768 1389 q 976 1329 909 1359 q 1023 1373 994 1358 q 1085 1389 1052 1389 l 1215 1389 m 87 955 q 94 921 87 937 q 112 893 100 905 q 140 875 124 882 q 174 868 155 868 q 208 875 192 868 q 235 893 223 882 q 254 921 247 905 q 260 955 260 937 l 260 1119 l 260 1236 q 336 1289 296 1264 q 304 1302 322 1302 l 174 1302 q 140 1295 155 1302 q 112 1277 124 1289 q 94 1249 100 1265 q 87 1215 87 1234 l 87 955 m 174 738 q 185 622 174 679 q 218 512 196 565 q 273 411 240 459 q 347 322 305 363 l 347 347 q 359 427 347 389 q 394 498 372 466 q 449 554 417 530 q 521 593 481 578 l 521 781 q 507 849 521 817 q 470 904 494 880 q 415 941 446 928 q 347 955 383 955 q 334 887 347 919 q 296 832 320 856 q 241 795 273 808 q 174 781 210 781 l 174 738 m 694 87 q 730 95 713 87 q 759 116 747 102 q 724 142 741 127 q 694 174 707 156 q 665 142 682 156 q 630 116 648 127 q 659 95 642 102 q 694 87 676 87 m 955 347 q 941 415 955 383 q 904 470 928 446 q 849 507 880 494 q 781 521 817 521 l 781 781 q 802 883 781 836 q 857 966 822 930 q 940 1021 892 1001 q 1042 1042 987 1042 l 1042 1192 q 877 1274 965 1246 q 694 1302 788 1302 q 512 1274 601 1302 q 347 1192 424 1246 l 347 1042 q 449 1021 401 1042 q 532 966 496 1001 q 587 883 567 930 q 608 781 608 836 l 608 521 q 540 507 572 521 q 485 470 509 494 q 448 415 461 446 q 434 347 434 383 l 434 260 q 441 227 434 242 q 459 199 448 211 q 487 180 471 187 q 521 174 503 174 q 562 180 542 174 q 598 199 582 187 q 627 229 614 212 q 646 266 640 245 l 564 347 l 825 347 l 743 266 q 762 229 749 245 q 791 199 774 212 q 827 180 807 187 q 868 174 846 174 q 902 180 886 174 q 929 199 918 187 q 948 227 941 211 q 955 260 955 242 l 955 347 m 1215 781 q 1148 795 1179 781 q 1093 832 1116 808 q 1055 887 1069 856 q 1042 955 1042 919 q 974 941 1006 955 q 919 904 943 928 q 882 849 895 880 q 868 781 868 817 l 868 593 q 940 554 907 578 q 995 498 972 530 q 1029 427 1017 466 q 1042 347 1042 389 l 1042 322 q 1116 411 1084 363 q 1171 512 1149 459 q 1204 622 1193 565 q 1215 738 1215 679 l 1215 781 m 1302 1215 q 1295 1249 1302 1234 q 1277 1277 1289 1265 q 1249 1295 1265 1289 q 1215 1302 1234 1302 l 1085 1302 q 1053 1289 1067 1302 q 1128 1236 1093 1264 l 1128 1119 l 1128 955 q 1135 921 1128 937 q 1154 893 1142 905 q 1181 875 1166 882 q 1215 868 1197 868 q 1249 875 1234 868 q 1277 893 1265 882 q 1295 921 1289 905 q 1302 955 1302 937 l 1302 1215 m 391 673 q 345 692 363 673 q 326 738 326 711 q 345 784 326 765 q 391 803 363 803 q 437 784 418 803 q 456 738 456 765 l 456 673 l 391 673 m 998 803 q 1044 784 1025 803 q 1063 738 1063 765 q 1044 692 1063 711 q 998 673 1025 673 l 933 673 l 933 738 q 952 784 933 765 q 998 803 971 803 z "},"":{"ha":1389,"x_min":0,"x_max":1389,"o":"m 781 694 q 774 661 781 676 q 756 633 768 645 q 728 614 744 621 q 694 608 713 608 q 661 614 676 608 q 633 633 645 621 q 614 661 621 645 q 608 694 608 676 q 614 728 608 713 q 633 756 621 744 q 661 774 645 768 q 694 781 676 781 q 728 774 713 781 q 756 756 744 768 q 774 728 768 744 q 781 694 781 713 m 694 1389 q 725 1376 712 1389 l 942 1159 q 955 1128 955 1146 q 942 1098 955 1111 q 911 1085 929 1085 q 881 1098 894 1085 l 694 1284 l 508 1098 q 477 1085 495 1085 q 447 1098 460 1085 q 434 1128 434 1111 q 447 1159 434 1146 l 664 1376 q 694 1389 677 1389 m 881 291 q 911 304 894 304 q 942 291 929 304 q 955 260 955 278 q 942 230 955 243 l 725 13 q 694 0 712 0 q 664 13 677 0 l 447 230 q 434 260 434 243 q 447 291 434 278 q 477 304 460 304 q 508 291 495 304 l 694 104 l 881 291 m 260 955 q 291 942 278 955 q 304 911 304 929 q 291 881 304 894 l 104 694 l 291 508 q 304 477 304 495 q 291 447 304 460 q 260 434 278 434 q 230 447 243 434 l 13 664 q 0 694 0 677 q 13 725 0 712 l 230 942 q 260 955 243 955 m 1128 955 q 1159 942 1146 955 l 1376 725 q 1389 694 1389 712 q 1376 664 1389 677 l 1159 447 q 1128 434 1146 434 q 1098 447 1111 434 q 1085 477 1085 460 q 1098 508 1085 495 l 1284 694 l 1098 881 q 1085 911 1085 894 q 1098 942 1085 929 q 1128 955 1111 955 z "},"":{"ha":1389,"x_min":477,"x_max":911,"o":"m 608 694 q 614 728 608 713 q 633 756 621 744 q 661 774 645 768 q 694 781 676 781 q 728 774 713 781 q 756 756 744 768 q 774 728 768 744 q 781 694 781 713 q 774 661 781 676 q 756 633 768 645 q 728 614 744 621 q 694 608 713 608 q 661 614 676 608 q 633 633 645 621 q 614 661 621 645 q 608 694 608 676 m 521 1128 q 490 1141 503 1128 q 477 1172 477 1154 q 490 1202 477 1190 q 521 1215 503 1215 l 651 1215 l 651 1345 q 664 1376 651 1363 q 694 1389 677 1389 q 725 1376 712 1389 q 738 1345 738 1363 l 738 1215 l 868 1215 q 899 1202 886 1215 q 911 1172 911 1190 q 899 1141 911 1154 q 868 1128 886 1128 l 738 1128 l 738 998 q 725 968 738 981 q 694 955 712 955 q 664 968 677 955 q 651 998 651 981 l 651 1128 l 521 1128 m 868 347 q 899 334 886 347 q 911 304 911 321 q 899 273 911 286 q 868 260 886 260 l 521 260 q 490 273 503 260 q 477 304 477 286 q 490 334 477 321 q 521 347 503 347 l 868 347 z "},"":{"ha":1389,"x_min":434,"x_max":955,"o":"m 608 694 q 614 728 608 713 q 633 756 621 744 q 661 774 645 768 q 694 781 676 781 q 728 774 713 781 q 756 756 744 768 q 774 728 768 744 q 781 694 781 713 q 774 661 781 676 q 756 633 768 645 q 728 614 744 621 q 694 608 713 608 q 661 614 676 608 q 633 633 645 621 q 614 661 621 645 q 608 694 608 676 m 508 1098 q 477 1085 495 1085 q 447 1098 460 1085 q 434 1128 434 1111 q 447 1159 434 1146 l 664 1376 q 694 1389 677 1389 q 725 1376 712 1389 l 942 1159 q 955 1128 955 1146 q 942 1098 955 1111 q 911 1085 929 1085 q 881 1098 894 1085 l 694 1284 l 508 1098 m 881 291 q 911 304 894 304 q 942 291 929 304 q 955 260 955 278 q 942 230 955 243 l 725 13 q 694 0 712 0 q 664 13 677 0 l 447 230 q 434 260 434 243 q 447 291 434 278 q 477 304 460 304 q 508 291 495 304 l 694 104 l 881 291 z "},"":{"ha":1389,"x_min":0,"x_max":1387,"o":"m 903 347 l 957 293 l 924 260 l 0 260 l 260 1042 l 503 1042 l 564 1103 l 626 1042 l 1128 1042 l 1273 609 l 1204 540 l 1181 608 l 1024 608 l 825 806 l 648 629 l 756 521 l 878 521 l 791 434 l 720 434 l 521 633 l 322 434 l 149 434 l 121 347 l 903 347 m 286 521 l 372 608 l 208 608 l 178 521 l 286 521 m 1059 694 l 1153 694 l 1124 781 l 972 781 l 1059 694 m 1066 955 l 713 955 l 781 886 l 825 930 l 886 868 l 1095 868 l 1066 955 m 720 825 l 564 980 l 365 781 l 265 781 l 236 694 l 459 694 l 521 756 l 586 690 l 720 825 m 416 955 l 323 955 l 294 868 l 330 868 l 416 955 m 1387 447 l 1233 293 l 1387 139 l 1326 78 l 1172 231 l 1018 78 l 957 139 l 1111 293 l 957 447 l 1018 508 l 1172 354 l 1326 508 l 1387 447 z "},"":{"ha":1389,"x_min":0,"x_max":1389,"o":"m 1215 347 l 1389 347 l 1389 260 l 1215 260 l 1215 87 l 1128 87 l 1128 260 l 955 260 l 955 347 l 1128 347 l 1128 521 l 1215 521 l 1215 347 m 322 434 l 149 434 l 121 347 l 868 347 l 868 260 l 0 260 l 260 1042 l 503 1042 l 564 1103 l 626 1042 l 1128 1042 l 1273 608 l 1024 608 l 825 806 l 648 629 l 756 521 l 1042 521 l 1042 434 l 720 434 l 521 633 l 322 434 m 286 521 l 372 608 l 208 608 l 178 521 l 286 521 m 1060 694 l 1153 694 l 1124 781 l 973 781 l 1060 694 m 1066 955 l 713 955 l 781 886 l 825 930 l 886 868 l 1095 868 l 1066 955 m 720 825 l 564 980 l 366 781 l 265 781 l 236 694 l 459 694 l 521 756 l 586 690 l 720 825 m 416 955 l 323 955 l 294 868 l 330 868 l 416 955 z "},"":{"ha":1389,"x_min":0,"x_max":1345,"o":"m 1128 87 l 1215 87 l 1215 0 l 1128 0 l 1128 87 m 1172 608 q 1239 594 1208 608 q 1295 557 1271 581 q 1332 502 1318 533 q 1345 434 1345 470 q 1336 379 1345 403 q 1312 336 1326 355 q 1280 302 1297 317 q 1249 272 1263 287 q 1225 241 1234 257 q 1215 206 1215 226 l 1215 174 l 1128 174 l 1128 206 q 1138 261 1128 238 q 1162 304 1147 285 q 1194 338 1177 323 q 1225 368 1211 353 q 1249 399 1240 383 q 1259 434 1259 414 q 1252 468 1259 452 q 1233 495 1245 484 q 1206 514 1221 507 q 1172 521 1190 521 q 1138 514 1154 521 q 1111 495 1122 507 q 1092 468 1099 484 q 1085 434 1085 452 l 998 434 q 1012 502 998 470 q 1049 557 1025 533 q 1104 594 1073 581 q 1172 608 1136 608 m 121 347 l 1086 347 q 1048 260 1059 309 l 0 260 l 260 1042 l 503 1042 l 564 1103 l 626 1042 l 1128 1042 l 1244 694 l 1153 694 l 1124 781 l 972 781 l 1057 697 q 983 649 1017 680 q 904 728 943 689 q 825 806 865 767 l 648 629 l 756 521 l 928 521 q 916 478 920 500 q 911 434 911 456 l 720 434 l 521 633 l 322 434 l 149 434 l 121 347 m 372 608 l 208 608 l 178 521 l 286 521 l 372 608 m 713 955 l 781 886 l 825 930 l 886 868 l 1095 868 l 1066 955 l 713 955 m 564 980 l 365 781 l 265 781 l 236 694 l 459 694 l 521 756 l 586 690 l 720 825 l 564 980 m 323 955 l 294 868 l 330 868 l 416 955 l 323 955 z "},"":{"ha":1389,"x_min":0,"x_max":1376,"o":"m 1315 465 l 1376 404 l 998 25 l 816 208 l 877 269 l 998 149 l 1315 465 m 121 347 l 825 347 l 738 260 l 0 260 l 260 1042 l 503 1042 l 564 1103 l 625 1042 l 1128 1042 l 1289 562 l 1161 434 l 720 434 l 521 633 l 322 434 l 149 434 l 121 347 m 286 521 l 372 608 l 208 608 l 178 521 l 286 521 m 756 521 l 1211 521 l 1181 608 l 1024 608 l 825 806 l 648 629 l 756 521 m 1153 694 l 1124 781 l 972 781 l 1059 694 l 1153 694 m 1066 955 l 712 955 l 781 886 l 825 930 l 886 868 l 1095 868 l 1066 955 m 720 825 l 564 980 l 365 781 l 265 781 l 236 694 l 459 694 l 521 756 l 586 690 l 720 825 m 416 955 l 323 955 l 294 868 l 330 868 l 416 955 z "},"":{"ha":1389,"x_min":0,"x_max":1389,"o":"m 608 863 l 304 711 l 0 863 l 0 1221 l 304 1373 l 608 1221 l 608 863 m 304 1275 l 140 1194 l 304 1112 l 467 1194 l 304 1275 m 87 916 l 260 829 l 260 1036 l 87 1123 l 87 916 m 521 916 l 521 1123 l 347 1036 l 347 829 l 521 916 m 900 825 q 965 815 933 825 q 1025 789 997 806 q 1075 747 1053 772 q 1113 693 1098 723 l 1384 150 q 1389 130 1389 139 q 1376 100 1389 113 q 1345 87 1363 87 q 1323 93 1333 87 q 1307 111 1312 100 l 1035 654 q 979 715 1015 692 q 899 737 942 737 q 852 730 876 737 l 455 598 q 440 586 446 595 q 434 568 434 578 q 443 547 434 556 q 465 537 452 537 q 471 538 469 537 l 816 607 q 820 608 818 608 q 825 608 823 608 q 852 598 840 608 q 867 574 863 589 l 895 464 q 916 457 905 460 q 935 448 926 454 q 949 434 944 443 q 955 412 955 426 q 942 382 955 395 q 911 369 929 369 q 898 371 904 369 q 866 382 889 374 q 811 400 842 390 q 746 422 781 411 q 683 444 712 434 q 632 460 653 454 q 607 466 612 466 q 577 454 589 466 q 564 424 564 441 q 571 400 564 410 q 590 385 578 391 q 705 319 650 355 q 810 239 760 283 q 928 152 867 189 q 1059 83 989 115 q 1078 67 1071 78 q 1085 43 1085 57 q 1072 13 1085 26 q 1042 0 1059 0 q 1025 3 1034 0 q 881 77 951 33 q 752 174 812 121 q 656 247 706 214 q 551 307 606 279 q 497 355 517 324 q 477 424 477 386 q 478 438 477 431 q 480 452 479 444 q 430 456 454 448 q 387 480 406 464 q 358 519 369 496 q 347 568 347 542 q 369 637 347 606 q 428 680 391 668 l 824 812 q 900 825 861 825 z "},"":{"ha":1389,"x_min":87,"x_max":1389,"o":"m 1215 715 q 1288 652 1256 688 q 1343 575 1320 616 q 1377 486 1365 533 q 1389 391 1389 439 q 1358 239 1389 310 q 1274 115 1327 168 q 1150 31 1221 62 q 998 0 1079 0 q 879 19 937 0 q 773 72 821 37 q 687 154 724 106 q 630 260 650 202 l 87 260 l 87 1302 l 260 1302 l 260 1389 l 347 1389 l 347 1302 l 955 1302 l 955 1389 l 1042 1389 l 1042 1302 l 1215 1302 l 1215 715 m 174 1215 l 174 1042 l 1128 1042 l 1128 1215 l 1042 1215 l 1042 1128 l 955 1128 l 955 1215 l 347 1215 l 347 1128 l 260 1128 l 260 1215 l 174 1215 m 610 347 q 608 391 608 368 q 624 504 608 449 q 673 608 641 559 l 608 608 l 608 694 l 694 694 l 694 636 q 756 697 722 671 q 830 743 791 724 q 911 771 869 762 q 998 781 954 781 q 1128 759 1066 781 l 1128 955 l 174 955 l 174 347 l 610 347 m 998 87 q 1117 111 1061 87 q 1213 176 1172 135 q 1278 272 1254 217 q 1302 391 1302 328 q 1278 509 1302 454 q 1213 605 1254 564 q 1117 670 1172 646 q 998 694 1061 694 q 880 670 935 694 q 784 605 825 646 q 719 509 743 564 q 694 391 694 454 q 719 272 694 328 q 784 176 743 217 q 880 111 825 135 q 998 87 935 87 m 1042 434 l 1172 434 l 1172 347 l 955 347 l 955 608 l 1042 608 l 1042 434 m 260 694 l 347 694 l 347 608 l 260 608 l 260 694 m 434 694 l 521 694 l 521 608 l 434 608 l 434 694 m 434 868 l 521 868 l 521 781 l 434 781 l 434 868 m 434 521 l 521 521 l 521 434 l 434 434 l 434 521 m 694 781 l 608 781 l 608 868 l 694 868 l 694 781 m 868 781 l 781 781 l 781 868 l 868 868 l 868 781 m 260 868 l 347 868 l 347 781 l 260 781 l 260 868 z "},"":{"ha":1389,"x_min":0,"x_max":1389,"o":"m 705 487 q 843 411 781 460 q 949 296 905 361 q 1018 155 994 231 q 1042 0 1042 79 l 955 0 q 939 115 955 60 q 896 219 924 171 q 828 307 867 267 q 740 375 788 347 q 636 418 692 403 q 521 434 581 434 q 406 418 461 434 q 302 375 350 403 q 214 307 254 347 q 146 219 174 267 q 102 115 118 171 q 87 0 87 60 l 0 0 q 24 155 0 79 q 93 296 48 231 q 199 411 137 361 q 336 487 261 460 q 268 543 298 511 q 217 613 238 575 q 185 693 196 651 q 174 781 174 736 q 201 917 174 853 q 275 1027 228 980 q 386 1101 322 1074 q 521 1128 449 1128 q 656 1101 593 1128 q 767 1027 720 1074 q 841 917 814 980 q 868 781 868 853 q 857 693 868 736 q 825 613 846 651 q 773 543 804 575 q 705 487 743 511 m 260 781 q 281 680 260 727 q 337 597 301 633 q 419 541 372 562 q 521 521 467 521 q 622 541 574 521 q 705 597 669 562 q 761 680 741 633 q 781 781 781 727 q 761 882 781 835 q 705 965 741 930 q 622 1021 669 1001 q 521 1042 574 1042 q 419 1021 467 1042 q 337 965 372 1001 q 281 882 301 930 q 260 781 260 835 m 1198 1285 q 1340 1074 1291 1192 q 1389 825 1389 956 q 1340 575 1389 693 q 1198 364 1291 457 l 1137 426 q 1259 609 1217 506 q 1302 825 1302 711 q 1259 1041 1302 938 q 1137 1223 1217 1143 l 1198 1285 m 1014 1101 q 1099 974 1069 1046 q 1128 825 1128 903 q 1099 675 1128 747 q 1014 549 1069 604 l 953 610 q 1018 708 996 652 q 1041 825 1041 764 q 1018 941 1041 886 q 953 1040 996 997 l 1014 1101 z "},"":{"ha":1389,"x_min":0,"x_max":1389,"o":"m 738 955 q 768 942 755 955 q 781 911 781 929 q 768 881 781 894 q 738 868 755 868 l 651 868 q 621 881 633 868 q 608 911 608 894 q 621 942 608 929 q 651 955 633 955 l 738 955 m 1352 1017 q 1379 975 1370 999 q 1389 926 1389 951 l 1389 752 q 1357 594 1389 668 q 1270 466 1325 521 q 1142 379 1215 411 q 984 347 1068 347 l 929 347 q 883 357 904 347 q 842 380 861 366 q 805 410 823 394 q 769 440 787 427 q 733 464 751 454 q 694 473 715 473 q 656 464 674 473 q 620 440 637 454 q 584 410 602 427 q 547 380 566 394 q 506 357 528 366 q 460 347 485 347 l 405 347 q 247 379 321 347 q 119 466 174 411 q 32 594 64 521 q 0 752 0 668 l 0 926 q 10 975 0 951 q 37 1017 20 999 q 92 1054 62 1041 q 176 1082 128 1070 q 278 1102 224 1094 q 389 1116 332 1110 q 500 1124 446 1121 q 605 1127 555 1126 q 694 1128 654 1128 q 784 1127 734 1128 q 889 1124 834 1126 q 1000 1116 943 1121 q 1111 1102 1057 1110 q 1213 1082 1165 1094 q 1297 1054 1261 1070 q 1352 1017 1326 1041 m 1302 925 q 1290 955 1302 944 q 1263 974 1278 966 q 1184 1000 1229 989 q 1087 1018 1139 1010 q 982 1030 1036 1025 q 876 1037 928 1035 q 777 1041 824 1040 q 694 1042 730 1042 q 612 1041 659 1042 q 513 1037 565 1040 q 406 1030 460 1035 q 300 1018 351 1025 q 203 999 248 1010 q 124 973 157 988 q 98 955 109 966 q 87 926 87 944 l 87 752 q 87 741 87 747 q 88 720 87 735 q 292 670 189 687 q 501 654 396 654 q 716 671 610 654 q 924 724 823 689 q 1121 809 1026 758 q 1302 925 1216 859 z "},"":{"ha":1389,"x_min":0,"x_max":1345,"o":"m 609 289 q 644 414 614 356 q 720 516 673 473 q 827 583 766 559 q 955 608 887 608 l 955 174 l 609 289 m 306 149 q 323 216 309 184 q 359 274 337 248 q 412 318 382 300 q 477 342 442 336 l 477 87 l 306 149 m 999 590 q 1005 640 999 612 q 1018 689 1010 668 q 1069 784 1036 741 q 1145 858 1102 827 q 1239 905 1188 888 q 1345 922 1291 922 l 1345 217 l 1061 318 q 1055 346 1060 323 q 1043 397 1050 368 q 1028 460 1036 427 q 1014 522 1021 494 q 1003 569 1008 550 q 999 590 999 589 m 1345 1186 l 1345 1009 q 1224 992 1283 1009 q 1115 943 1166 975 q 1023 865 1064 911 q 955 764 982 820 l 955 694 q 804 667 876 694 q 675 591 732 640 q 579 476 618 543 q 528 331 541 409 l 477 536 l 477 431 q 385 401 429 423 q 308 346 342 380 q 252 270 274 313 q 221 178 229 227 l 0 257 l 0 694 l 174 637 l 174 1042 l 738 854 l 738 1389 l 1345 1186 z "},"":{"ha":1389,"x_min":1,"x_max":1389,"o":"m 1215 521 l 1364 521 q 1355 491 1360 505 q 1343 461 1350 476 q 1294 379 1324 416 q 1223 315 1263 342 q 1138 275 1184 289 q 1043 260 1093 260 l 1008 260 q 907 279 954 260 q 821 336 860 298 q 763 377 793 363 q 694 391 733 391 q 626 377 656 391 q 568 336 595 363 q 482 279 529 298 q 380 260 435 260 l 347 260 q 252 275 298 260 q 167 315 206 289 q 97 379 127 342 q 47 461 66 416 q 36 491 41 476 q 26 521 31 505 l 174 521 l 174 868 l 26 868 q 36 898 31 884 q 47 928 41 913 q 97 1010 66 973 q 167 1074 127 1047 q 252 1114 206 1100 q 347 1128 298 1128 l 1043 1128 q 1138 1114 1093 1128 q 1223 1074 1184 1100 q 1294 1011 1263 1048 q 1343 928 1324 974 q 1355 899 1350 913 q 1364 868 1360 884 l 1215 868 l 1215 521 m 911 955 q 942 968 929 955 q 955 998 955 981 q 942 1029 955 1016 q 911 1042 929 1042 l 477 1042 q 447 1029 460 1042 q 434 998 434 1016 q 447 968 434 981 q 477 955 460 955 l 911 955 m 87 608 l 7 608 q 1 694 1 650 q 3 738 1 716 q 7 781 4 760 l 87 781 l 87 608 m 1383 781 q 1389 694 1389 739 q 1383 608 1389 650 l 1302 608 l 1302 781 l 1383 781 z "},"":{"ha":1389,"x_min":0,"x_max":1389,"o":"m 1389 1215 l 1389 347 l 602 347 q 593 391 598 369 q 583 434 589 412 l 1302 434 l 1302 1128 l 174 1128 l 174 843 q 130 854 152 849 q 87 862 109 859 l 87 1215 l 1389 1215 m 0 434 q 67 420 36 434 q 123 383 99 407 q 160 328 146 359 q 174 260 174 296 l 87 260 q 80 294 87 279 q 61 322 73 310 q 34 340 50 334 q 0 347 18 347 l 0 434 m 0 608 q 135 581 72 608 q 246 506 199 553 q 320 396 293 459 q 347 260 347 332 l 260 260 q 240 361 260 314 q 184 445 220 409 q 101 500 149 480 q 0 521 54 521 l 0 608 m 0 781 q 139 763 72 781 q 263 710 205 744 q 368 629 321 676 q 450 524 416 581 q 502 399 484 466 q 521 260 521 332 l 434 260 q 418 376 434 320 q 375 479 403 431 q 307 567 347 528 q 219 635 267 607 q 115 679 171 663 q 0 694 60 694 l 0 781 z "},"":{"ha":1389,"x_min":0,"x_max":1376,"o":"m 913 347 l 0 347 l 0 1215 l 1302 1215 l 1302 736 l 1215 649 l 1215 1128 l 87 1128 l 87 434 l 827 434 l 913 347 m 1190 347 l 1376 161 l 1315 100 l 1128 286 l 942 100 l 881 161 l 1067 347 l 881 534 l 942 595 l 1128 409 l 1315 595 l 1376 534 l 1190 347 z "},"":{"ha":1389,"x_min":1,"x_max":1388,"o":"m 1343 928 q 1377 813 1366 872 q 1388 694 1388 755 q 1380 588 1388 642 q 1352 484 1371 534 q 1301 391 1333 434 q 1225 317 1270 347 q 1138 275 1184 289 q 1042 260 1091 260 l 896 260 q 823 281 853 260 q 774 338 793 301 q 742 376 762 362 q 694 391 722 391 q 646 376 665 391 q 614 338 626 361 q 565 281 595 301 q 492 260 534 260 l 347 260 q 251 275 298 260 q 164 317 205 289 q 87 391 119 347 q 37 484 56 434 q 9 588 18 534 q 1 694 1 642 q 12 813 1 755 q 46 928 23 872 q 96 1011 65 974 q 166 1074 127 1048 q 251 1114 205 1100 q 347 1128 297 1128 l 1042 1128 q 1138 1114 1092 1128 q 1223 1074 1183 1100 q 1293 1010 1262 1048 q 1343 928 1324 973 m 87 694 q 89 651 87 673 q 94 608 91 629 l 173 608 l 173 781 l 94 781 q 89 738 91 760 q 87 694 87 716 m 1042 347 q 1120 360 1083 347 q 1186 395 1156 372 q 1238 450 1216 418 q 1272 521 1260 482 l 1128 521 l 1128 868 l 1273 868 q 1237 939 1259 907 q 1186 994 1215 971 q 1121 1029 1158 1017 q 1042 1042 1085 1042 l 347 1042 q 268 1029 304 1042 q 202 994 231 1017 q 152 939 174 971 q 116 868 130 907 l 260 868 l 260 521 l 117 521 q 151 450 129 482 q 203 395 173 418 q 269 360 233 372 q 347 347 306 347 l 492 347 q 534 372 520 347 q 598 449 559 420 q 694 477 637 477 q 774 458 736 477 q 836 404 811 439 q 845 389 841 397 q 854 372 849 380 q 896 347 867 347 l 1042 347 m 1295 608 q 1300 651 1298 629 q 1301 694 1301 673 q 1300 738 1301 716 q 1295 781 1298 760 l 1215 781 l 1215 608 l 1295 608 m 911 955 q 941 942 928 955 q 954 911 954 929 q 941 881 954 894 q 911 868 928 868 l 477 868 q 446 881 459 868 q 433 911 433 894 q 446 942 433 929 q 477 955 459 955 l 911 955 z "},"":{"ha":1389,"x_min":87,"x_max":1215,"o":"m 260 1302 q 254 1250 260 1272 q 238 1210 248 1227 q 217 1179 229 1193 q 196 1152 205 1166 q 180 1122 186 1138 q 174 1085 174 1106 q 180 1048 174 1064 q 196 1018 186 1032 q 217 991 205 1004 q 238 960 229 977 q 254 921 248 943 q 260 868 260 899 q 254 815 260 838 q 238 776 248 793 q 217 745 229 759 q 196 718 205 732 q 180 688 186 704 q 174 651 174 672 l 87 651 q 93 704 87 682 q 109 743 100 726 q 130 774 119 760 q 151 801 142 787 q 167 831 161 815 q 174 868 174 847 q 167 905 174 889 q 151 935 161 921 q 130 962 142 949 q 109 993 119 976 q 93 1033 100 1010 q 87 1085 87 1055 q 93 1138 87 1116 q 109 1177 100 1160 q 130 1208 119 1194 q 151 1235 142 1221 q 167 1265 161 1249 q 174 1302 174 1281 l 260 1302 m 1128 781 q 1135 744 1128 760 q 1151 714 1141 728 q 1172 687 1160 701 q 1193 656 1183 673 q 1209 617 1202 639 q 1215 564 1215 595 q 1209 512 1215 534 q 1193 472 1202 490 q 1172 441 1183 455 q 1151 414 1160 428 q 1135 384 1141 400 q 1128 347 1128 368 l 1042 347 q 1048 400 1042 378 q 1064 439 1055 422 q 1085 470 1074 456 q 1106 497 1097 484 q 1122 527 1116 511 q 1128 564 1128 543 q 1122 601 1128 585 q 1106 631 1116 617 q 1085 659 1097 645 q 1064 689 1074 672 q 1048 729 1055 707 q 1042 781 1042 751 q 1048 834 1042 812 q 1064 873 1055 856 q 1085 904 1074 890 q 1106 931 1097 918 q 1122 961 1116 945 q 1128 998 1128 977 l 1215 998 q 1209 946 1215 968 q 1193 906 1202 924 q 1172 876 1183 889 q 1151 848 1160 862 q 1135 818 1141 834 q 1128 781 1128 802 m 694 1128 l 781 1128 l 781 1042 l 694 1042 l 694 955 l 608 955 l 608 1042 l 521 1042 l 521 1128 l 608 1128 l 608 1215 l 694 1215 l 694 1128 m 703 1389 q 801 1369 755 1389 q 881 1315 847 1349 q 935 1235 915 1281 q 955 1137 955 1189 l 955 894 q 932 790 955 840 q 868 705 909 741 l 868 217 q 851 133 868 172 q 805 63 834 93 q 735 17 775 34 q 651 0 696 0 q 567 17 606 0 q 497 63 527 34 q 451 133 468 93 q 434 217 434 172 l 434 705 q 370 790 393 741 q 347 894 347 840 l 347 1137 q 367 1235 347 1189 q 421 1315 387 1281 q 501 1369 455 1349 q 599 1389 547 1389 l 703 1389 m 868 1137 q 855 1201 868 1171 q 820 1254 842 1232 q 767 1289 798 1276 q 703 1302 737 1302 l 599 1302 q 535 1289 565 1302 q 482 1254 505 1276 q 447 1201 460 1232 q 434 1137 434 1171 l 434 894 q 458 810 434 844 q 521 748 482 776 l 521 217 q 531 166 521 190 q 559 125 541 142 q 600 97 576 107 q 651 87 624 87 q 702 97 678 87 q 743 125 726 107 q 771 166 761 142 q 781 217 781 190 l 781 748 q 844 810 820 776 q 868 894 868 844 l 868 1137 z "},"":{"ha":1389,"x_min":347,"x_max":955,"o":"m 694 1128 l 781 1128 l 781 1042 l 694 1042 l 694 955 l 608 955 l 608 1042 l 521 1042 l 521 1128 l 608 1128 l 608 1215 l 694 1215 l 694 1128 m 703 1389 q 801 1369 755 1389 q 881 1315 847 1349 q 935 1235 915 1281 q 955 1137 955 1189 l 955 894 q 932 790 955 840 q 868 705 909 741 l 868 217 q 851 133 868 172 q 805 63 834 93 q 735 17 775 34 q 651 0 696 0 q 567 17 606 0 q 497 63 527 34 q 451 133 468 93 q 434 217 434 172 l 434 705 q 370 790 393 741 q 347 894 347 840 l 347 1137 q 367 1235 347 1189 q 421 1315 387 1281 q 501 1369 455 1349 q 599 1389 547 1389 l 703 1389 m 868 1137 q 855 1201 868 1171 q 820 1254 842 1232 q 767 1289 798 1276 q 703 1302 737 1302 l 599 1302 q 535 1289 565 1302 q 482 1254 505 1276 q 447 1201 460 1232 q 434 1137 434 1171 l 434 894 q 458 810 434 844 q 521 748 482 776 l 521 217 q 531 166 521 190 q 559 125 541 142 q 600 97 576 107 q 651 87 624 87 q 702 97 678 87 q 743 125 726 107 q 771 166 761 142 q 781 217 781 190 l 781 748 q 844 810 820 776 q 868 894 868 844 l 868 1137 z "},"":{"ha":1389,"x_min":434,"x_max":955,"o":"m 694 1302 q 795 1282 748 1302 q 879 1226 843 1261 q 935 1143 914 1190 q 955 1042 955 1095 l 955 347 q 935 246 955 293 q 879 163 914 199 q 795 107 843 127 q 694 87 748 87 q 593 107 640 87 q 510 163 546 127 q 454 246 475 199 q 434 347 434 293 l 434 1042 q 454 1143 434 1095 q 510 1226 475 1190 q 593 1282 546 1261 q 694 1302 640 1302 m 868 1042 q 854 1109 868 1078 q 817 1164 841 1141 q 762 1202 793 1188 q 694 1215 730 1215 q 627 1202 659 1215 q 572 1164 595 1188 q 534 1109 548 1141 q 521 1042 521 1078 l 521 347 q 534 280 521 311 q 572 224 548 248 q 627 187 595 201 q 694 174 659 174 q 762 187 730 174 q 817 224 793 201 q 854 280 841 248 q 868 347 868 311 l 868 1042 m 694 1128 q 728 1122 713 1128 q 756 1103 744 1115 q 774 1076 768 1091 q 781 1042 781 1060 q 774 1008 781 1023 q 756 980 768 992 q 728 962 744 968 q 694 955 713 955 q 661 962 676 955 q 633 980 645 968 q 614 1008 621 992 q 608 1042 608 1023 q 614 1076 608 1060 q 633 1103 621 1091 q 661 1122 645 1115 q 694 1128 676 1128 z "},"":{"ha":1389,"x_min":0,"x_max":1302,"o":"m 1302 1128 l 1302 260 l 0 260 l 0 1128 l 1302 1128 m 1218 1044 l 84 1044 l 84 345 l 1218 345 l 1218 1044 m 781 521 l 694 521 l 694 868 l 781 868 l 781 521 m 608 521 l 521 521 l 521 868 l 608 868 l 608 521 z "},"":{"ha":1389,"x_min":0,"x_max":1302,"o":"m 1302 1128 l 1302 260 l 0 260 l 0 1128 l 1302 1128 m 1218 1044 l 84 1044 l 84 345 l 1218 345 l 1218 1044 m 868 694 l 521 434 l 521 955 l 868 694 m 597 586 l 741 694 l 597 803 l 597 586 z "},"":{"ha":1389,"x_min":43,"x_max":1360,"o":"m 391 1235 q 322 1188 352 1218 q 275 1119 292 1158 q 228 1188 258 1158 q 159 1235 198 1218 q 228 1282 198 1252 q 275 1350 258 1312 q 322 1282 292 1312 q 391 1235 352 1252 m 287 1235 l 275 1246 q 263 1235 269 1240 l 275 1223 l 287 1235 m 130 1032 q 165 981 143 1003 q 217 945 188 958 q 165 910 188 932 q 130 859 143 888 q 95 910 117 888 q 43 945 73 932 q 95 981 73 958 q 130 1032 117 1003 m 1085 656 q 1050 708 1072 685 q 998 743 1027 730 q 1050 778 1027 755 q 1085 829 1072 800 q 1120 778 1098 800 q 1172 743 1143 755 q 1120 708 1143 730 q 1085 656 1098 685 m 1259 347 q 1360 357 1308 347 q 1267 232 1322 288 q 1148 138 1213 177 q 1008 78 1082 99 q 854 58 933 58 q 700 78 774 58 q 562 137 626 99 q 444 227 497 174 q 354 345 391 280 q 295 483 316 409 q 275 637 275 557 q 291 773 275 707 q 337 898 307 839 q 410 1008 367 957 q 506 1099 452 1059 q 621 1166 559 1139 q 752 1206 683 1194 q 699 1070 717 1141 q 680 926 680 1000 q 701 772 680 846 q 759 634 722 698 q 850 517 797 570 q 967 426 903 464 q 1105 368 1031 389 q 1259 347 1179 347 m 854 116 q 1066 161 966 116 q 1242 290 1166 205 q 1076 316 1156 292 q 928 382 997 340 q 803 482 859 424 q 706 610 747 540 q 644 760 666 680 q 622 926 622 840 q 629 1022 622 975 q 651 1116 637 1069 q 520 1035 578 1084 q 419 924 461 986 q 355 790 378 863 q 333 637 333 717 q 352 498 333 565 q 404 374 370 431 q 486 269 438 316 q 591 187 533 221 q 715 135 648 153 q 854 116 782 116 z "},"":{"ha":1389,"x_min":0,"x_max":1389,"o":"m 1389 290 l 0 290 l 260 1071 l 509 1071 l 564 1126 l 620 1071 l 1128 1071 l 1389 290 m 1202 665 l 1029 665 l 825 871 l 627 673 l 750 550 l 1241 550 l 1202 665 m 938 839 l 1054 724 l 1183 724 l 1145 839 l 938 839 m 677 1013 l 781 909 l 825 952 l 880 897 l 1125 897 l 1087 1013 l 677 1013 m 264 897 l 335 897 l 451 1013 l 302 1013 l 264 897 m 205 724 l 465 724 l 521 779 l 586 713 l 741 868 l 564 1044 l 359 839 l 244 839 l 205 724 m 148 550 l 292 550 l 408 665 l 186 665 l 148 550 m 80 347 l 1309 347 l 1261 492 l 726 492 l 521 697 l 316 492 l 128 492 l 80 347 z "},"":{"ha":1389,"x_min":87,"x_max":1302,"o":"m 1172 1042 q 1223 1031 1199 1042 q 1264 1004 1246 1021 q 1292 962 1282 986 q 1302 911 1302 939 q 1299 846 1302 884 q 1287 766 1295 808 q 1265 683 1278 724 q 1232 607 1252 641 q 1185 550 1212 573 q 1124 522 1158 527 l 1104 363 q 1080 288 1099 323 q 1032 228 1061 254 q 966 188 1003 203 q 888 174 929 174 q 851 173 869 174 q 814 173 833 173 q 741 175 777 173 l 692 30 q 676 8 688 16 q 651 0 665 0 q 621 13 633 0 q 608 43 608 26 q 614 71 608 50 q 628 115 620 92 q 644 160 636 139 q 654 191 651 182 q 558 231 604 205 q 472 291 511 256 q 401 369 432 326 q 351 460 370 412 q 347 477 347 469 q 360 508 347 495 q 391 521 373 521 q 414 514 404 521 q 431 494 425 507 q 466 430 448 460 q 512 372 484 400 q 635 289 566 318 q 781 260 705 260 l 888 260 q 935 269 913 260 q 975 293 957 277 q 1003 329 992 308 q 1018 374 1015 350 l 1040 551 q 989 528 1016 536 q 933 521 962 521 l 868 521 q 786 534 825 521 q 714 570 747 547 q 658 627 682 594 q 620 701 633 661 q 439 673 528 689 q 259 637 349 657 l 173 123 q 158 97 170 107 q 130 87 146 87 q 100 100 113 87 q 87 130 87 113 q 87 138 87 135 l 164 598 q 139 604 153 601 q 114 612 125 606 q 95 626 102 617 q 87 651 87 635 l 87 868 q 96 894 87 884 q 119 910 105 904 q 148 918 132 916 q 175 924 163 921 q 223 1106 181 1021 q 332 1254 264 1192 q 487 1353 399 1317 q 673 1389 575 1389 q 829 1364 754 1389 q 967 1293 905 1339 q 1077 1183 1029 1247 q 1148 1042 1124 1119 l 1172 1042 m 608 917 q 390 881 498 901 q 174 834 281 861 l 174 707 q 390 752 281 732 q 608 787 498 772 l 608 917 m 264 944 q 658 1011 460 987 q 1057 1040 855 1035 q 995 1148 1034 1100 q 905 1231 956 1196 q 796 1283 855 1265 q 673 1302 736 1302 q 526 1275 595 1302 q 401 1200 456 1248 q 310 1086 347 1152 q 264 944 274 1021 m 1128 616 q 1144 632 1137 624 q 1156 650 1150 641 q 1183 710 1172 678 q 1201 777 1194 743 q 1212 845 1208 811 q 1215 911 1215 880 q 1202 942 1215 929 q 1172 955 1190 955 q 933 948 1052 955 q 694 928 814 941 l 694 781 q 708 714 694 745 q 745 659 722 682 q 801 621 769 635 q 868 608 832 608 l 933 608 q 986 621 965 608 q 1024 651 1008 635 q 1054 681 1040 667 q 1085 694 1067 694 q 1110 688 1101 694 q 1123 671 1119 682 q 1128 649 1127 661 q 1128 625 1128 637 l 1128 623 l 1128 616 z "},"":{"ha":1389,"x_min":0,"x_max":1389,"o":"m 955 260 l 955 174 l 1128 174 l 1128 87 l 694 87 l 694 174 l 868 174 l 868 260 l 608 260 l 608 347 l 1302 347 l 1302 868 l 1042 868 l 1042 608 l 521 608 l 521 434 l 434 521 l 434 608 l 0 608 l 0 1389 l 1042 1389 l 1042 955 l 1389 955 l 1389 260 l 955 260 m 955 1302 l 87 1302 l 87 694 l 955 694 l 955 1302 m 315 430 l 528 217 l 312 1 l 262 52 l 383 174 l 260 174 q 159 194 206 174 q 76 250 112 214 q 20 333 41 286 q 0 434 0 380 l 87 434 q 100 367 87 398 q 138 311 114 335 q 193 274 161 288 q 260 260 224 260 l 383 260 l 264 380 l 315 430 z "},"":{"ha":1389,"x_min":0,"x_max":1389,"o":"m 1389 174 l 401 174 l 304 125 l 207 174 l 0 174 l 30 262 l 0 277 l 0 635 l 184 727 l 260 955 l 434 955 l 434 1389 l 781 1215 l 781 955 l 954 955 l 1085 1217 l 1289 809 q 1299 783 1295 795 q 1302 755 1302 770 q 1281 691 1302 719 q 1232 646 1261 663 l 1389 174 m 1085 1023 q 1070 993 1081 1015 q 1044 943 1059 972 q 1014 884 1030 915 q 985 825 998 852 q 963 779 972 798 q 955 755 955 759 q 971 727 955 739 q 1008 708 987 715 q 1052 698 1030 701 q 1085 694 1074 694 q 1118 698 1097 694 q 1162 708 1140 701 q 1199 727 1183 715 q 1215 755 1215 739 q 1207 778 1215 759 q 1185 825 1198 798 q 1156 883 1172 852 q 1125 943 1140 915 q 1100 994 1111 972 q 1085 1023 1088 1015 m 521 955 l 694 955 l 694 1167 l 521 1254 l 521 955 m 260 450 l 87 537 l 87 331 l 260 244 l 260 450 m 304 526 l 467 608 l 304 689 l 140 608 l 304 526 m 521 537 l 347 450 l 347 244 l 521 331 l 521 537 m 608 635 l 608 277 l 574 260 l 1268 260 l 1151 614 q 1085 608 1120 608 q 1040 611 1064 608 q 991 623 1015 615 q 945 642 967 630 q 905 670 922 654 q 878 707 888 686 q 868 755 868 728 q 872 785 868 770 q 883 814 876 800 q 897 841 889 828 q 911 868 904 854 l 781 868 l 781 608 l 694 651 l 694 868 l 521 868 l 521 781 l 434 825 l 434 868 l 323 868 l 294 781 l 304 787 l 608 635 z "},"":{"ha":1389,"x_min":0,"x_max":1381,"o":"m 1295 711 q 1327 688 1312 701 q 1355 661 1343 676 q 1374 628 1367 646 q 1381 590 1381 610 q 1371 546 1381 564 q 1345 508 1360 528 l 1022 103 l 624 0 l 536 184 l 370 184 l 84 471 q 72 480 79 475 q 58 489 64 484 q 17 533 35 508 q 0 590 0 558 q 7 628 0 610 q 27 661 15 646 q 54 688 39 676 q 86 711 70 701 l 86 957 l 259 957 l 259 1044 l 1036 1044 l 1036 957 l 1295 957 l 1295 711 m 1036 699 l 1208 699 l 1208 871 l 1036 871 l 1036 699 m 345 612 l 432 612 l 432 871 l 777 871 l 777 612 l 949 612 l 949 957 l 345 957 l 345 612 m 518 785 l 518 612 l 690 612 l 690 785 l 518 785 m 173 699 l 259 699 l 259 871 l 173 871 l 173 699 m 1157 411 q 1043 383 1101 394 q 926 365 985 372 q 807 355 867 358 q 690 353 748 353 q 484 362 587 353 q 280 396 381 372 l 406 271 l 591 271 l 671 102 l 972 180 l 1157 411 m 1295 612 l 1036 612 l 1036 526 l 259 526 l 259 612 l 86 612 l 86 590 q 91 576 86 583 q 101 564 95 570 q 114 553 107 558 q 125 545 121 548 q 203 508 159 524 q 298 480 248 492 q 401 460 348 468 q 505 448 454 452 q 604 441 557 444 q 690 439 652 439 q 775 441 726 439 q 880 449 825 444 q 993 463 935 454 q 1104 485 1050 471 q 1201 516 1157 498 q 1275 559 1246 535 l 1278 563 l 1279 563 q 1290 575 1284 568 q 1295 590 1295 583 l 1295 612 z "},"":{"ha":1389,"x_min":0,"x_max":1389,"o":"m 921 949 q 986 936 956 949 q 1040 900 1017 923 q 1076 847 1063 878 q 1089 781 1089 816 q 1076 716 1089 747 q 1040 662 1063 685 q 986 626 1017 640 q 921 613 956 613 q 856 626 886 613 q 802 662 825 640 q 766 716 779 685 q 753 781 753 747 q 766 847 753 816 q 802 900 779 878 q 856 936 825 923 q 921 949 886 949 m 921 689 q 957 696 940 689 q 986 716 974 703 q 1006 745 999 728 q 1013 781 1013 762 q 1006 817 1013 800 q 986 847 999 834 q 957 866 974 859 q 921 873 940 873 q 885 866 902 873 q 856 847 868 859 q 836 817 843 834 q 829 781 829 800 q 836 745 829 762 q 856 716 843 728 q 885 696 868 703 q 921 689 902 689 m 1345 679 q 1377 641 1364 663 q 1389 593 1389 620 q 1378 548 1389 566 q 1352 511 1368 530 l 1027 104 l 627 0 l 540 185 l 372 185 l 85 473 q 71 484 79 480 q 56 494 62 488 q 16 537 32 513 q 0 593 0 562 q 19 652 0 627 q 67 696 37 677 q 135 728 98 715 q 211 749 173 741 q 282 763 248 758 q 340 771 317 768 q 383 868 356 822 q 445 955 410 914 l 218 955 q 168 965 192 955 q 126 992 144 975 q 97 1033 108 1010 q 87 1083 87 1057 q 89 1104 87 1094 q 94 1124 90 1114 q 150 1232 113 1183 q 236 1315 186 1280 q 343 1370 285 1350 q 463 1389 401 1389 q 583 1370 525 1389 q 689 1317 640 1352 q 774 1235 737 1283 q 832 1128 811 1187 q 1006 1099 923 1128 q 1157 1017 1089 1070 q 1273 890 1225 964 q 1341 728 1321 817 q 1345 692 1345 710 q 1345 685 1345 688 q 1345 679 1345 682 m 345 1042 q 318 1082 328 1059 q 309 1128 309 1104 q 319 1177 309 1154 q 346 1217 329 1200 q 386 1243 363 1234 q 434 1253 408 1253 q 483 1243 460 1253 q 522 1217 505 1234 q 549 1177 539 1200 q 559 1128 559 1154 q 550 1082 559 1104 q 524 1042 541 1059 l 545 1042 q 640 1091 590 1072 q 742 1120 689 1111 q 695 1195 724 1162 q 630 1253 666 1229 q 551 1289 593 1276 q 463 1302 509 1302 q 369 1287 414 1302 q 287 1245 324 1272 q 220 1180 249 1218 q 176 1096 191 1142 q 174 1084 174 1090 q 187 1054 174 1066 q 218 1042 201 1042 l 345 1042 m 434 1080 q 469 1094 454 1080 q 483 1128 483 1108 q 469 1163 483 1149 q 434 1177 454 1177 q 399 1163 414 1177 q 385 1128 385 1149 q 399 1094 385 1108 q 434 1080 414 1080 m 1163 413 q 931 367 1050 379 q 694 355 812 355 q 487 365 591 355 q 282 398 383 374 l 408 272 l 595 272 l 675 102 l 977 180 l 1163 413 m 694 441 q 826 446 754 441 q 972 460 899 450 q 1115 489 1045 471 q 1238 534 1184 507 q 1171 521 1205 521 l 498 521 q 434 533 465 521 q 379 567 403 545 q 340 617 355 588 q 323 681 325 647 q 296 676 316 680 q 249 667 275 673 q 194 654 222 662 q 142 637 165 646 q 102 617 118 628 q 87 593 87 606 q 91 579 87 586 q 102 566 96 572 q 116 554 109 559 q 129 547 123 549 q 207 509 163 526 q 301 481 252 493 q 405 462 351 470 q 509 450 458 454 q 608 444 560 446 q 694 441 655 441 m 1171 608 q 1203 614 1187 608 q 1232 631 1219 621 q 1251 657 1244 642 q 1259 690 1259 672 q 1257 707 1259 699 q 1199 843 1238 781 q 1104 948 1160 904 q 980 1017 1048 993 q 834 1042 911 1042 q 689 1017 758 1042 q 564 948 620 993 q 469 843 509 904 q 412 707 430 781 q 410 690 410 699 q 417 657 410 672 q 437 631 425 642 q 465 614 449 621 q 498 608 481 608 l 1171 608 z "},"":{"ha":1389,"x_min":0,"x_max":1389,"o":"m 868 1302 l 1389 1302 l 1389 0 l 0 0 l 0 1364 l 868 496 l 868 1302 m 87 87 l 1154 87 l 87 1154 l 87 87 m 1190 174 l 1277 87 l 1302 87 l 1302 1215 l 955 1215 l 955 1128 l 1128 1128 l 1128 1042 l 955 1042 l 955 955 l 1128 955 l 1128 868 l 955 868 l 955 781 l 1215 781 l 1215 694 l 955 694 l 955 608 l 1128 608 l 1128 521 l 955 521 l 955 434 l 1128 434 l 1128 347 l 1017 347 l 1103 260 l 1215 260 l 1215 174 l 1190 174 m 260 669 l 669 260 l 260 260 l 260 669 m 347 459 l 347 347 l 459 347 l 347 459 z "}}}
